SplineFontDB: 3.0
FontName: Experiment-Sinhala
FullName: Experiment-Sinhala
FamilyName: Experiment-Sinhala
Weight: Regular
Copyright: Copyright (c) 2015, Pathum Egodawatta
UComments: "2015-9-29: Created with FontForge (http://fontforge.org)"
Version: 0.001
ItalicAngle: 0
UnderlinePosition: -99
UnderlineWidth: 49
Ascent: 750
Descent: 250
InvalidEm: 0
LayerCount: 5
Layer: 0 0 "Back" 1
Layer: 1 0 "Fore" 0
Layer: 2 0 "Back 3" 1
Layer: 3 0 "s1" 1
Layer: 4 0 "Back 2" 1
PreferredKerning: 4
XUID: [1021 779 -1439063335 14876943]
FSType: 0
OS2Version: 0
OS2_WeightWidthSlopeOnly: 0
OS2_UseTypoMetrics: 1
CreationTime: 1443542790
ModificationTime: 1464255768
PfmFamily: 17
TTFWeight: 400
TTFWidth: 5
LineGap: 122
VLineGap: 0
OS2TypoAscent: 879
OS2TypoAOffset: 0
OS2TypoDescent: -250
OS2TypoDOffset: 0
OS2TypoLinegap: 122
OS2WinAscent: 879
OS2WinAOffset: 0
OS2WinDescent: 49
OS2WinDOffset: 0
HheadAscent: 779
HheadAOffset: 0
HheadDescent: -27
HheadDOffset: 0
OS2Vendor: 'PfEd'
Lookup: 4 0 0 "'abvs' Above Base Substitutions in Sinhala lookup 0" { "'abvs' Above Base Substitutions in Sinhala lookup 0-1"  "'abvs' Above Base Substitutions in Sinhala lookup 0-2"  } ['abvs' ('DFLT' <'dflt' > 'sinh' <'dflt' > ) ]
Lookup: 4 0 0 "si_akhands" { "si_akhands subtable"  } ['akhn' ('sinh' <'dflt' > ) ]
Lookup: 4 0 0 "si_reph" { "si_reph subtable"  } ['rphf' ('sinh' <'dflt' > ) ]
Lookup: 4 0 0 "si_halant_1" { "si_halant_1 subtable"  } ['abvs' ('sinh' <'dflt' > ) ]
Lookup: 4 0 0 "si_halant_2" { "si_halant_2 subtable"  } ['abvs' ('sinh' <'dflt' > ) ]
Lookup: 4 0 0 "si_halant_3" { "si_halant_3 subtable"  } ['abvs' ('sinh' <'dflt' > ) ]
Lookup: 4 0 0 "si_abvs_1" { "si_abvs_1 subtable"  } ['abvs' ('sinh' <'dflt' > ) ]
Lookup: 4 0 0 "si_abvs_2" { "si_abvs_2 subtable"  } ['abvs' ('sinh' <'dflt' > ) ]
Lookup: 4 0 0 "si_abvs_3" { "si_abvs_3 subtable"  } ['abvs' ('sinh' <'dflt' > ) ]
Lookup: 4 0 0 "si_abvs_4" { "si_abvs_4 subtable"  } ['abvs' ('sinh' <'dflt' > ) ]

StartChar: si_Tta
Encoding: 34 3495 0
GlifName: si_T_ta
Width: 809
VWidth: 16
Flags: HMW
LayerCount: 5
Back
SplineSet
363.985351562 334 m 1
 337.985351562 346 303.985351562 352 270.985351562 350 c 0
 200.912109375 345.8515625 127.850585938 292.790039062 126.985351562 208 c 0
 125.8984375 108.803710938 210.487304688 42.294921875 377.985351562 43 c 4
 567.771484375 43.794921875 661.264648438 185.697265625 666.985351562 327 c 0
 675.693359375 540.58984375 580.010742188 673.365234375 368.985351562 676 c 0
 233.818359375 677.537109375 131.985351562 595 128.985351562 595 c 1
 95.9853515625 648 l 0
 146.83984375 685.638671875 257.393554688 734.567382812 370.985351562 734 c 0
 598.708984375 732.85546875 739.486328125 561.63671875 738.985351562 332 c 0
 738.538085938 105.602539062 595.884765625 -56.892578125 371.985351562 -59 c 0
 166.377929688 -60.677734375 49.3212890625 38.0029296875 45.9853515625 176 c 0
 42.6962890625 320.966796875 164.970703125 394.418945312 275.985351562 398 c 0
 337.985351562 400 377.985351562 379 377.985351562 379 c 1
 363.985351562 334 l 1
EndSplineSet
Fore
SplineSet
38.9208984375 208 m 4
 38.9208984375 366.491210938 167.920898438 449 282.920898438 449 c 4
 339.920898438 449 376.920898438 430 376.920898438 430 c 5
 378.920898438 414 367.920898438 388 362.920898438 382 c 5
 339.920898438 392 311.920898438 398 282.920898438 398 c 4
 198.920898438 398 110.920898438 347.975585938 110.920898438 240 c 4
 110.920898438 139.71875 214.920898438 59 378.920898438 59 c 4
 594.818359375 59 698.72265625 207 704.920898438 364 c 4
 712.138671875 555.63671875 596.9609375 704 363.920898438 704 c 4
 230.920898438 704 155.920898438 641 152.920898438 641 c 5
 140.920898438 653 128.920898438 673 134.920898438 701 c 5
 185.920898438 738 274.920898438 766 367.920898438 766 c 4
 600.86328125 766 776.078125 603.014648438 769.920898438 357 c 4
 763.7578125 121 626.126953125 -43 390.920898438 -43 c 4
 178.920898438 -43 38.9208984375 66.0556640625 38.9208984375 208 c 4
EndSplineSet
Layer: 2
SplineSet
385.110351562 272 m 5
 239.110351562 288 136.110351562 252 138.110351562 158 c 4
 139.110351562 94 192.110351562 42 332.110351562 43 c 4
 501.110351562 44 609.807617188 173.225585938 618.110351562 326 c 4
 628.110351562 510 524.806640625 659.0234375 331.110351562 648 c 4
 208.110351562 641 115.110351562 580 112.110351562 580 c 5
 89.1103515625 627 l 5
 129.110351562 651 234.110351562 706 362.110351562 706 c 4
 579.110351562 705 699.110351562 537 689.110351562 321 c 4
 679.212890625 107.228515625 556.110351562 -56 310.110351562 -58 c 4
 174.110351562 -59 55.1103515625 8 55.1103515625 137 c 4
 55.1103515625 291 214.110351562 335 336.110351562 328 c 5
 346.110351562 388 313.110351562 438 221.110351562 438 c 5
 195.110351562 357 l 5
 144.110351562 350 109.110351562 379 118.110351562 425 c 4
 128.110351562 481 186.110351562 500 233.110351562 500 c 4
 309.110351562 500 392.110351562 469 393.110351562 359 c 4
 393.110351562 323 385.110351562 272 385.110351562 272 c 5
EndSplineSet
EndChar

StartChar: si_Pa
Encoding: 46 3508 1
GlifName: si_P_a
Width: 818
VWidth: 6
Flags: HMW
LayerCount: 5
Back
SplineSet
513.51953125 352 m 1
 465.51953125 333 l 1
 457.51953125 358 450.51953125 384 450.51953125 426 c 0
 451.51953125 512 532.51953125 556 593.51953125 556 c 0
 676.51953125 556 728.51953125 507 728.51953125 427 c 0
 728.51953125 349 631.51953125 309 631.51953125 309 c 1
 615.51953125 326 l 1
 649.571289062 347.129882812 664.403320312 377.10546875 664.51953125 417 c 0
 664.654296875 463 630.51953125 494 571.51953125 494 c 0
 524.51953125 494 488.51953125 462 488.51953125 419 c 0
 488.51953125 367 513.51953125 352 513.51953125 352 c 1
132.51953125 209 m 0
 131.51953125 124 216.51953125 45 401.51953125 45 c 0
 576.51953125 45 676.970703125 127.008789062 678.51953125 216 c 0
 680.294921875 318.00390625 562.51953125 348 465.51953125 333 c 1
 485.51953125 373 l 1
 630.51953125 402 753.51953125 331 749.51953125 193 c 0
 744.51953125 29 577.51953125 -59 396.51953125 -59 c 0
 202.51953125 -59 51.51953125 33 53.51953125 180 c 0
 55.51953125 339 221.51953125 394 329.51953125 384 c 1
 305.51953125 345 l 1
 312.51953125 365 325.892578125 386.33203125 321.51953125 415 c 0
 312.51953125 474 252.51953125 505 184.51953125 490 c 0
 217.51953125 511 l 1
 162.51953125 409 l 1
 121.51953125 411 95.1201171875 436.013671875 96.51953125 471 c 0
 98.51953125 521 155.51953125 557 215.51953125 557 c 0
 285.51953125 557 357.51953125 517 359.51953125 439 c 0
 360.51953125 402 354.51953125 370 345.51953125 333 c 1
 221.51953125 351 133.51953125 287 132.51953125 209 c 0
EndSplineSet
Fore
SplineSet
48.5 200 m 4
 48.5 366 183.232421875 420.689453125 284.5 421 c 4
 313.5 421.088867188 341.5 413 349.5 412 c 5
 315.5 379 l 5
 321.5 396 330.5 415 330.5 438 c 4
 330.5 495 274.384765625 529 221.5 529 c 4
 210.5 529 198.5 528 187.5 525 c 5
 220.5 546 l 5
 165.5 437 l 5
 125.5 439 95.5 469 95.5 503 c 4
 95.5 555 137.5 592 213.5 592 c 4
 297.5 592 370.5 535 370.5 451 c 4
 370.5 417 365.5 394 355.5 365 c 5
 341.5 369 318.5 374 285.5 374 c 4
 165.662109375 374 109.5 313.456054688 109.5 237 c 4
 109.5 142.5 200.33984375 60.9306640625 403.5 60 c 4
 620.350585938 58.9541015625 706.5 146.874023438 706.5 242 c 4
 706.5 332.3046875 618.208007812 373 552.5 373 c 4
 505.478515625 373 486.45703125 367 470.5 362 c 5
 485.5 408 l 5
 507.5 415 531.5 422 558.5 422 c 4
 683.84375 422 769.5 340.048828125 769.5 222 c 4
 769.5 45.9638671875 595.967773438 -36 398.5 -36 c 4
 199.873046875 -36 48.5 52.5419921875 48.5 200 c 4
452.5 448 m 4
 453.91015625 535.979492188 528.939453125 592.915039062 612.5 592 c 4
 690.916992188 591.141601562 752.5 540 752.5 467 c 4
 752.5 373.408203125 652.5 347 652.5 347 c 5
 649.5 364 l 5
 669.745117188 385.461914062 686.5 400.274414062 686.5 447 c 4
 686.5 492.40234375 649.811523438 531 594.5 531 c 4
 529.802734375 531 492.5 492.052734375 492.5 444 c 4
 492.5 402 509.5 389 509.5 389 c 5
 470.5 362 l 5
 462.5 387 451.987304688 416.002929688 452.5 448 c 4
EndSplineSet
EndChar

StartChar: si_Va
Encoding: 55 3520 2
GlifName: si_V_a
Width: 829
VWidth: 16
Flags: HMW
LayerCount: 5
Back
SplineSet
382.552734375 284 m 5
 247.056640625 301.37890625 120.018554688 252.458984375 124.552734375 158 c 4
 127.622070312 87.791015625 215.82421875 45.1572265625 361.552734375 46 c 4
 555.552734375 47.1220703125 663.552734375 174.791015625 663.552734375 339 c 4
 663.552734375 547.71875 554.494140625 679.712890625 338.552734375 677 c 4
 215.616210938 675.456054688 128.86328125 606 125.552734375 606 c 5
 93.552734375 660 l 5
 135.7890625 688.125 215.931640625 735.633789062 354.552734375 735 c 4
 562.369140625 734.018554688 726.552734375 582.319335938 726.552734375 331 c 4
 726.552734375 111.353515625 594.967773438 -48.5791015625 371.552734375 -58 c 4
 189.109375 -65.2548828125 45.90234375 8.0341796875 42.552734375 137 c 4
 38.796875 299.32421875 235.9921875 339.377929688 350.552734375 332 c 5
 350.552734375 402 300.552734375 438 208.552734375 438 c 5
 182.552734375 357 l 5
 131.552734375 350 97.3134765625 378.857421875 105.552734375 425 c 4
 115.552734375 481 173.552734375 500 220.552734375 500 c 4
 296.552734375 500 386.551757812 463 390.552734375 359 c 4
 391.936523438 323.026367188 382.552734375 284 382.552734375 284 c 5
EndSplineSet
Fore
SplineSet
50.5 163 m 4
 50.5 310 213.885742188 367 337.5 367 c 4
 346.5 367 355.5 367 363.5 366 c 5
 363.5 436 303.5 472 231.5 472 c 5
 175.5 391 l 5
 150.5 391 118.5 409 117.5 448 c 4
 116.5 504 173.5 537 232.5 537 c 4
 310.5 537 406.5 488 406.5 379 c 4
 406.5 345 398.5 314 398.5 314 c 5
 380.5 316 359.5 317 341.5 317 c 4
 219.6171875 317 117.5 272 117.5 193 c 4
 117.5 116 212.5 61 382.5 62 c 4
 587.872070312 63.009765625 711.5 206.36328125 711.5 376 c 4
 711.5 583.150390625 574.7578125 709 353.5 709 c 4
 230.5 709 148.5 649 146.5 649 c 5
 135.5 656.5 123.5 681.8125 127.5 709 c 5
 169.5 737 248.5 767 360.5 767 c 4
 593.797851562 767 773.5 619 773.5 364 c 4
 773.5 126 630.323242188 -41 374.5 -41 c 4
 193.5 -41 50.5 36 50.5 163 c 4
EndSplineSet
EndChar

StartChar: si_Ra
Encoding: 53 3515 4
GlifName: si_R_a
Width: 741
VWidth: 25
Flags: HMW
LayerCount: 5
Back
SplineSet
49.1494140625 234.995117188 m 4
 41.912109375 502.370117188 297.024414062 576.115234375 458.014648438 782.920898438 c 5
 486.267578125 815.903320312 499.883789062 851.296875 505.278320312 881.994140625 c 5
 506.27734375 882.022460938 507.278320312 882.025390625 508.276367188 882.077148438 c 4
 534.514648438 883.240234375 564.791992188 870.858398438 575.643554688 834.6796875 c 5
 568.684570312 716.600585938 366.39453125 607.34375 209.80859375 492.642578125 c 4
 157.881835938 450.416015625 105.239257812 399.869140625 109.318359375 261.872070312 c 4
 113.23046875 123.791992188 233.255859375 43.3017578125 370.413085938 46.927734375 c 4
 545.068359375 51.544921875 624.807617188 176.129882812 621.427734375 293.99609375 c 4
 617.112304688 450.813476562 484.953125 512.368164062 359.489257812 506.223632812 c 4
 188.293945312 497.045898438 106.918945312 375.260742188 109.318359375 261.872070312 c 5
 106.030273438 319.2421875 95.5166015625 354.133789062 123.619140625 426.223632812 c 5
 122.30078125 429.655273438 217.080078125 559.73046875 386.87890625 564.586914062 c 4
 521.356445312 568.432617188 690.69140625 480.84375 694.926757812 287.030273438 c 4
 698.6484375 113.483398438 587.271484375 -43.158203125 377.080078125 -49.0908203125 c 4
 176.489257812 -54.7529296875 53.453125 79.8271484375 49.1494140625 234.995117188 c 4
EndSplineSet
Fore
SplineSet
48.1494140625 234.995117188 m 4
 40.203125 502.370117188 320.275390625 576.115234375 497.014648438 782.920898438 c 5
 525.267578125 815.903320312 538.883789062 851.296875 544.278320312 881.994140625 c 5
 545.27734375 882.022460938 546.278320312 882.025390625 547.276367188 882.077148438 c 4
 573.514648438 883.240234375 603.791992188 870.858398438 614.643554688 834.6796875 c 5
 606.922851562 716.600585938 382.514648438 607.34375 208.80859375 492.642578125 c 4
 156.881835938 450.416015625 104.239257812 399.869140625 108.318359375 261.872070312 c 4
 112.23046875 122.506835938 232.255859375 41.2685546875 369.413085938 44.927734375 c 4
 543.373046875 49.58203125 622.793945312 171.143554688 619.427734375 293.99609375 c 4
 614.9921875 454.502929688 485.55859375 517.513671875 362.489257812 511.223632812 c 4
 188.556640625 501.858398438 105.879882812 377.581054688 108.318359375 261.872070312 c 5
 105.030273438 319.2421875 94.5166015625 354.133789062 122.619140625 426.223632812 c 5
 121.30078125 429.655273438 216.080078125 559.73046875 385.87890625 564.586914062 c 4
 519.046875 568.474609375 686.733398438 479.938476562 690.926757812 284.030273438 c 4
 694.61328125 110.483398438 584.288085938 -46.158203125 376.080078125 -52.0908203125 c 4
 175.489257813 -57.8125 52.453125 78.1884765625 48.1494140625 234.995117188 c 4
EndSplineSet
EndChar

StartChar: si_Ca
Encoding: 27 3488 5
GlifName: si_C_a
Width: 862
VWidth: 16
Flags: HMW
LayerCount: 5
Back
SplineSet
55.318359375 327 m 5
 476.318359375 333 l 1
 471.318359375 283 l 1
 148.318359375 283 l 1
 54.318359375 271 l 5
 55.318359375 327 l 5
EndSplineSet
Refer: 2 3520 N 1 0 0 1 85.3183 0 2
Fore
SplineSet
41.56640625 309 m 5
 36.56640625 331 35.56640625 351 41.56640625 367 c 5
 420.56640625 367 l 5
 422.56640625 324 l 5
 126.56640625 324 l 5
 41.56640625 309 l 5
EndSplineSet
Refer: 2 3520 S 1 0 0 1 51.5664 0 2
Layer: 2
SplineSet
475.860351562 225.029296875 m 5
 474.834960938 225.029296875 439.971679688 225.541992188 396.905273438 225.541992188 c 4
 320.879882812 225.541992188 219.512695312 217.26953125 219.512695312 152.739257812 c 5
 221.619140625 117.782226562 273.106445312 54.419921875 414.849609375 53.2763671875 c 4
 565.068359375 52.064453125 632.232421875 170.841796875 632.232421875 336.284179688 c 5
 632.232421875 521.017578125 566.094726562 628.779296875 396.905273438 636.2109375 c 5
 309.747070312 632.109375 159.52734375 569.047851562 156.451171875 569.047851562 c 5
 140.044921875 610.576171875 l 4
 177.471679688 637.236328125 307.696289062 696.196289062 397.930664062 695.68359375 c 4
 608.135742188 694.658203125 714.263671875 548.540039062 714.263671875 331.157226562 c 4
 714.263671875 112.749023438 627.10546875 -37.470703125 410.748046875 -37.470703125 c 4
 254.375976562 -37.470703125 141.0703125 25.078125 141.0703125 147.099609375 c 4
 141.0703125 277.32421875 288.7265625 289.116210938 288.7265625 289.116210938 c 5
 402.544921875 292.192382812 l 5
 475.860351562 225.029296875 l 5
402.544921875 290.141601562 m 5
 394.854492188 372.172851562 l 5
 394.854492188 372.172851562 371.783203125 416.264648438 286.67578125 416.264648438 c 4
 280.5234375 356.279296875 l 5
 211.309570312 355.25390625 l 5
 204.131835938 365.5078125 199.517578125 392.680664062 199.517578125 409.599609375 c 4
 199.517578125 459.84375 257.452148438 479.326171875 304.620117188 479.326171875 c 4
 395.879882812 479.326171875 470.733398438 437.28515625 478.936523438 328.081054688 c 4
 475.860351562 225.029296875 l 5
 402.544921875 290.141601562 l 5
EndSplineSet
EndChar

StartChar: si_Sa
Encoding: 58 3523 6
GlifName: si_S_a
Width: 912
VWidth: 6
Flags: HMW
LayerCount: 5
Back
SplineSet
70.5888671875 379 m 1xf8
 448.588867188 381 l 1
 450.588867188 336 l 1
 154.588867188 335 l 1
 69.5888671875 322 l 1
 70.5888671875 379 l 1xf8
578.588867188 373 m 1
 611.588867188 384 l 1
 711.080078125 410.330078125 896.588867188 380.840820312 896.588867188 186 c 0
 896.588867188 64 821.966796875 -45 690.588867188 -45 c 0
 585.588867188 -45 518.588867188 22 503.588867188 126 c 1
 501.588867188 123 540.588867188 129 538.588867188 126 c 1
 520.708007812 25 452.336914062 -43.1982421875 335.588867188 -44 c 0
 203.059570312 -44.91015625 130.76171875 54.9951171875 132.588867188 154 c 0
 134.75390625 268 228.944335938 346 263.588867188 347 c 1
 357.588867188 338 l 1
 271.450195312 324.103515625 193.443359375 266.251953125 194.588867188 183 c 0
 195.48828125 112.950195312 247.111328125 64.845703125 335.588867188 62 c 0
 402.745117188 59.83984375 500.588867188 88.2900390625 503.588867188 214 c 1
 538.588867188 215 l 1
 541.588867188 100.411132812 615.583007812 64.4326171875 695.588867188 64 c 0
 775.395507812 63.599609375 830.989257812 113.7890625 832.588867188 195 c 0xfa
 834.973632812 310.975585938 736.89453125 383.813476562 573.588867188 328 c 1
 568.588867188 350.166992188 563.98046875 374.670898438 563.588867188 398 c 0
 561.588867188 500 634.588867188 568 718.588867188 570 c 0
 785.5703125 571.594726562 861.588867188 532 861.588867188 452 c 0
 861.588867188 356 768.588867188 330 768.588867188 330 c 1
 752.588867188 337 l 1
 752.588867188 337 791.588867188 374.990234375 791.588867188 424 c 0xfc
 791.588867188 465 751.46875 513.047851562 687.588867188 509 c 0
 651.583984375 506.71875 608.588867188 472 603.588867188 411 c 0
 599.81640625 364.98046875 619.588867188 353 619.588867188 353 c 1
 578.588867188 373 l 1
419.588867188 364 m 1
 422.588867188 398 422.588867188 417 410.588867188 445 c 0
 396.588867188 480 341.588867188 508 291.588867188 503 c 0
 240.588867188 419 l 1
 210.588867188 422 186.588867188 439 186.588867188 476 c 0
 186.588867188 543 258.588867188 568 311.588867188 568 c 0
 391.588867188 568 464.881835938 518.05078125 467.588867188 433 c 0
 469.155273438 383.791015625 459.588867188 358.083007812 450.588867188 337 c 1
 419.588867188 364 l 1
EndSplineSet
Fore
SplineSet
25.5888671875 352 m 1
 22.5888671875 374 25.5888671875 396 31.5888671875 409 c 1
 410.588867188 409 l 1
 412.588867188 367 l 1
 116.588867188 367 l 1
 25.5888671875 352 l 1
85.5888671875 175 m 0
 85.5888671875 301.122070312 183.588867188 377 219.588867188 377 c 2
 315.588867188 377 l 1
 217.588867188 365.333007812 150.588867188 286.848632812 150.588867188 202 c 0
 150.588867188 131.331054688 197.66015625 62 303.588867188 62 c 0
 379.778320312 62 462.905273438 106.063476562 467.588867188 236 c 1
 480.588867188 241 493.588867188 242 506.588867188 240 c 1
 509.588867188 119.981445312 584.950195312 63 677.588867188 63 c 0
 770.840820312 63 823.588867188 128.294921875 823.588867188 225 c 0
 823.588867188 315 747.123046875 378 648.588867188 378 c 0
 621.713867188 378 584.151367188 373 554.588867188 359 c 1
 549.588867188 383 544.588867188 406 544.588867188 432 c 0
 544.588867188 533 612.408203125 596.786132812 701.588867188 598 c 0
 776.588867188 598.958984375 841.588867188 554.829101562 841.588867188 480 c 0
 841.588867188 379.7890625 760.588867188 361 760.588867188 361 c 1
 744.588867188 361 l 1
 744.588867188 361 776.588867188 385.502929688 776.588867188 434 c 0
 776.588867188 485.526367188 746.26953125 533 678.588867188 533 c 0
 637.731445312 533 584.588867188 500 584.588867188 430 c 0
 584.588867188 393 600.588867188 383 600.588867188 383 c 1
 559.588867188 403 l 1
 587.818359375 413.833984375 615.33203125 424 659.588867188 424 c 0
 764.946289062 424 887.588867188 355.416992188 887.588867188 216 c 0
 887.588867188 87.810546875 824.830078125 -32 673.588867188 -32 c 0
 554.681640625 -32 475.202148438 42.01171875 470.588867188 151 c 1
 470.588867188 150 471.588867188 150 473.588867188 150 c 0
 480.588867188 150 495.588867188 152 502.588867188 152 c 0
 504.588867188 152 505.756835938 151.985351562 505.588867188 151 c 0
 487.569335938 45.2763671875 421.618164062 -32 303.588867188 -32 c 0
 142.62109375 -32 85.5888671875 74.1005859375 85.5888671875 175 c 0
144.588867188 504 m 0
 144.588867188 567 206.588867188 598 269.588867188 598 c 0
 354.588867188 598 429.588867188 546 429.588867188 453 c 0
 429.588867188 420 420.588867188 387 412.588867188 367 c 1
 384.588867188 394 l 1
 385.588867188 405 389.588867188 415 389.588867188 424 c 0
 389.588867188 492 336.588867188 529 266.588867188 529 c 1
 212.588867188 439 l 1
 172.588867188 442 144.588867188 467 144.588867188 504 c 0
EndSplineSet
EndChar

StartChar: si_Ka
Encoding: 21 3482 7
GlifName: si_K_a
Width: 1101
VWidth: 6
Flags: HMW
LayerCount: 5
Back
SplineSet
98.8154296875 462 m 4
 98.8154296875 520.90234375 143.360351562 576 225.815429688 576 c 4
 322.877929688 576 367.716796875 494.41796875 338.815429688 418 c 4
 323.08984375 376.420898438 311.354492188 381.439453125 304.815429688 371 c 4
 262.815429688 360 l 5
 287.130859375 379.963867188 302.815429688 419.892578125 302.815429688 446 c 4
 302.815429688 488.567382812 273.567382812 510.017578125 247.815429688 510.045898438 c 4
 225.5625 510.0703125 212.643554688 497.591796875 205.815429688 486 c 5
 184.815429688 391 l 5
 118.967773438 389.791992188 98.8154296875 428.401367188 98.8154296875 462 c 4
58.8154296875 125 m 1
 156.966796875 255.07421875 227.7890625 331.083007812 311.815429688 407 c 0
 316.815429688 404 l 0
 389.64453125 489.192382812 531.915039062 575.91796875 664.815429688 585 c 0
 905.759765625 601.46484375 1052.8828125 440.12109375 1057.81542969 270 c 0
 1062.24316406 117.276367188 987.706054688 -29.78515625 828.815429688 -32 c 0
 755.794921875 -33.017578125 719.815429688 -6 719.815429688 -6 c 1
 717.884765625 10.5712890625 734.297851562 41.642578125 747.815429688 52 c 1
 747.815429688 52 781.265625 23 834.815429688 23 c 0
 939.440429688 23 979.815429688 133.721679688 979.815429688 240 c 0
 979.815429688 427.752929688 789.8515625 504.568359375 646.815429688 497 c 0
 532.954101562 490.975585938 441.880859375 448.84765625 357.815429688 386 c 0
 346.815429688 369 l 0
 251.931640625 276.827148438 183.861328125 225.99609375 85.8154296875 82 c 1
 85.8154296875 82 53.2958984375 96.072265625 58.8154296875 125 c 1
89.8154296875 87 m 1
 89.8154296875 127 l 1
 112.1484375 149.665039062 124.482421875 146 146.815429688 146 c 0
 226.05078125 146 215.870117188 64 306.815429688 64 c 0
 364.826171875 64 413.8359375 119.2578125 414.815429688 204 c 1
 425.815429688 208 440.815429688 212 449.815429688 209 c 1
 450.806640625 112.71875 501.489257812 61.2978515625 564.815429688 63 c 0
 616.548828125 64.390625 655.815429688 112.572265625 655.815429688 185 c 0
 655.815429688 259.396484375 603.4453125 360 443.815429688 360 c 0
 368.072265625 360 293.612304688 330.100585938 253.815429688 308 c 1
 309.815429688 369 l 1
 322.10546875 372.70703125 399.948242188 407 478.815429688 407 c 0
 608.204101562 407 727.815429688 324.202148438 727.815429688 182 c 0
 727.815429688 56.859375 654.99609375 -28 560.815429688 -28 c 0
 472.12890625 -28 433.538085938 26.7373046875 424.815429688 68 c 1
 436.815429688 68 l 1
 431.251953125 29.4306640625 385.942382812 -26.5146484375 317.815429688 -27 c 0
 177.517578125 -28 206.787109375 106 123.815429688 106 c 0
 94.947265625 106 103.172851562 107.400390625 89.8154296875 87 c 1
EndSplineSet
Fore
SplineSet
76.8154296875 465 m 4
 76.8154296875 523.90234375 123.360351562 576 205.815429688 576 c 4
 302.877929688 576 347.716796875 494.41796875 318.815429688 418 c 4
 303.08984375 376.420898438 291.354492188 381.439453125 284.815429688 371 c 4
 243.815429688 360 l 5
 268.130859375 379.963867188 282.815429688 419.892578125 282.815429688 446 c 4
 282.815429688 488.567382812 253.567382812 510.017578125 227.815429688 510.045898438 c 4
 205.5625 510.0703125 192.64453125 497.591796875 185.815429688 486 c 5
 164.815429688 391 l 5
 98.9677734375 389.791992188 76.8154296875 431.401367188 76.8154296875 465 c 4
1045.81542969 267 m 4
 1045.81542969 117 975.4375 -31 807.815429688 -31 c 4
 743.674804688 -31 704.815429688 -10 704.815429688 -8 c 5
 697.815429688 5.052734375 710.815429688 43.2978515625 722.815429688 52 c 5
 734.501953125 43 762.26953125 23 815.815429688 23 c 4
 939.088867188 23 973.815429688 156 968.815429688 246 c 4
 958.400390625 433.463867188 759.805664062 502.794921875 619.815429688 497 c 4
 505.85546875 492.282226562 428.880859375 459.84765625 344.815429688 393 c 4
 343.815429688 386 l 4
 248.931640625 303.827148438 170.861328125 218.99609375 82.8154296875 65 c 5
 82.8154296875 65 50.2958984375 79.072265625 55.8154296875 108 c 5
 143.966796875 248.07421875 224.7890625 348.083007812 308.815429688 424 c 4
 312.815429688 425 l 4
 384.64453125 501.192382812 505.232421875 572.087890625 637.815429688 585 c 4
 878.759765625 608.46484375 1045.81542969 456.926757812 1045.81542969 267 c 4
88.8154296875 81 m 5
 88.8154296875 127 l 5
 111.1484375 139.665039062 119.482421875 148 141.815429688 148 c 4
 221.05078125 148 214.870117188 68 305.815429688 68 c 4
 363.826171875 68 406.8359375 123.2578125 407.815429688 208 c 5
 418.815429688 212 433.815429688 216 442.815429688 213 c 5
 443.806640625 116.71875 490.489257812 65.2978515625 553.815429688 67 c 4
 605.548828125 68.390625 644.815429688 112.572265625 644.815429688 185 c 4
 644.815429688 259.396484375 602.4453125 360 442.815429688 360 c 4
 367.072265625 360 290.612304688 347.100585938 250.815429688 325 c 5
 306.815429688 382 l 5
 319.10546875 385.70703125 394.948242188 409 477.815429688 407 c 4
 607.166015625 403.877929688 716.815429688 324.202148438 716.815429688 182 c 4
 716.815429688 56.859375 643.99609375 -24 549.815429688 -24 c 4
 461.12890625 -24 426.538085938 30.7373046875 417.815429688 72 c 5
 429.815429688 72 l 5
 424.251953125 33.4306640625 381.942382812 -22.5146484375 313.815429688 -23 c 4
 173.517578125 -24 205.787109375 110 122.815429688 110 c 4
 108.947265625 110 102.172851562 101.400390625 88.8154296875 81 c 5
EndSplineSet
Layer: 2
SplineSet
97.8154296875 460 m 4
 97.8154296875 518.90234375 145.8671875 574 234.815429688 574 c 4
 324.09765625 574 361.064453125 502.229492188 350.815429688 428 c 4
 342.490234375 368.727539062 336.27734375 375.881835938 332.815429688 361 c 4
 288.815429688 350 l 5
 302.188476562 369.963867188 310.815429688 409.892578125 310.815429688 436 c 4
 310.815429688 481.7421875 278.909179688 508.016601562 250.815429688 508.045898438 c 4
 226.443359375 508.0703125 212.293945312 495.591796875 204.815429688 484 c 5
 183.815429688 389 l 5
 117.967773438 387.791992188 97.8154296875 426.401367188 97.8154296875 460 c 4
82.8154296875 166 m 5
 82.8154296875 222 l 5
 90.8154296875 206 108.815429688 200 124.815429688 200 c 4
 184.815429688 200 260.815429688 311.375 325.815429688 398 c 4
 347.815429688 406 l 5
 444.734375 513 556.088867188 581 679.815429688 581 c 4
 853.815429688 581 1004.81542969 465 1004.81542969 266 c 4
 1004.81542969 110 913.4375 -31 735.815429688 -31 c 4
 675.161132812 -31 625.815429688 -7 625.815429688 -5 c 5
 618.815429688 8.052734375 631.815429688 48.2978515625 643.815429688 57 c 5
 656.815429688 48 688.815429688 23 742.815429688 23 c 4
 867.407226562 23 931.815429688 139.401367188 931.815429688 247 c 4
 931.815429688 395.05859375 814.141601562 489 659.815429688 489 c 4
 553.916015625 489 470.48046875 464.111328125 352.815429688 349 c 5
 339.815429688 349 l 5
 277.815429688 258.611328125 211.815429688 153 134.815429688 153 c 4
 117.815429688 153 100.815429688 157 82.8154296875 166 c 5
40.8154296875 234 m 5
 51.8154296875 240 77.8154296875 236 85.8154296875 233 c 5
 82.8154296875 89.94140625 263.815429688 62 367.815429688 62 c 4
 476.815429688 62 572.815429688 121.904296875 572.815429688 227 c 4
 572.815429688 287.930664062 521.815429688 341 421.815429688 341 c 4
 361.815429688 341 311.815429688 319.022460938 272.815429688 298 c 5
 302.815429688 331 l 5
 315.815429688 335 372.815429688 383 454.815429688 383 c 4
 550.815429688 383 638.815429688 315 638.815429688 213 c 4
 638.815429688 108 586.815429688 -29 356.815429688 -29 c 4
 180.815429688 -29 38.8154296875 88.466796875 40.8154296875 234 c 5
EndSplineSet
Layer: 3
SplineSet
98.8154296875 462 m 4
 98.8154296875 520.90234375 143.360351562 576 225.815429688 576 c 4
 322.018554688 576 367.461914062 488.389648438 337.815429688 410 c 4
 322.08984375 368.420898438 310.354492188 373.439453125 303.815429688 363 c 4
 261.815429688 352 l 5
 286.130859375 371.963867188 301.815429688 411.892578125 301.815429688 438 c 4
 301.815429688 483.7421875 273.099609375 510.017578125 247.815429688 510.045898438 c 4
 225.5625 510.0703125 212.643554688 497.591796875 205.815429688 486 c 5
 184.815429688 391 l 5
 118.967773438 389.791992188 98.8154296875 428.401367188 98.8154296875 462 c 4
58.8154296875 97 m 5
 150.120117188 238.348632812 222.650390625 315.502929688 300.815429688 398 c 4
 315.815429688 396 l 4
 388.821289062 489.5078125 547.49609375 585 684.815429688 585 c 4
 920.022460938 585 1045.81542969 439.349609375 1045.81542969 275 c 4
 1045.81542969 113.075195312 967.737304688 -26.5263671875 821.815429688 -29 c 4
 762.815429688 -30 722.815429688 -5 722.815429688 -5 c 5
 720.815429688 12.142578125 737.815429688 44.2861328125 751.815429688 55 c 5
 751.815429688 55 771.815429688 26 831.815429688 26 c 4
 921.190429688 26 974.815429688 135.1171875 974.815429688 230 c 4
 974.815429688 417.752929688 793.385742188 495 656.815429688 495 c 4
 542.400390625 495 441.162109375 448.678710938 356.815429688 383 c 4
 351.815429688 376 l 4
 261.466796875 281.361328125 186.17578125 227.116210938 92.8154296875 69 c 5
 92.8154296875 69 52.986328125 79 58.8154296875 97 c 5
106.815429688 97 m 5
 103.815429688 132 l 5
 119.1484375 142.28515625 134.482421875 150 149.815429688 150 c 4
 221.748046875 150 219.19921875 64 317.815429688 64 c 4
 367.805664062 64 417.795898438 103.2578125 418.815429688 188 c 5
 429.815429688 192 444.815429688 192 453.815429688 189 c 5
 454.772460938 92.71875 521.063476562 61.3564453125 564.815429688 63 c 4
 616.53125 64.9423828125 655.815429688 112.572265625 655.815429688 185 c 4
 655.815429688 259.396484375 603.4453125 357 443.815429688 357 c 4
 367.672851562 357 292.822265625 324.225585938 252.815429688 300 c 5
 308.815429688 361 l 5
 321.178710938 365.1953125 399.481445312 404 478.815429688 404 c 4
 608.204101562 404 727.815429688 324.202148438 727.815429688 182 c 4
 727.815429688 56.859375 654.99609375 -28 560.815429688 -28 c 4
 474.756835938 -28 438.279296875 26.7373046875 429.815429688 68 c 5
 441.815429688 68 l 5
 435.916015625 30.2177734375 391.055664062 -28 318.815429688 -28 c 4
 180.364257812 -28 194.71484375 112 136.815429688 112 c 4
 117.1328125 112 115.922851562 106 106.815429688 97 c 5
EndSplineSet
EndChar

StartChar: si_Ta
Encoding: 40 3501 8
GlifName: si_T_a
Width: 1082
VWidth: 6
Flags: HMW
LayerCount: 5
Back
SplineSet
74.779296875 428 m 4
 74.779296875 506 137.779296875 572 230.779296875 572 c 4
 303.779296875 572 352.779296875 522 352.779296875 467 c 4
 352.779296875 443 336.779296875 408 331.779296875 402 c 5
 296.779296875 392 l 5
 307.779296875 413 311.779296875 432 311.779296875 449 c 4
 311.779296875 493 276.779296875 517 238.779296875 517 c 4
 193.779296875 517 162.779296875 489 158.779296875 439 c 5
 198.779296875 384 l 5
 185.779296875 361 163.779296875 349 142.779296875 349 c 4
 99.779296875 349 74.779296875 382 74.779296875 428 c 4
59.779296875 106 m 5
 159.779296875 255 223.779296875 335 323.779296875 427 c 4
 330.779296875 433 339.779296875 433 346.779296875 439 c 4
 446.779296875 523 564.779296875 581 698.779296875 581 c 4
 909.779296875 581 1054.77929688 448 1054.77929688 270 c 4
 1054.77929688 97 957.779296875 -32 798.779296875 -32 c 4
 720.779296875 -32 699.779296875 -10 699.779296875 -10 c 5
 697.779296875 6 708.779296875 32 726.779296875 44 c 5
 726.779296875 44 756.779296875 21 804.779296875 21 c 4
 921.779296875 21 981.779296875 139 974.779296875 259 c 4
 965.779296875 420 831.779296875 493 663.779296875 493 c 4
 568.779296875 493 456.779296875 454 363.779296875 388 c 4
 346.779296875 376 357.779296875 381 343.779296875 369 c 4
 246.779296875 287 191.779296875 217 91.779296875 80 c 5
 91.779296875 80 60.779296875 89 59.779296875 106 c 5
111.779296875 120 m 5
 113.779296875 151 l 5
 123.779296875 159 146.779296875 176 183.779296875 176 c 4
 265.779296875 176 283.779296875 68 451.779296875 68 c 4
 567.779296875 68 627.779296875 130 627.779296875 213 c 4
 627.779296875 329 513.779296875 363 452.779296875 363 c 4
 369.779296875 363 307.779296875 339 274.779296875 320 c 5
 304.779296875 355 l 5
 317.779296875 360 378.779296875 405 458.779296875 405 c 4
 561.779296875 405 695.779296875 360 695.779296875 209 c 4
 695.779296875 104 626.779296875 -27 426.779296875 -26 c 4
 331.779296875 -26 243.779296875 15 212.779296875 74 c 4
 187.779296875 122 161.779296875 146 111.779296875 120 c 5
EndSplineSet
Fore
SplineSet
950.779296875 247 m 0
 946.58203125 402.303710938 801.094726562 497.498046875 627.779296875 492 c 0
 534.510742188 489.041015625 434.084960938 460.513671875 342.779296875 388 c 0
 326.478515625 375.06640625 336.779296875 381 322.779296875 369 c 0
 227.319335938 292.077148438 164.192382812 192.516601562 80.779296875 64 c 1
 80.779296875 64 46.623046875 79 55.779296875 106 c 1
 135.779296875 227.43359375 211.779296875 340.395507812 311.779296875 427 c 0
 313.60546875 427.5 315.953125 427.5 317.779296875 428 c 0
 423.776367188 518.506835938 538.743164062 581 680.779296875 581 c 0
 889.409179688 581 1026.77929688 444 1026.77929688 266 c 0
 1025.77929688 105.747070312 937.401367188 -31 759.779296875 -31 c 0
 695.638671875 -31 656.779296875 -10 656.779296875 -8 c 1
 649.779296875 5.052734375 662.779296875 43.2978515625 674.779296875 52 c 1
 686.465820312 43 714.233398438 23 767.779296875 23 c 0
 891.052734375 23 953.779296875 136 950.779296875 247 c 0
102.779296875 107 m 1
 101.779296875 138 l 1
 110.3515625 146 130.065429688 163 161.779296875 163 c 0
 246.09375 163 245.037109375 65 417.779296875 65 c 0
 535.620117188 65 608.779296875 131.637695312 608.779296875 213 c 0
 608.779296875 319 503.779296875 354 432.779296875 354 c 0
 349.779296875 354 295.779296875 337.266601562 262.779296875 317 c 1
 302.779296875 365 l 1
 315.779296875 370 352.779296875 399 442.779296875 399 c 0
 540.779296875 399 673.779296875 352 673.779296875 201 c 0
 673.779296875 95.537109375 587.232421875 -27.392578125 425.779296875 -28 c 0
 328.71875 -28.365234375 255.40625 -3.6396484375 210.779296875 78 c 0
 184.908203125 125.536132812 132.779296875 133 102.779296875 107 c 1
69.779296875 455 m 0
 69.779296875 516.485351562 116.779296875 574 203.779296875 574 c 0
 294.600585938 574 337.779296875 501.23046875 321.779296875 428 c 0
 308.829101562 368.727539062 269.1640625 365.881835938 263.779296875 351 c 0
 249.779296875 350 l 1
 269.231445312 369.963867188 281.779296875 409.892578125 281.779296875 436 c 0
 281.779296875 479.202148438 248.27734375 504.005859375 218.779296875 504.045898438 c 0
 203.755859375 504.06640625 183.770507812 497.665039062 175.779296875 484 c 1
 154.779296875 379 l 1
 89.697265625 377.70703125 69.779296875 419.03515625 69.779296875 455 c 0
EndSplineSet
Layer: 2
SplineSet
669.584960938 -22.5302734375 m 13
 682.9140625 34.111328125 l 4
 691.938476562 34.099609375 711.234375 26.2783203125 739.82421875 26.2783203125 c 4
 847.490234375 26.2783203125 891.118164062 139.078125 890.0859375 238.608398438 c 4
 888.633789062 378.5703125 768.811523438 462.880859375 638.823242188 464.584960938 c 4
 534.375976562 465.955078125 447.108398438 437.892578125 361.455078125 382.830078125 c 5
 230.166015625 288.540039062 178.1875 235.71875 75.37109375 73.0078125 c 5
 75.37109375 73.0078125 33.708984375 94.48828125 38.9697265625 103.76953125 c 4
 104.018554688 218.547851562 202.794921875 315.069335938 300.95703125 406.313476562 c 5
 308.596679688 412.305664062 316.290039062 418.155273438 324.028320312 423.856445312 c 5
 409.30078125 496.668945312 533.755859375 555.073242188 647.026367188 556.157226562 c 4
 817.088867188 557.784179688 977.591796875 460.306640625 980.91796875 271.93359375 c 4
 984.28515625 81.2705078125 872.900390625 -24.0751953125 742.900390625 -31.71484375 c 4
 701.884765625 -34.125 677.095703125 -22.5107421875 669.584960938 -22.5302734375 c 13
266.606445312 365.756835938 m 5
 303.38671875 440.026367188 262.775390625 496.55859375 220.463867188 497.6015625 c 4
 177.392578125 498.662109375 151.947265625 465.461914062 147.661132812 431.381835938 c 5
 177.397460938 376.010742188 l 5
 163.655273438 352.084960938 140.049804688 339.463867188 118.4375 340.846679688 c 4
 92.7265625 342.491210938 69.8369140625 363.958007812 69.7314453125 409.791015625 c 4
 69.5693359375 480.055664062 123.043945312 565.857421875 234.819335938 558.985351562 c 4
 321.787109375 553.638671875 350.463867188 473.038085938 323.008789062 408.823242188 c 4
 307.817382812 373.291992188 319.66796875 391.560546875 306.596679688 374.985351562 c 5
 266.606445312 365.756835938 l 5
171.7578125 228.354492188 m 5
 159.6328125 101.243164062 275.901367188 60.1318359375 388.627929688 57.626953125 c 4
 551.694335938 54.0029296875 602.209960938 113.750976562 602.421875 200.668945312 c 4
 602.66015625 299.25 514.118164062 339.16015625 420.927734375 343.477539062 c 4
 348.9140625 346.815429688 277.142578125 318.712890625 245.073242188 301.157226562 c 5
 302.495117188 365.244140625 l 5
 315.46875 369.670898438 388.150390625 394.450195312 449.638671875 393.487304688 c 4
 560.000976562 391.759765625 699.952148438 347.966796875 689.580078125 178.110351562 c 4
 683.192382812 73.5126953125 614.102539062 -40.947265625 375.297851562 -40.982421875 c 4
 224.361328125 -41.00390625 111.159179688 57.7041015625 139.458007812 189.90234375 c 5
 171.7578125 228.354492188 l 5
EndSplineSet
EndChar

StartChar: si_Na
Encoding: 44 3505 9
GlifName: si_N_a
Width: 1064
VWidth: 6
Flags: HMW
LayerCount: 5
Back
SplineSet
112.010742188 460 m 4
 112.010742188 518.90234375 160.0625 574 249.010742188 574 c 4
 338.291992188 574 375.259765625 502.229492188 365.010742188 428 c 4
 356.685546875 368.727539062 350.471679688 375.881835938 347.010742188 361 c 4
 303.010742188 350 l 5
 316.383789062 369.963867188 325.010742188 409.892578125 325.010742188 436 c 4
 325.010742188 481.7421875 293.103515625 508.016601562 265.010742188 508.045898438 c 4
 240.638671875 508.0703125 226.489257812 495.591796875 219.010742188 484 c 5
 198.010742188 389 l 5
 132.163085938 387.791992188 112.010742188 426.401367188 112.010742188 460 c 4
97.0107421875 166 m 5
 97.0107421875 222 l 5
 105.010742188 206 123.010742188 200 139.010742188 200 c 4
 199.010742188 200 275.010742188 311.375 340.010742188 398 c 4
 362.010742188 406 l 5
 458.9296875 513 570.284179688 581 694.010742188 581 c 4
 868.010742188 581 1019.01074219 465 1019.01074219 266 c 4
 1019.01074219 110 927.6328125 -31 750.010742188 -31 c 4
 689.356445312 -31 640.010742188 -7 640.010742188 -5 c 5
 633.010742188 8.052734375 646.010742188 48.2978515625 658.010742188 57 c 5
 671.010742188 48 703.010742188 23 757.010742188 23 c 4
 881.602539062 23 946.010742188 139.401367188 946.010742188 247 c 4
 946.010742188 395.05859375 828.336914062 489 674.010742188 489 c 4
 568.111328125 489 484.67578125 464.111328125 367.010742188 349 c 5
 354.010742188 349 l 5
 292.010742188 258.611328125 226.010742188 153 149.010742188 153 c 4
 132.010742188 153 115.010742188 157 97.0107421875 166 c 5
55.0107421875 234 m 5
 66.0107421875 240 92.0107421875 236 100.010742188 233 c 5
 97.0107421875 89.94140625 278.010742188 62 382.010742188 62 c 4
 491.010742188 62 587.010742188 121.904296875 587.010742188 227 c 4
 587.010742188 287.930664062 536.010742188 341 436.010742188 341 c 4
 376.010742188 341 326.010742188 319.022460938 287.010742188 298 c 5
 317.010742188 331 l 5
 330.010742188 335 387.010742188 383 469.010742188 383 c 4
 565.010742188 383 653.010742188 315 653.010742188 213 c 4
 653.010742188 108 601.010742188 -29 371.010742188 -29 c 4
 195.010742188 -29 53.0107421875 88.466796875 55.0107421875 234 c 5
EndSplineSet
Fore
SplineSet
112.010742188 460 m 0
 112.010742188 518.90234375 160.0625 574 249.010742188 574 c 0
 338.291992188 574 375.259765625 502.229492188 365.010742188 428 c 0
 356.685546875 368.727539062 350.471679688 375.881835938 347.010742188 361 c 0
 303.010742188 350 l 1
 316.383789062 369.963867188 325.010742188 409.892578125 325.010742188 436 c 0
 325.010742188 481.7421875 290.9765625 508.016601562 261.010742188 508.045898438 c 0
 238.7578125 508.0703125 225.838867188 495.591796875 219.010742188 484 c 1
 198.010742188 389 l 1
 132.163085938 387.791992188 112.010742188 426.401367188 112.010742188 460 c 0
97.0107421875 166 m 1
 97.0107421875 222 l 1
 105.010742188 206 123.010742188 200 139.010742188 200 c 0
 199.010742188 200 275.010742188 311.375 340.010742188 398 c 0
 362.010742188 406 l 1
 450.594726562 514 565.264648438 581 686.010742188 581 c 0
 858.939453125 581 1009.01074219 468.682617188 1009.01074219 276 c 0
 1009.01074219 114.747070312 920.6328125 -31 743.010742188 -31 c 0
 678.870117188 -31 640.010742188 -10 640.010742188 -8 c 1
 633.010742188 5.052734375 646.010742188 43.2978515625 658.010742188 52 c 1
 669.697265625 43 697.46484375 23 751.010742188 23 c 0
 874.284179688 23 934.010742188 144.598632812 934.010742188 257 c 0
 934.010742188 398.329101562 818.5 488 667.010742188 488 c 0
 563.526367188 488 481.993164062 463.2890625 367.010742188 349 c 1
 354.010742188 349 l 1
 292.010742188 258.611328125 226.010742188 153 149.010742188 153 c 0
 132.010742188 153 115.010742188 157 97.0107421875 166 c 1
55.0107421875 234 m 1
 66.0107421875 240 92.0107421875 236 100.010742188 233 c 1
 97.03125 92.451171875 276.748046875 65 380.010742188 65 c 0
 487.947265625 65 583.010742188 121.63671875 583.010742188 221 c 0
 583.010742188 285.137695312 533.361328125 341 436.010742188 341 c 0
 376.010742188 341 326.010742188 319.022460938 287.010742188 298 c 1
 317.010742188 331 l 1
 330.010742188 335 387.010742188 383 469.010742188 383 c 0
 565.010742188 383 653.010742188 315 653.010742188 213 c 0
 653.010742188 108 601.010742188 -29 371.010742188 -29 c 0
 195.010742188 -29 53.0107421875 88.466796875 55.0107421875 234 c 1
EndSplineSet
Layer: 2
SplineSet
24.7412109375 83.3212890625 m 0
 134.7421875 297.014648438 353.720703125 541.3203125 591.782226562 550.064453125 c 0
 746.368164062 555.743164062 908.038085938 475.564453125 925.162109375 277.120117188 c 0
 937.259765625 136.918945312 852.525390625 -32.3037109375 701.499023438 -32.724609375 c 0
 666.119140625 -32.8232421875 649.204101562 -21.2685546875 649.204101562 -21.2685546875 c 1
 665.610351562 26.412109375 l 1
 665.610351562 26.412109375 673.908203125 18.8330078125 699.447265625 18.7900390625 c 0
 785.090820312 18.646484375 845.717773438 119.120117188 839.45703125 228.4140625 c 0
 831.451171875 368.154296875 718.66796875 447.84765625 593.833007812 452.852539062 c 0
 504.818359375 456.421875 427.241210938 437.952148438 346.713867188 388.016601562 c 1
 215.42578125 293.7265625 112.690429688 133.239257812 66.26953125 52.5595703125 c 1
 66.26953125 52.5595703125 19.8583984375 73.8359375 24.7412109375 83.3212890625 c 0
255.966796875 381.197265625 m 1
 292.748046875 455.466796875 239.271484375 494.984375 186.752929688 492.534179688 c 0
 161.110351562 491.3359375 123.36328125 470.6484375 119.077148438 436.568359375 c 1
 148.813476562 376.0703125 l 0
 127.522460938 339.00390625 92.5078125 333.344726562 65.7568359375 345.686523438 c 0
 65.7568359375 345.686523438 36.142578125 362.216796875 36.0205078125 414.977539062 c 0
 35.859375 485.2421875 89.0634765625 553.598632812 185.727539062 553.91796875 c 0
 272.672851562 554.205078125 316.75390625 503.859375 320.060546875 444.771484375 c 0
 322.219726562 406.189453125 301.338867188 391.620117188 288.266601562 375.044921875 c 1
 255.966796875 381.197265625 l 1
173.422851562 214.571289062 m 1
 143.776367188 169.486328125 170.659179688 68.28515625 261.09375 67.9404296875 c 0
 300.072265625 67.7919921875 351.560546875 94.390625 352.353515625 189.596679688 c 1
 406.186523438 189.44921875 l 0
 407.70703125 86.783203125 467.232421875 67.1904296875 502.060546875 67.9404296875 c 0
 557.47265625 69.1337890625 591.782226562 124.158203125 591.782226562 184.834960938 c 0
 591.782226562 299.41796875 505.084960938 343.943359375 381.064453125 343.537109375 c 0
 319.28515625 343.3359375 283.422851562 323.899414062 251.352539062 306.34375 c 1
 308.774414062 369.91796875 l 1
 321.749023438 374.344726562 358.543945312 385.482421875 389.267578125 388.419921875 c 0
 473.764648438 396.5 659.970703125 373.965820312 659.970703125 167.916015625 c 0
 659.970703125 53.0576171875 605.000976562 -34.349609375 499.497070312 -34.7705078125 c 0
 385.3984375 -35.2236328125 382.602539062 53.5849609375 382.602539062 53.5849609375 c 1
 382.602539062 53.5849609375 361.036132812 -33.5771484375 258.530273438 -33.9677734375 c 0
 104.500976562 -34.5556640625 103.696289062 125.875 125.229492188 164.327148438 c 0
 173.422851562 214.571289062 l 1
EndSplineSet
EndChar

StartChar: anusvara
Encoding: 1 3458 10
GlifName: anusvara
Width: 588
VWidth: 30
Flags: HMW
LayerCount: 5
Back
SplineSet
123.5 225 m 0
 123.5 135 168.549804688 67.998046875 286.5 67 c 0
 376.546875 66.23828125 441.599609375 143.999023438 442.5 224 c 4
 443.625 323.993164062 374.5 393 267.5 387 c 0
 197.609375 383.081054688 123.5 318 123.5 225 c 0
58.5 194 m 0
 58.5 345 176.5 443 297.5 443 c 0
 448.5 443 526.5 335 526.5 214 c 0
 526.5 93 439.5 -25 288.5 -25 c 0
 137.5 -25 58.5 73 58.5 194 c 0
EndSplineSet
Fore
SplineSet
123.5 245 m 0
 123.5 155 186.5 87 294.5 87 c 4
 400.5 87 457.5 171 457.5 252 c 0
 457.5 347 394.5 414 292.5 414 c 0
 210.5 414 123.5 353 123.5 245 c 0
58.5 227 m 0
 58.5 378 174.5 473 295.5 473 c 0
 446.5 473 529.5 368 529.5 247 c 0
 529.5 126 449.5 8 298.5 8 c 0
 147.5 8 58.5 106 58.5 227 c 0
EndSplineSet
EndChar

StartChar: si_A
Encoding: 3 3461 12
GlifName: si_A_
Width: 795
VWidth: 13
Flags: HMW
LayerCount: 5
Back
SplineSet
367.5 -57.5380859375 m 0
 157.125 -57.1875 55.9326171875 37.0244140625 57.5 157 c 0
 59.3642578125 305.000976562 186.697265625 381 326.5 383 c 0
 360.412109375 383.546875 388.7578125 381.401367188 405.884765625 378.52734375 c 1
 407.005859375 468.180664062 344.208007812 504.435546875 274.5 497 c 1
 218.5 408 l 1
 172.5 411 144.5 448 153.5 484 c 0
 169.5 546 228.5 567 291.5 567 c 0
 363.5 567 435.5 527 449.5 443 c 0
 458.595703125 388.426757812 442.5 334 442.5 334 c 1
 333.383789062 352.869140625 192.282226562 312.513671875 178.5 179 c 0
 168.026367188 81.240234375 243.85546875 4.236328125 411.5 4.8173828125 c 0
 533.46875 5.240234375 606.026367188 50.912109375 668.5 88.599609375 c 1
 699.5 47 l 1
 627.854492188 -10.3515625 515.1953125 -57.7841796875 367.5 -57.5380859375 c 0
509.5 406.842773438 m 1
 511.14453125 463.158203125 500.286132812 528.805664062 568.5 568 c 1
 597.5 546.889648438 l 1
 597.01171875 491.823242188 729.5 455.326171875 729.5 386 c 0
 729.5 313.143554688 637.5 241.561523438 548.5 234 c 1
 539.5 274 l 1
 596.5 284 655.5 321.561523438 655.5 378 c 0
 655.5 426 569.89453125 468.649414062 569.5 507.856445312 c 1
 557.618164062 493.653320312 562.1328125 470 562.1328125 421.313476562 c 0
 559.5 -378 l 1
 509.5 -378 l 1
 509.5 406.842773438 l 1
441.965820312 371.448242188 m 1
 442.803710938 371.296875 443.647460938 371.146484375 444.5 371 c 1
 444.5 371.776367188 443.55859375 371.853515625 441.965820312 371.448242188 c 1
EndSplineSet
Fore
SplineSet
35.5 174 m 0
 35.5 342 211.5 413 353.5 413 c 0
 382.5 413 406.5 411 421.5 409 c 1
 422.5 492 353.5 538 289.5 538 c 0
 284.5 538 280.5 538 275.5 537 c 1
 219.5 448 l 1
 179.5 451 152.5 479 152.5 510 c 0
 152.5 572.72265625 215.852539062 609 276.5 609 c 0
 389.5 609 462.5 544 462.5 438 c 0
 462.5 398 452.5 364 452.5 364 c 1
 435.5 367 418.5 368 400.5 368 c 0
 289.5 368 136.5 319 136.5 186 c 0
 136.5 81.2158203125 256.5 19 431.5 19 c 0
 571.5 19 659.5 60 713.5 103 c 1
 729.5 98 739.5 70 739.5 53 c 1
 678.5 16 585.5 -43 398.5 -43 c 0
 186.5 -43 35.5 44.1875 35.5 174 c 0
529.5 -348 m 1
 529.5 488 l 6
 529.5 537 531.5 588 588.5 621 c 5
 617.5 600 l 5
 617.5 545 759.5 468 759.5 399 c 4
 759.5 326 677.5 265 568.5 267 c 5
 568.5 321 l 5
 635.5 311 685.5 335 685.5 391 c 4
 685.5 459 604.5 481 582.5 551 c 13
 582.5 -348 l 1
 564.220703125 -351.837890625 545.25390625 -353.73828125 529.5 -348 c 1
EndSplineSet
EndChar

StartChar: si_I
Encoding: 7 3465 16
GlifName: si_I_
Width: 867
VWidth: 16
Flags: HMW
LayerCount: 5
Fore
SplineSet
242.5 -290 m 1
 268.450129582 -328.691336496 349.478863056 -361.972377232 440.5 -362 c 0
 569.632409043 -362.03918864 641.139740154 -286.592883402 640.5 -204 c 0
 639.561846803 -82.880859375 479.5 -68 479.5 -68 c 1
 389.5 -59 l 1
 417.5 -96 l 1
 489.914298765 -104.771816038 570.663288254 -134.955017201 571.5 -192 c 4
 572.695773143 -268.553888494 510.397584056 -292.010682624 444.5 -292 c 4
 373.552191458 -291.987814085 311.168639053 -256.381835938 276.5 -210 c 1
 246.036132812 -229.567708333 244.717773437 -263.572916667 242.5 -290 c 1
58.5 291 m 0
 58.5 132.688476562 179.077146798 51.7643559501 315.5 51 c 0
 483.348632812 50.0595703125 545.395555459 159.414537274 547.5 250 c 0
 549.569335938 339.07421875 483.307764456 393.019163989 413.5 394 c 0
 339.826171875 395.03515625 297.5 341.065429688 297.5 287 c 0
 297.5 228 345.421878377 184.619517295 414.5 184 c 0
 501.28515625 183.221679688 524.491210938 253 525.5 260 c 1
 513.5 282 l 2
 513.5 282 482.0546875 229 426.5 229 c 0
 382.294921875 229 347.5 249 347.5 285 c 0
 347.5 314.176757812 371.966796875 339 410.5 339 c 0
 456.196289062 339 498.5 299.435546875 498.5 242 c 0
 498.5 187.603515625 438.198239488 112.881204647 325.5 112 c 0
 200.481445312 111.022460938 120.5 182.409179688 120.5 289 c 0
 120.5 446.239257812 266.98828125 529 418.5 529 c 0
 596.356445312 529 736.326898453 418.637693313 737.5 272 c 0
 739.126953125 68.630859375 547.7578125 -57.8076171875 396.5 -45 c 1
 376.5 -65.9091796875 376.5 -83.181640625 376.5 -95 c 1
 624.498046875 -116.19921875 808.5 60.53125 808.5 294 c 0
 808.5 502.240234375 637.492188677 623.999753999 428.5 623 c 0
 231.909179688 622.059570312 58.5 485.326171875 58.5 291 c 0
EndSplineSet
EndChar

StartChar: si_Ii
Encoding: 8 3466 17
GlifName: si_I_i
Width: 761
VWidth: 25
Flags: HMW
LayerCount: 5
Back
SplineSet
531.826171875 611 m 0xb0
 531.826171875 642 556.826171875 667 587.826171875 667 c 0
 618.826171875 667 643.826171875 642 643.826171875 611 c 0
 643.826171875 580 618.826171875 555 587.826171875 555 c 0
 556.826171875 555 531.826171875 580 531.826171875 611 c 0xb0
219.826171875 701 m 4
 219.826171875 733 245.826171875 759 277.826171875 759 c 4
 309.826171875 759 335.826171875 733 335.826171875 701 c 4
 335.826171875 669 309.826171875 643 277.826171875 643 c 4x70
 245.826171875 643 219.826171875 669 219.826171875 701 c 4
EndSplineSet
Refer: 4 3515 N 1 0 0 1 4.82588 0 2
Fore
SplineSet
598.461914062 641 m 0
 598.461914062 672 623.461914062 697 654.461914062 697 c 0
 685.461914062 697 710.461914062 672 710.461914062 641 c 0
 710.461914062 610 685.461914062 585 654.461914062 585 c 0
 623.461914062 585 598.461914062 610 598.461914062 641 c 0
196.461914062 741 m 0
 196.461914062 773 222.461914062 799 254.461914062 799 c 0
 286.461914062 799 312.461914062 773 312.461914062 741 c 0
 312.461914062 709 286.461914062 683 254.461914062 683 c 0
 222.461914062 683 196.461914062 709 196.461914062 741 c 0
EndSplineSet
Refer: 4 3515 N 1 0 0 1 4.82588 0 2
EndChar

StartChar: si_U
Encoding: 9 3467 18
GlifName: si_U_
Width: 765
VWidth: 13
Flags: HMW
LayerCount: 5
Back
SplineSet
175.98046875 82 m 4
 157.182617188 -47.7998046875 221.953125 -212.974609375 404.98046875 -236.380859375 c 4
 539.891601562 -252.205078125 621.569335938 -209.567382812 694.98046875 -151 c 5
 728.98046875 -208 l 5
 679.203125 -243.866210938 572.854492188 -301.940429688 420.98046875 -296.19140625 c 4
 143.431640625 -285.490234375 48.8974609375 -102.7421875 59.98046875 34 c 4
 82.591796875 311.194335938 334.971679688 369.895507812 489.98046875 371 c 4
 551.983398438 371.436523438 587.98046875 367.727539062 616.98046875 365 c 5
 616.98046875 370 592.813476562 346 591.98046875 351 c 5
 604.551757812 478 475.194335938 499 396.98046875 481 c 5
 340.98046875 402 l 5
 294.98046875 405 273.067382812 445.533203125 283.98046875 481 c 4
 299.98046875 533 360.98046875 561 443.98046875 561 c 4
 526.266601562 561 620.014648438 506.793945312 633.98046875 423 c 4
 643.076171875 368.426757812 630.98046875 318 630.98046875 318 c 5
 630.98046875 316 l 5
 415.614257812 336.892578125 209.44921875 299.200195312 175.98046875 82 c 4
EndSplineSet
Fore
SplineSet
31.98046875 55 m 0
 31.98046875 288.49609375 218.583984375 390.010742188 382.98046875 404 c 0
 441.737304688 409 577.845703125 403.75 620.98046875 395 c 1
 620.98046875 399.286132812 599.41796875 378.713867188 597.98046875 383 c 1
 598.98046875 388 598.98046875 393 598.98046875 398 c 0
 598.98046875 488 517.770507812 523 448.98046875 523 c 0
 434.504882812 523 428.409179688 521 416.98046875 517 c 1
 370.98046875 431 l 1
 326.647460938 433.229492188 300.98046875 465.557617188 300.98046875 499 c 0
 300.98046875 559.174804688 356.282226562 599 441.98046875 599 c 0
 552.630859375 599 640.98046875 528.779296875 640.98046875 413 c 0
 640.98046875 375.482421875 633.98046875 349 633.98046875 349 c 1
 633.98046875 347 l 1
 591.791992188 355.5 467.694335938 360.979492188 415.98046875 356 c 0
 242.34375 339.280273438 133.98046875 238.263671875 133.98046875 73 c 0
 133.98046875 -86.71484375 241.423828125 -209 440.98046875 -209 c 0
 579.228515625 -209 666.8984375 -154.942382812 712.98046875 -121 c 1
 724.829101562 -126.326171875 733.677734375 -149.760742188 732.98046875 -170 c 1
 702.973632812 -204.9140625 592.337890625 -271 434.98046875 -271 c 0
 132.78125 -271 31.98046875 -91.197265625 31.98046875 55 c 0
EndSplineSet
EndChar

StartChar: si_E
Encoding: 15 3473 22
GlifName: si_E_
Width: 880
VWidth: 16
Flags: HMW
LayerCount: 5
Back
SplineSet
416.014648438 669.124023438 m 1xde
 506.198242188 678 l 1
 505.041015625 653.400390625 527.561523438 575.997070312 567.198242188 559 c 0
 643.301757812 526.365234375 676.364257812 606.057617188 733.198242188 558 c 1
 762.198242188 526 l 1
 693.333984375 554.92578125 638.614257812 470.92578125 536.198242188 505.301757812 c 0
 456.154296875 532.168945312 459.620117188 669.104492188 416.014648438 669.124023438 c 1xde
109.198242188 317 m 5
 498.198242188 316 l 5
 493.198242188 275 l 5
 192.198242188 270 l 5
 108.198242188 252 l 5
 109.198242188 317 l 5
494.703125 661.212890625 m 0
 444.348632812 668.377929688 410.638671875 662.286132812 394.198242188 661 c 1
 395.198242188 741 l 1xee
 727.112304688 740.212890625 879.198242188 516.80859375 879.198242188 311 c 0
 879.198242188 91.0390625 750.948242188 -56.3564453125 528.198242188 -61 c 0
 308.821289062 -65.5732421875 205.432617188 17.80078125 202.198242188 121 c 0
 197.794921875 261.4765625 341.720703125 302.262695312 455.198242188 306 c 1
 455.198242188 394 413.889648438 438 321.198242188 438 c 1
 295.198242188 357 l 1
 248.834960938 350 217.466796875 378.897460938 225.198242188 425 c 0
 234.58984375 481 289.059570312 500 333.198242188 500 c 0
 399.198242188 500 496.678710938 462.978515625 501.198242188 359 c 0
 502.58203125 327.161132812 493.198242188 282 493.198242188 282 c 1
 365.448242188 299.456054688 274.602539062 246.993164062 275.198242188 162 c 0
 275.717773438 86.0546875 383.846679688 38.986328125 522.198242188 40 c 0
 707.676757812 41.3388671875 817.198242188 144.6484375 817.198242188 346 c 0
 817.198242188 538.337890625 628.466796875 642.180664062 494.703125 661.212890625 c 0
EndSplineSet
Fore
SplineSet
431.198242188 378 m 0
 440.198242188 378 430.198242188 399 438.198242188 398 c 1
 438.198242188 468 368.198242188 527 296.198242188 527 c 1
 240.198242188 446 l 1
 215.198242188 446 183.198242188 464 182.198242188 503 c 0
 181.198242188 559 238.198242188 592 297.198242188 592 c 0
 395.198242188 592 481.198242188 520 481.198242188 411 c 0
 481.198242188 377 478.198242188 369 478.198242188 369 c 1
 460.198242188 371 449.198242188 378 431.198242188 378 c 0
51.1982421875 417 m 1
 471.198242188 414 l 1
 476.198242188 368 l 1
 177.198242188 368 l 1
 53.1982421875 350 l 1
 42.1982421875 365.12890625 35.1982421875 396.467773438 51.1982421875 417 c 1
348.198242188 402 m 1
 355.467773438 402 342.736328125 402 349.198242188 401 c 1
 347.198242188 371 l 1
 253.6484375 371.591796875 177.198242188 318.694335938 177.198242188 233 c 0
 177.198242188 138.127929688 285.829101562 74 461.198242188 74 c 0
 685.198242188 74 775.354492188 236.998046875 777.198242188 390 c 0
 780.198242188 639 569.198242188 768 383.198242188 796 c 1
 377.198242188 810 375.198242188 844 388.198242188 854 c 1
 679.198242188 804 838.198242188 611 838.198242188 381 c 0
 838.198242188 144 694.198242188 -26 467.198242188 -26 c 0
 234.198242188 -26 111.198242188 85 111.198242188 200 c 4
 111.198242188 332.588867188 214.416015625 400.723632812 348.198242188 402 c 1
383.198242188 797 m 1
 422.198242188 818 l 1
 510.198242188 786 491.63671875 685.697265625 524.198242188 626 c 0
 554.198242188 571 637.198242188 562 730.198242188 603 c 1
 753.198242188 566 l 1
 680.198242188 519 523.240234375 491.522460938 470.198242188 596 c 0
 437.198242188 661 445.198242188 761 383.198242188 797 c 1
EndSplineSet
EndChar

StartChar: si_Os
Encoding: 18 3476 25
GlifName: si_O_s
Width: 880
VWidth: 16
Flags: HMW
LayerCount: 5
Back
SplineSet
101.129882812 261.502929688 m 5
 101.494140625 82.853515625 237.510742188 -58 466.560546875 -58 c 4
 691.010742188 -58 836.515625 95.5927734375 836.515625 334 c 4
 836.515625 548.2265625 697.345703125 732.00390625 457.786132812 732.00390625 c 4
 317.512695312 732.00390625 205.560546875 652 205.560546875 652 c 5
 233.560546875 602 l 5
 236.500976562 602 328.623046875 679.03515625 451.2421875 679.03515625 c 4
 686.908203125 679.03515625 780.721679688 514.502929688 773.834960938 329 c 4
 768.310546875 180.20703125 684.151367188 42.5888671875 461.390625 43.9912109375 c 4
 295.059570312 45.0390625 160.913085938 137.694335938 158.943359375 287.059570312 c 4
 157.73046875 379.075195312 188.096679688 444.005859375 236.413085938 444.005859375 c 4
 260.384765625 444.005859375 271.36328125 424.258789062 272.560546875 375 c 4
 274.204101562 310.588867188 290.455078125 262.171875 322.560546875 234.584960938 c 4
 360.061523438 200.767578125 412.428710938 186.986328125 463.046875 186.986328125 c 4
 577.661132812 186.986328125 630.5625 275.466796875 630.5625 360.115234375 c 4
 630.5625 436.70703125 578.365234375 504 482.560546875 504 c 4
 408.2890625 504 365.553710938 451.715820312 365.553710938 398.010742188 c 4
 365.553710938 337.249023438 412.490234375 311.997070312 454.8671875 311.997070312 c 4
 514.861328125 311.997070312 546.68359375 359.837890625 546.68359375 409.515625 c 4
 546.68359375 433.040039062 536.111328125 458.829101562 520.560546875 473.561523438 c 5
 494.560546875 474.561523438 l 5
 506.016601562 456.45703125 511.55859375 438.291015625 511.55859375 415.853515625 c 4
 511.55859375 388.53125 494.09375 357.55859375 458.842773438 357.55859375 c 4
 424.778320312 357.55859375 412.551757812 383.942382812 412.551757812 402.051757812 c 4
 412.551757812 436.8359375 434.823242188 463.909179688 469 469.001953125 c 4
 544.576171875 480.262695312 594.217773438 426.975585938 592.611328125 358.48046875 c 4
 591.166992188 296.900390625 547.69140625 253.766601562 462.630859375 252.998046875 c 4
 402.264648438 252.452148438 316.544921875 276.978515625 315.379882812 381 c 4
 314.5703125 453.213867188 286.75390625 482.034179688 242.166015625 482.034179688 c 4
 174.69921875 482.034179688 100.573242188 417.208984375 101.129882812 261.502929688 c 5
EndSplineSet
Fore
SplineSet
221.5 509 m 0
 265.5 508 293.907226562 482.004882812 294.5 417 c 0
 295.567382812 300 385.442382812 276.19921875 449.5 277 c 0
 529.516601562 278 581.5390625 325.022460938 582.5 392 c 0
 583.487304688 460.834960938 527.840820312 515.209960938 458.5 501 c 0
 417.938476562 496.15625 398.5 461.90625 398.5 435 c 0
 398.5 410 411.5 388 445.5 388 c 0
 480.5 388 497.5 419 497.5 446 c 0
 497.5 475 487.5 494 477.5 505 c 1
 507.5 514 l 1
 523.5 499 533.5 471 533.5 440 c 0
 533.5 390 498.5 339 438.5 339 c 0
 383.5 339 340.5 376 340.5 431 c 0
 340.5 501 394.334960938 548 467.5 548 c 0
 572.27734375 548 631.5 468 631.5 388 c 0
 631.5 303.03515625 573.184570312 208 445.5 208 c 4
 328.530273438 208 255.076171875 274.772460938 252.5 401 c 0
 251.5 450 239.5 465 214.5 465 c 0
 155.465820312 464 105.5 370.149414062 105.5 265 c 0
 105.5 122.756835938 189.947265625 57 284.5 57 c 0
 348.5 57 414.5 93 417.5 172 c 1
 427.5 176 442.5 180 454.5 176 c 1
 461.5 91 521.5 54 581.5 54 c 0
 724.258789062 54 769.5 230.1015625 769.5 347 c 0
 769.5 530.599609375 660.5859375 707 388.5 707 c 0
 246.5 707 175.5 639 172.5 639 c 1
 156.5 646 143.5 668 147.5 699 c 1
 147.5 699 233.049804688 765 388.5 765 c 0
 688.396484375 765 834.5 550.474609375 834.5 339 c 0
 834.5 194.41015625 782.877929688 -42 585.5 -42 c 0
 483.265625 -42 421.715820312 21 416.5 111 c 1
 451.5 111 l 1
 435.5 32 388.5 -39 279.5 -39 c 0
 92.265625 -39 45.5 138.428710938 45.5 242 c 0
 45.5 420.043945312 143.48046875 509 221.5 509 c 0
EndSplineSet
EndChar

StartChar: si_Kha
Encoding: 22 3483 28
GlifName: si_K_ha
Width: 871
VWidth: 6
Flags: HMW
LayerCount: 5
Back
SplineSet
723.413085938 336.353515625 m 4
 723.413085938 539.126953125 620.087890625 671.095703125 373.258789062 671.095703125 c 4
 249.685546875 671.095703125 153.548828125 603 151.979492188 603 c 5
 123.979492188 660 l 5
 123.979492188 660 232.758789062 733.059570312 385.76171875 733.059570312 c 4
 598.852539062 733.059570312 796.610351562 586.017578125 796.610351562 332.138671875 c 4
 796.610351562 115.98046875 709.265625 -51.8984375 536.439453125 -51.8984375 c 4
 496.9921875 -51.8984375 481.506835938 -36.3955078125 463.383789062 -36.3955078125 c 4
 439.877929688 -36.3955078125 415.65234375 -59.044921875 399.979492188 -93.9130859375 c 5
 361.868164062 -77 l 5
 411.849609375 0.8115234375 461.010742188 84.2724609375 455.01171875 178.049804688 c 4
 448.727539062 276.287109375 356.224609375 329.544921875 281.233398438 329.544921875 c 4
 178.399414062 329.544921875 88.16796875 262.353515625 88.16796875 129.487304688 c 4
 88.16796875 46.1943359375 124.700195312 -8.2998046875 197.135742188 -8.2998046875 c 4
 238.4296875 -8.2998046875 257.390625 25.0712890625 257.390625 52.2392578125 c 4
 257.390625 85.287109375 237.307617188 110.944335938 205.625 110.944335938 c 4
 180.188476562 110.944335938 156.887695312 91.3330078125 156.887695312 54.2900390625 c 4
 156.887695312 26.85546875 173.249023438 -6.75 215.868164062 -12.09375 c 5
 215.868164062 -23.3828125 l 5
 147.317382812 -21.287109375 114.334960938 15.962890625 114.334960938 56.8916015625 c 4
 114.334960938 114.103515625 154.5703125 169.70703125 220.010742188 169.70703125 c 4
 276.162109375 169.70703125 319.755859375 127.157226562 319.755859375 61.1015625 c 4
 319.755859375 9.072265625 280.594726562 -58.7978515625 199.71484375 -58.7978515625 c 4
 80.0966796875 -58.7978515625 35.5 58.337890625 35.5 151.438476562 c 4
 35.5 326.481445312 152.651367188 422.469726562 294.504882812 424.913085938 c 4
 378.247070312 426.35546875 516.897460938 370.383789062 516.897460938 194.314453125 c 4
 516.897460938 113.931640625 487.899414062 68.451171875 466.9765625 30 c 5
 466.176757812 78 l 5
 477.926757812 58.0712890625 510.106445312 46.37890625 539.439453125 46.37890625 c 4
 663.794921875 46.37890625 723.413085938 172.436523438 723.413085938 336.353515625 c 4
EndSplineSet
Fore
SplineSet
820.5 344 m 5
 820.5 606.782226562 615.084960938 766 388.5 766 c 4
 215.415039062 766 112.5 694 112.5 694 c 5
 106.334960938 660.014648438 118.010742188 635.227539062 129.5 625 c 5
 129.5 625 244.728515625 704 374.5 704 c 4
 625.75 704 754.08203125 548.184570312 750.5 343 c 5
 749.5 180 660.5 71 559.5 71 c 4
 509.5 71 489.5 90 476.5 123 c 5
 466.5 60 l 5
 493.5 98 536.5 174 536.5 254 c 4
 536.5 420 417.5 487 313.5 486 c 4
 168.9609375 485.158203125 50.5 372.166015625 50.5 186 c 4
 50.5 90.2099609375 105.661132812 -27 227.5 -27 c 4
 300.852539062 -27 343.5 33.109375 343.5 87 c 4
 343.5 148.959960938 297.745117188 186 245.5 186 c 4
 191.97265625 186 141.5 143.201171875 141.5 75 c 4
 141.5 30.1748046875 169.163085938 -0.849609375 193.5 -3 c 5
 217.5 8 l 5
 190.534179688 12.3935546875 180.5 39.2724609375 180.5 63 c 4
 180.5 110.385742188 208.1328125 130 240.5 130 c 4
 268.192382812 130 288.5 108.64453125 288.5 79 c 4
 288.5 50.2001953125 268.118164062 20.1943359375 228.5 19 c 4
 155.807617188 16.80859375 100.5 84.40625 100.5 184 c 4
 100.5 315.661132812 183.21484375 397 295.5 397 c 4
 391.5 397 469.327148438 338.579101562 475.5 238 c 4
 480.84765625 146 408.260742188 19 373.5 -41 c 5
 403.5 -62 l 5
 437.5 -4 447.5 12 459.5 34 c 5
 430.5 48 l 5
 434.5 7 491.5 -25 556.5 -25 c 4
 722.5 -25 820.5 126 820.5 344 c 5
EndSplineSet
EndChar

StartChar: si_Ga
Encoding: 23 3484 29
GlifName: si_G_a
Width: 986
VWidth: 6
Flags: HMW
LayerCount: 5
Back
SplineSet
721.264648438 15.6123046875 m 4
 828.19921875 27.6982421875 883.127929688 96.9677734375 883.127929688 219.600585938 c 4
 883.127929688 341.538085938 815.637695312 439.272460938 680.442382812 437.533203125 c 4
 587.182617188 436.399414062 500.857421875 377.801757812 475.3828125 264.823242188 c 5
 425.115234375 248.01171875 l 5
 439.701171875 440.625976562 555.479492188 535.514648438 679.184570312 542.603515625 c 4
 857.247070312 552.603515625 947.375 411.889648438 947.375 267.375 c 4
 947.375 101.1640625 869.936523438 -54.5166015625 690.916015625 -55.814453125 c 4
 640.5078125 -56.1796875 604.995117188 -45.9150390625 587.1875 -36.138671875 c 5
 605.95703125 38.328125 l 5
 626.625 22.771484375 679.408203125 10.5341796875 721.264648438 15.6123046875 c 4
141.479492188 245.841796875 m 4
 140.65234375 150.483398438 202.159179688 56.111328125 351.504882812 50.5908203125 c 4
 437.080078125 47.0771484375 522.391601562 79.8349609375 524.504882812 150 c 4
 525.690429688 200.606445312 491.821289062 247 425.504882812 247 c 5
 466.504882812 281 l 5
 508.504882812 279.932617188 578.157226562 240.7421875 578.504882812 152 c 4
 579.01171875 44.1220703125 505.098632812 -57.0576171875 340.103515625 -55.0048828125 c 4
 182.208984375 -53.0400390625 80.5 61.9140625 80.5 221.564453125 c 4
 80.5 428.865234375 228.793945312 526 363.504882812 538 c 4
 371.384765625 461.879882812 l 4
 276.420898438 461.879882812 142.939453125 422.454101562 141.479492188 245.841796875 c 4
EndSplineSet
Fore
SplineSet
395.5 269 m 5
 401.491210938 467.4453125 519.18359375 577 668.5 577 c 4
 840.514648438 577 935.5 440.494140625 935.5 298 c 4
 935.5 123.552734375 848.756835938 -29 668.5 -29 c 4
 626.037109375 -29 587.611328125 -19.5712890625 572.5 -11 c 5
 565.5 -3.94140625 561.5 31.3525390625 581.5 49 c 5
 596.0859375 40.1943359375 628.245117188 27.1416015625 675.5 28 c 4
 820.645507812 30.703125 866.5 152.2578125 866.5 269 c 4
 866.5 418.08203125 761.776367188 487 654.5 487 c 4
 546.365234375 487 444.879882812 428.76953125 438.5 263 c 5
 426.772460938 261.799804688 405.227539062 263.200195312 395.5 269 c 5
50.5 252 m 4
 50.5 456.634765625 217.5625 572.083984375 347.5 574 c 5
 355.5 555 349.5 520 343.5 511 c 5
 251.840820312 511 113.9375 447.711914062 109.5 279 c 4
 106.514648438 162.1953125 180.770507812 75.2666015625 316.5 72 c 4
 440.700195312 69.01171875 510.5 133.153320312 510.5 199 c 4
 510.5 256.887695312 479.375 287 420.5 287 c 5
 431.5 332 l 5
 506.631835938 333.567382812 562.5 280.876953125 562.5 198 c 4
 562.5 86.869140625 476.3828125 -25 318.5 -25 c 4
 146.354492188 -25 50.5 91.1943359375 50.5 252 c 4
EndSplineSet
EndChar

StartChar: si_Gha
Encoding: 24 3485 30
GlifName: si_G_ha
Width: 915
VWidth: 6
Flags: HMW
LayerCount: 5
Back
SplineSet
48.67578125 379 m 1xe8
 426.67578125 381 l 1
 428.67578125 336 l 1
 132.67578125 335 l 1
 47.67578125 322 l 1
 48.67578125 379 l 1xe8
556.67578125 373 m 1
 589.67578125 384 l 1
 689.166992188 410.330078125 874.67578125 380.840820312 874.67578125 186 c 0
 874.67578125 64 800.053710938 -45 668.67578125 -45 c 0
 563.67578125 -45 530.67578125 13 515.67578125 117 c 1
 515.103515625 116.142578125 549.67578125 147 543.67578125 165 c 24
 537.67578125 183 496.302734375 183.658203125 493.67578125 184 c 1
 491.002929688 184.34765625 447.67578125 184 436.67578125 162 c 24
 428.67578125 145 471.181640625 117.758789062 470.67578125 117 c 1
 452.794921875 16 430.423828125 -43.1982421875 313.67578125 -44 c 0
 181.146484375 -44.91015625 108.848632812 54.9951171875 110.67578125 154 c 0
 112.840820312 268 207.03125 346 241.67578125 347 c 1
 335.67578125 338 l 1
 249.537109375 324.103515625 171.530273438 266.251953125 172.67578125 183 c 0
 173.575195312 112.950195312 225.278320312 66.7216796875 313.67578125 62 c 0
 355.251953125 59.779296875 418.887695312 74.7744140625 424.67578125 107.828125 c 1
 423.876953125 132.467773438 379.798828125 139.845703125 380.67578125 171 c 0
 381.706054688 207.595703125 425.680664062 243.372070312 497.67578125 242 c 0
 564.6796875 240.72265625 599.67578125 210 599.67578125 174 c 0
 599.67578125 142.715820312 559.938476562 129.123046875 557.67578125 112.466796875 c 1
 561.1328125 84.8037109375 630.530273438 64.2333984375 673.67578125 64 c 0
 753.482421875 63.599609375 809.076171875 113.7890625 810.67578125 195 c 0xf2
 813.060546875 310.975585938 714.981445312 383.813476562 551.67578125 328 c 1
 546.67578125 350.166992188 542.067382812 374.670898438 541.67578125 398 c 0
 539.67578125 500 612.67578125 568 696.67578125 570 c 0
 763.657226562 571.594726562 839.67578125 532 839.67578125 452 c 0
 839.67578125 356 746.67578125 330 746.67578125 330 c 1
 730.67578125 337 l 1
 730.67578125 337 769.67578125 374.990234375 769.67578125 424 c 0xe4
 769.67578125 465 729.555664062 513.047851562 665.67578125 509 c 0
 629.670898438 506.71875 586.67578125 472 581.67578125 411 c 0
 577.903320312 364.98046875 597.67578125 353 597.67578125 353 c 1
 556.67578125 373 l 1
397.67578125 364 m 1xe8
 400.67578125 398 400.67578125 417 388.67578125 445 c 0
 374.67578125 480 319.67578125 508 269.67578125 503 c 0
 218.67578125 419 l 1
 188.67578125 422 164.67578125 439 164.67578125 476 c 0
 164.67578125 543 236.67578125 568 289.67578125 568 c 0
 369.67578125 568 442.96875 518.05078125 445.67578125 433 c 0
 447.2421875 383.791015625 437.67578125 358.083007812 428.67578125 337 c 1
 397.67578125 364 l 1xe8
EndSplineSet
Fore
SplineSet
47.67578125 352 m 1
 41.67578125 365 34.67578125 387 47.67578125 410 c 1
 426.67578125 410 l 1
 426.67578125 366 l 1
 132.67578125 366 l 1
 47.67578125 352 l 1
110.67578125 180 m 0
 110.67578125 293 209.67578125 377 245.67578125 377 c 2
 335.67578125 377 l 1
 249.67578125 363 172.67578125 307 172.67578125 215 c 0
 172.67578125 143 228.67578125 92 321.67578125 92 c 0
 362.67578125 92 419.67578125 117 424.67578125 148 c 1
 403.67578125 162 380.67578125 175 380.67578125 205 c 0
 380.67578125 242 423.67578125 272 493.67578125 272 c 0
 562.67578125 272 599.67578125 240 599.67578125 203 c 0
 599.67578125 172 569.67578125 159 557.67578125 152 c 1
 560.67578125 124 631.67578125 94 674.67578125 94 c 0
 755.67578125 94 810.67578125 145 810.67578125 229 c 0
 810.67578125 316 753.67578125 377 655.67578125 377 c 0
 624.67578125 377 589.67578125 371 551.67578125 358 c 1
 546.67578125 382 541.67578125 406 541.67578125 432 c 0
 541.67578125 533 606.67578125 596 704.67578125 596 c 0
 780.67578125 596 839.67578125 551 839.67578125 482 c 0
 839.67578125 386 746.67578125 360 746.67578125 360 c 1
 730.67578125 369 l 1
 730.67578125 369 769.67578125 405 769.67578125 454 c 0
 769.67578125 493 739.67578125 539 679.67578125 539 c 0
 634.67578125 539 577.67578125 500 577.67578125 430 c 0
 577.67578125 393 587.67578125 383 587.67578125 383 c 1
 556.67578125 403 l 1
 589.67578125 414 l 1
 609.67578125 419 632.67578125 422 656.67578125 422 c 0
 755.67578125 422 874.67578125 372 874.67578125 216 c 0
 874.67578125 94 799.67578125 -5 668.67578125 -5 c 0
 563.67578125 -5 530.67578125 53 515.67578125 157 c 1
 515.67578125 157 544.67578125 185 544.67578125 203 c 0
 544.67578125 226 495.67578125 227 491.67578125 227 c 0
 485.615234375 227 435.67578125 224.66796875 435.67578125 200 c 0
 435.67578125 183 470.67578125 158 470.67578125 157 c 0
 453.67578125 56 406.67578125 -5 301.67578125 -5 c 0
 171.67578125 -5 110.67578125 83 110.67578125 180 c 0
164.67578125 506 m 0
 164.67578125 573 236.67578125 598 289.67578125 598 c 0
 374.67578125 598 445.67578125 546 445.67578125 453 c 0
 445.67578125 410 436.67578125 387 428.67578125 367 c 1
 402.67578125 394 l 1
 403.67578125 405 404.67578125 415 404.67578125 424 c 0
 404.67578125 492 342.67578125 539 272.67578125 539 c 1
 218.67578125 449 l 1
 188.67578125 452 164.67578125 469 164.67578125 506 c 0
EndSplineSet
EndChar

StartChar: si_Nga
Encoding: 25 3486 31
GlifName: si_N_ga
Width: 829
VWidth: 16
Flags: HMW
LayerCount: 5
Back
SplineSet
409.598632812 474 m 25x9e
 259.598632812 490 l 17
 124.598632812 448 63.9638671875 383.963867188 58.5986328125 238 c 0
 55.849609375 163.2109375 98.607421875 56.189453125 146.598632812 18.7021484375 c 0
 105.598632812 -30.3115234375 l 0
 37.9404296875 20.875 -9.4013671875 137.236328125 -3.4013671875 245 c 0
 9.662109375 479.63671875 219.598632812 599 408.598632812 539 c 1
 409.598632812 474 l 25x9e
EndSplineSet
Refer: 29 3484 N 1 0 0 1 72.5989 0 2
Fore
SplineSet
52.5 171 m 0
 52.5 381 269.5 410 397.5 381 c 1
 388.5 340 l 1
 292.5 360 123.5 332 123.5 206 c 0
 123.5 140 166.5 91 244.5 91 c 0
 316.5 91 378.5 131 378.5 225 c 1
 385.5 229 410.5 233 417.5 228 c 1
 417.5 133 473.5 91 552.5 91 c 4
 636.5 91 705.5 187 705.5 360 c 0
 705.5 567 588.5 715 371.5 715 c 0
 282.5 715 211.5 685 170.5 660 c 1
 157.5 669 148.5 705 159.5 728 c 1
 216.5 755 275.5 769 372.5 769 c 0
 599.5 769 776.5 605 776.5 347 c 0
 776.5 181 721.5 -12 552.5 -12 c 0
 476.5 -12 416.5 19 394.5 81 c 1
 371.5 13 301.5 -12 242.5 -12 c 0
 144.5 -12 52.5 50 52.5 171 c 0
116.5 472 m 0
 116.5 539 188.5 564 241.5 564 c 0
 331.5 564 401.5 509 401.5 409 c 0
 401.5 375 395.5 359 389.5 340 c 1
 356.5 362 l 1
 358.5 373 359.5 383 359.5 393 c 0
 359.5 457 313.5 498 239.5 498 c 0
 233.5 498 227.5 498 220.5 497 c 1
 170.5 415 l 1
 140.5 418 116.5 435 116.5 472 c 0
EndSplineSet
EndChar

StartChar: si_Nnga
Encoding: 26 3487 32
GlifName: si_N_nga
Width: 1088
VWidth: 6
Flags: HMW
LayerCount: 5
Back
SplineSet
588.53125 474 m 25x9e
 438.53125 490 l 17
 303.53125 448 242.896484375 383.963867188 237.53125 238 c 0
 234.782226562 163.2109375 277.540039062 56.189453125 325.53125 18.7021484375 c 0
 284.53125 -30.3115234375 l 0
 216.873046875 20.875 169.53125 137.236328125 175.53125 245 c 0
 188.594726562 479.63671875 398.53125 599 587.53125 539 c 1
 588.53125 474 l 25x9e
EndSplineSet
Refer: 29 3484 N 1 0 0 1 251.532 0 2
Fore
SplineSet
511.01953125 282 m 1
 507.111328125 475.291015625 628.360351562 582 770.01953125 582 c 0
 949.6875 582 1045.01953125 443.978515625 1045.01953125 303 c 0
 1045.01953125 138.014648438 968.96875 -22 779.01953125 -22 c 0
 739.546875 -22 705.713867188 -11.5234375 692.01953125 -2 c 1
 685.01953125 5.05859375 681.01953125 40.3525390625 701.01953125 58 c 1
 715.916015625 47.5166015625 759.775390625 32.3076171875 797.01953125 33 c 0
 930.06640625 35.853515625 973.01953125 184.767578125 973.01953125 272 c 0
 973.01953125 418.383789062 875.000976562 494 758.01953125 494 c 0
 655.391601562 494 561.07421875 432.58984375 555.01953125 272 c 1
 543.01953125 270 523.01953125 265 511.01953125 282 c 1
173.01953125 269 m 0
 173.01953125 467.915039062 330.08203125 578.137695312 460.01953125 580 c 5
 468.01953125 561 462.01953125 526 456.01953125 517 c 5
 366.319335938 517 241.653320312 460.341796875 237.01953125 304 c 0
 234.048828125 178.731445312 298.025390625 84.0654296875 433.01953125 78 c 0
 542.90625 73.08984375 623.01953125 126.442382812 623.01953125 207 c 0
 623.01953125 264.887695312 591.89453125 295 533.01953125 295 c 1
 544.01953125 340 l 1
 625.151367188 341.567382812 675.01953125 288.876953125 675.01953125 206 c 0
 675.01953125 91.869140625 592.431640625 -17 441.01953125 -17 c 0
 262.450195312 -17 173.01953125 102.969726562 173.01953125 269 c 0
43.01953125 262 m 0
 40.291015625 423.28125 177.931640625 613.482421875 461.01953125 582 c 4
 453.01953125 522 l 5
 341.01953125 531 l 5
 201.849609375 525.524414062 95.0947265625 406.453125 97.01953125 268 c 0
 99.0966796875 121.28515625 208.942382812 18.5458984375 397.01953125 19 c 1
 429.01953125 -17 l 1
 96.486328125 -13.986328125 45.0751953125 147.447265625 43.01953125 262 c 0
EndSplineSet
EndChar

StartChar: si_Cha
Encoding: 28 3489 33
GlifName: si_C_ha
Width: 855
VWidth: 6
Flags: HMW
LayerCount: 5
Back
SplineSet
556.430664062 219 m 4xfe
 476.349609375 219.434570312 453.028320312 292.774414062 451.171875 352 c 4
 445.061523438 546.953125 623.774414062 725.752929688 825.430664062 771 c 5
 852.430664062 708 l 5
 626.057617188 678.284179688 514.469726562 515.27734375 501.7265625 414 c 4
 490.171875 322.166992188 506.509765625 262.995117188 559.430664062 264 c 4
 610.26171875 264.965820312 635.258789062 301.474609375 635.430664062 387 c 4
 635.515625 432.637695312 610.376953125 513 513.430664062 513 c 4
 466.430664062 513 429.430664062 472.893554688 429.430664062 419 c 4
 429.430664062 367 454.430664062 352 454.430664062 352 c 5
 406.430664062 333 l 5
 398.430664062 358 391.009765625 384.001953125 391.430664062 426 c 4
 392.361328125 518.771484375 468.666992188 563 525.430664062 563 c 4
 635.119140625 563 689.430664062 482.127929688 689.430664062 397 c 4
 689.430664062 266.061523438 620.8671875 218.650390625 556.430664062 219 c 4xfe
83.4306640625 209 m 0
 82.4306640625 124 167.430664062 45 352.430664062 45 c 0
 527.430664062 45 627.881835938 127.008789062 629.430664062 216 c 0
 631.206054688 318.00390625 503.430664062 348 406.430664062 333 c 1
 426.430664062 373 l 1
 571.430664062 402 704.637695312 330.994140625 700.430664062 193 c 0xfd
 695.430664062 29 528.430664062 -59 347.430664062 -59 c 0
 153.430664062 -59 2.58203125 32.998046875 4.4306640625 180 c 0
 6.4306640625 339 172.430664062 394 280.430664062 384 c 1
 256.430664062 345 l 1
 263.430664062 365 276.803710938 386.33203125 272.430664062 415 c 0
 263.430664062 474 203.430664062 505 135.430664062 490 c 0
 168.430664062 511 l 1
 113.430664062 409 l 1
 72.4306640625 411 46.03125 436.013671875 47.4306640625 471 c 0
 49.4306640625 521 106.430664062 557 166.430664062 557 c 0
 236.430664062 557 308.323242188 516.997070312 310.430664062 439 c 0
 311.430664062 402 305.430664062 370 296.430664062 333 c 1
 172.430664062 351 84.3486328125 287.000976562 83.4306640625 209 c 0
EndSplineSet
Fore
SplineSet
9.4306640625 207 m 0
 9.4306640625 365 159.16796875 427 270.430664062 427 c 0
 279.430664062 427 287.430664062 427 295.430664062 426 c 1
 267.430664062 387 l 1
 273.430664062 404 284.430664062 423 284.430664062 446 c 0
 284.430664062 503 237.315429688 536 184.430664062 536 c 0
 173.430664062 536 161.430664062 535 150.430664062 532 c 1
 183.430664062 553 l 1
 128.430664062 451 l 1
 88.4306640625 453 62.4306640625 476 62.4306640625 510 c 0
 62.4306640625 562 121.430664062 599 181.430664062 599 c 0
 255.430664062 599 325.430664062 557 325.430664062 473 c 0
 325.430664062 439 319.430664062 409 311.430664062 375 c 1
 297.430664062 377 283.430664062 378 270.430664062 378 c 0
 162.732421875 378 81.4306640625 315 81.4306640625 238 c 0
 81.4306640625 152.03515625 172.401367188 63.947265625 373.430664062 63 c 0
 590.28125 61.9775390625 679.430664062 156 679.430664062 249 c 0
 679.430664062 342 581.138671875 379 488.430664062 379 c 0
 471.409179688 379 454.387695312 378 438.430664062 375 c 1
 461.430664062 415 l 1
 483.430664062 420 504.430664062 422 524.430664062 422 c 0
 649.774414062 422 745.430664062 351 745.430664062 230 c 0
 745.430664062 57.375 565.8984375 -33 368.430664062 -33 c 0
 169.803710938 -33 9.4306640625 59.5419921875 9.4306640625 207 c 0
420.430664062 463 m 0
 421.430664062 552 506.430664062 598 567.430664062 598 c 0
 677.430664062 598 741.430664062 519 741.430664062 437 c 0
 741.430664062 306 672.430664062 269 608.430664062 269 c 0
 528.430664062 269 495.430664062 333 493.430664062 392 c 0
 487.430664062 587 625.430664062 756 817.430664062 811 c 1
 831.430664062 803 850.430664062 776 844.430664062 748 c 1
 678.430664062 708 566.430664062 595 543.430664062 454 c 0
 528.430664062 363 558.430664062 313 611.430664062 314 c 0
 669.430664062 315 687.430664062 358 687.430664062 434 c 0
 687.430664062 487 650.430664062 548 565.430664062 548 c 0
 512.430664062 548 471.430664062 509 471.430664062 459 c 0
 471.430664062 407 486.430664062 392 486.430664062 392 c 1
 438.430664062 373 l 1
 430.430664062 398 420.430664062 421 420.430664062 463 c 0
EndSplineSet
EndChar

StartChar: si_Ja
Encoding: 29 3490 34
GlifName: si_J_a
Width: 841
VWidth: 6
Flags: HMW
LayerCount: 5
Back
SplineSet
627.404296875 458 m 9xf8
 678.404296875 479 l 25
 678.404296875 479 679.749023438 453.623046875 680.404296875 432 c 0
 681.404296875 399 671.547851562 345.145507812 602.404296875 346 c 0
 520.208984375 347.015625 501.69921875 411.631835938 500.813476562 474 c 0
 498.874023438 610.606445312 602.540039062 725.743164062 751.404296875 771 c 1
 774.404296875 684 l 21
 659.669921875 682.305664062 535.416015625 606.845703125 545.700195312 461 c 0
 549.08203125 413.044921875 571.504882812 386.447265625 604.404296875 385 c 4
 652.76171875 382.873046875 638.551757812 447.357421875 627.404296875 458 c 9xf8
487.404296875 352 m 1
 432.404296875 333 l 1
 424.404296875 358 417.404296875 384 417.404296875 426 c 0
 418.404296875 512 500.404296875 553 561.404296875 553 c 0
 644.404296875 553 705.404296875 507 705.404296875 427 c 0
 705.404296875 349 608.404296875 309 608.404296875 309 c 1
 592.404296875 326 l 1
 626.456054688 347.129882812 641.288085938 377.10546875 641.404296875 417 c 0
 641.538085938 463 598.404296875 494 539.404296875 494 c 0
 492.404296875 494 459.404296875 452 459.404296875 409 c 0
 459.404296875 357 487.404296875 352 487.404296875 352 c 1
109.404296875 209 m 0
 108.404296875 124 193.404296875 45 378.404296875 45 c 0
 553.404296875 45 653.85546875 127.008789062 655.404296875 216 c 0
 657.1796875 318.00390625 529.404296875 348 432.404296875 333 c 1
 452.404296875 373 l 1
 597.404296875 402 730.404296875 331 726.404296875 193 c 0xf4
 721.404296875 29 554.404296875 -59 373.404296875 -59 c 0
 179.404296875 -59 28.404296875 33 30.404296875 180 c 0
 32.404296875 339 198.404296875 394 306.404296875 384 c 1
 277.404296875 345 l 1
 284.404296875 365 297.77734375 386.33203125 293.404296875 415 c 0
 284.404296875 474 229.404296875 505 161.404296875 490 c 0
 194.404296875 511 l 1
 139.404296875 409 l 1
 98.404296875 411 72.0048828125 436.013671875 73.404296875 471 c 0
 75.404296875 521 132.404296875 557 192.404296875 557 c 0
 262.404296875 557 334.404296875 517 336.404296875 439 c 0
 337.404296875 402 331.404296875 370 322.404296875 333 c 1
 198.404296875 351 110.404296875 287 109.404296875 209 c 0
EndSplineSet
Fore
SplineSet
509.404296875 392 m 1
 519.404296875 587 641.404296875 776 783.404296875 851 c 5
 798.404296875 841 812.404296875 823 810.404296875 798 c 5
 694.404296875 728 582.404296875 595 559.404296875 454 c 0
 556.404296875 438 555.404296875 423 555.404296875 409 c 1
 509.404296875 392 l 1
EndSplineSet
Refer: 1 3508 N 1 0 0 1 -9.59567 0 2
EndChar

StartChar: si_Ttha
Encoding: 35 3496 39
GlifName: si_T_tha
Width: 858
VWidth: 16
Flags: HMW
LayerCount: 5
Back
SplineSet
462.158203125 305 m 1
 479.842773438 392.088867188 423.509765625 448.735351562 326.158203125 440 c 1
 276.158203125 358 l 1
 246.158203125 361 222.158203125 378 222.158203125 415 c 0
 222.158203125 482 294.158203125 507 347.158203125 507 c 0
 427.158203125 507 502.814453125 457.983398438 507.158203125 373 c 0
 509.724609375 322.791015625 503.158203125 304.083007812 496.158203125 282 c 1
 462.158203125 305 l 1
494.600585938 293 m 1
 468.600585938 305 430.625976562 291.521484375 397.600585938 290 c 0
 301.790039062 285.69921875 221.788085938 248.908203125 220.600585938 161 c 0
 219.958007812 113.450195312 262.443359375 71.2998046875 340.158203125 71 c 0
 406.189453125 70.7548828125 462.600585938 111.124023438 462.600585938 205 c 1
 469.604492188 205.030273438 494.456054688 205.259765625 501.158203125 205.6796875 c 1
 501.158203125 108.375 565.352539062 71.36328125 620.158203125 71 c 0
 701.009765625 70.4794921875 752.059570312 143.420898438 756.600585938 317 c 0
 762.427734375 552.506835938 614.084960938 660.170898438 469.600585938 663 c 0
 328.174804688 665.685546875 238.720703125 574 235.600585938 574 c 1
 202.600585938 625 l 0
 252.57421875 663.076171875 341.837890625 712.578125 460.600585938 712 c 0
 681 710.90234375 831.422851562 549.208007812 832.600585938 312 c 0
 833.336914062 149.983398438 781.153320312 -37.759765625 624.158203125 -41 c 0
 554.272460938 -42.470703125 498.403320312 -12.5888671875 478.600585938 51 c 1
 455.575195312 -17 386.48046875 -41.2734375 328.158203125 -41 c 0
 236.216796875 -40.5693359375 153.448242188 9.8798828125 149.600585938 128 c 0
 145.065429688 267.220703125 284.571289062 328.831054688 395.600585938 332 c 0
 467.600585938 334 484.600585938 319 484.600585938 319 c 1
 494.600585938 293 l 1
EndSplineSet
Fore
SplineSet
334 764 m 1
 373 778 l 1
 461 746 440.103515625 644.362304688 475 586 c 0
 506.456054688 538.173828125 593.485351562 530.34765625 691 566 c 1
 714 524 l 1
 638.420898438 473.866210938 477.254882812 445.194335938 421 556 c 0
 388 621 396 728 334 764 c 1
46 223 m 0
 46 408 197.407226562 521 326 521 c 1
 333 507 340 482 332 452 c 1
 213.768554688 452 106 383 106 250 c 0
 106 140 166.8515625 74 264 74 c 0
 350.400390625 74 399 131 399 218 c 1
 412 223 427 226 440 223 c 1
 440 124 497.6640625 70 573 70 c 0
 692.8359375 70 740.767578125 202.649414062 742 355 c 0
 744.040039062 607.181640625 526 734.296875 334 763 c 1
 334 779 335 795 344 811 c 1
 625.447265625 770.130859375 812 577.024414062 812 341 c 0
 812 169.357421875 753.029296875 -30 569 -30 c 0
 473.94140625 -30 412.764648438 24 409 107 c 1
 427 107 l 1
 429.135742188 31 361.853515625 -29.34375 270 -30 c 0
 132.87890625 -31 46 67 46 223 c 0
EndSplineSet
EndChar

StartChar: si_Dda
Encoding: 36 3497 40
GlifName: si_D_da
Width: 937
VWidth: 16
Flags: HMW
LayerCount: 5
Back
SplineSet
453.30859375 715.259765625 m 4
 363.974609375 715.259765625 294.026367188 684.611328125 253.13671875 660.07421875 c 5
 239.989257812 668.690429688 230.484375 705.057617188 241.440429688 728.413085938 c 5
 298.615234375 755.336914062 357.857421875 769.006835938 454.857421875 769.006835938 c 4
 682.029296875 769.006835938 868.797851562 604.587890625 868.797851562 346.625 c 4
 868.797851562 150.35546875 802.99609375 -37 634.357421875 -37 c 4
 558.641601562 -37 498.451171875 -6.0986328125 476.790039062 56 c 5
 456.432617188 -6.640625 379.590820312 -37 320.315429688 -37 c 4
 201.836914062 -37 124.760742188 40.681640625 124.760742188 161.486328125 c 4
 124.760742188 301.767578125 249.002929688 381.260742188 346.790039062 382 c 5
 337.514648438 350.391601562 l 5
 261.80859375 350.391601562 192.787109375 266.797851562 192.787109375 191.115234375 c 4
 192.787109375 103.3359375 248.630859375 66 326.9921875 66 c 4
 398.512695312 66 460.790039062 106.407226562 460.790039062 200 c 5
 467.793945312 204.268554688 492.645507812 208.076171875 499.34765625 202.6796875 c 5
 499.34765625 107.482421875 565.836914062 66 634.434570312 66 c 4
 738.844726562 66 797.977539062 187.260742188 797.977539062 359.989257812 c 4
 797.977539062 566.508789062 670.763671875 715.259765625 453.30859375 715.259765625 c 4
62.34765625 386 m 5
 476.34765625 383 l 5
 471.34765625 341 l 5
 168.34765625 341 l 5
 64.34765625 324 l 5
 53.6669921875 338.057617188 46.69921875 367.249023438 62.34765625 386 c 5
438.34765625 363 m 5
 440.51953125 373.696289062 441.575195312 383.93359375 441.575195312 393.647460938 c 4
 441.575195312 457.63671875 395.768554688 493.885742188 321.638671875 493.885742188 c 4
 315.405273438 493.885742188 308.970703125 493.59375 302.34765625 493 c 5
 255.34765625 415 l 5
 225.34765625 418 201.34765625 432 201.34765625 469 c 4
 201.34765625 536 270.34765625 560 323.34765625 560 c 4
 413.426757812 560 483.915039062 509.989257812 483.915039062 410.237304688 c 4
 483.915039062 376.047851562 477.287109375 359.739257812 471.34765625 341 c 5
 438.34765625 363 l 5
EndSplineSet
Fore
SplineSet
448.198242188 343 m 0
 457.198242188 343 447.198242188 364 455.198242188 363 c 1
 455.198242188 433 385.198242188 492 313.198242188 492 c 1
 257.198242188 411 l 1
 232.198242188 411 200.198242188 429 199.198242188 468 c 0
 198.198242188 524 255.198242188 557 314.198242188 557 c 0
 412.198242188 557 498.198242188 485 498.198242188 376 c 0
 498.198242188 342 495.198242188 334 495.198242188 334 c 1
 477.198242188 336 466.198242188 343 448.198242188 343 c 0
115.198242188 157 m 0
 117.119140625 304.461914062 252.568359375 370.981445312 359.198242188 372 c 1
 359.198242188 334 l 1
 262.393554688 334 180.198242188 277.40625 180.198242188 187 c 0
 180.198242188 116.595703125 233.491210938 62 328.198242188 62 c 0
 412.038085938 62 461.198242188 119 461.198242188 206 c 1
 474.198242188 211 489.198242188 214 502.198242188 211 c 1
 502.198242188 118.470703125 568.671875 68 641.198242188 68 c 0
 761.169921875 68 810.198242188 212.048828125 810.198242188 348 c 0
 810.198242188 595.099609375 648.348632812 715 425.198242188 715 c 0
 295.198242188 715 202.984375 655 200.198242188 655 c 1
 185.198242188 671 189.198242188 701 194.198242188 721 c 1
 241.34765625 744.630859375 316.952148438 774 431.198242188 774 c 0
 687.529296875 774 878.198242188 600.024414062 878.198242188 338 c 0
 878.198242188 175.422851562 817.137695312 -32 644.198242188 -32 c 4
 530.516601562 -32 473.33203125 28 472.198242188 105 c 1
 490.198242188 105 l 1
 492.287109375 25 416.03515625 -31.2587890625 326.198242188 -32 c 0
 204.424804688 -33.0048828125 113.639648438 37.373046875 115.198242188 157 c 0
68.1982421875 382 m 1
 488.198242188 379 l 1
 493.198242188 333 l 1
 194.198242188 333 l 1
 70.1982421875 315 l 1
 59.1982421875 330.12890625 52.1982421875 361.467773438 68.1982421875 382 c 1
EndSplineSet
EndChar

StartChar: si_Nna
Encoding: 38 3499 42
GlifName: si_N_na
Width: 1343
VWidth: 30
Flags: HMW
LayerCount: 5
Back
SplineSet
697.5 315 m 5
 695.5 478 786.5 512 836.5 512 c 4
 882.5 512 944.5 482 949.5 404 c 5
 945.5 403 l 5
 961.5 485 1031.5 516 1081.5 516 c 4
 1186.5 516 1271.5 442 1271.5 259 c 4
 1271.5 120 1221.5 -30 1065.5 -30 c 4
 986.5 -30 896.5 8 896.5 162 c 5
 915.5 170 935.5 167 943.5 162 c 5
 944.5 74 999.5 39 1055.5 39 c 4
 1139.5 39 1166.78320312 146.994140625 1168.5 238 c 4
 1171.5 397 1130.5 460 1061.5 460 c 4
 1004.5 460 974.5 388 974.5 266 c 5
 959.5 258 935.5 255 923.5 263 c 5
 922.5 381.622070312 894.497070312 447.875976562 834.5 449 c 4
 731.5 450.9296875 738.5 289.7890625 707.5 174 c 5
 697.5 315 l 5
-49.5 143 m 261
 139.5 320 799.5 746 949.5 849 c 261
 965.5 844 983.5 827 984.5 811 c 261
 866.5 730 260.5 360 56.5 187 c 261
 121.5 197 200.5 57 391.5 57 c 260
 554.5 57 645.5 175 645.5 300 c 260
 645.5 491 533.5 569 413.5 569 c 260
 279.5 569 169.5 458 169.5 357 c 260
 169.5 205 320.5 194 384.5 194 c 4
 430.5 194 466.5 226 466.5 269 c 260
 466.5 310 440.5 337 399.5 337 c 260
 358.5 337 331.5 304 331.5 263 c 260
 331.5 222 356.5 182 387.5 182 c 261
 387.5 152 l 261
 338.5 152 289.5 200 289.5 259 c 260
 289.5 328 344.5 385 413.5 385 c 260
 485.5 385 527.5 331 527.5 272 c 260
 527.5 200 474.5 137 375.5 137 c 260
 234.5 137 128.5 222 128.5 356 c 260
 128.5 515 263.5 622 420.5 622 c 260
 596.5 622 726.5 479 726.5 292 c 260
 726.5 173 660.5 -32 398.5 -32 c 260
 161.5 -32 149.5 143 46.5 143 c 260
 13.5 143 -4.5 124 -20.5 110 c 261
 -44.5 118 -53.5 132 -49.5 143 c 261
EndSplineSet
Fore
SplineSet
1103.5 581 m 1049
752.5 256 m 1,0,1
 759.923828125 446.229492188 828.099609375 512 892.5 512 c 0,2,3
 950.266601562 512 1011.65332031 464.592773438 1008.5 384 c 1,4,-1
 985.5 373 l 1,5,6
 1003.5 476.76953125 1082.25 516 1138.5 516 c 0,7,8
 1232.81738281 516 1321.5 442 1321.5 259 c 0,9,10
 1321.5 120 1271.5 -30 1115.5 -30 c 0,11,12
 1036.5 -30 946.5 8 946.5 162 c 1,13,14
 965.5 170 985.5 167 993.5 162 c 1,15,16
 994.5 74 1049.5 39 1105.5 39 c 0,17,18
 1189.5 39 1226.78515625 147.994140625 1228.5 239 c 0,19,20
 1231.38769531 392.270507812 1181.92089844 452 1115.5 452 c 0,21,22
 1055.87890625 452 1024.5 397.814453125 1024.5 306 c 1,23,24
 1009.5 281.333007812 985.5 278.333007812 973.5 293 c 1,25,26
 972.5 392.490234375 944.4921875 447.796875 884.5 449 c 0,27,28
 788.255859375 450.9296875 796.4765625 290.7890625 764.5 175 c 1,29,-1
 752.5 256 l 1,0,1
294.5 339 m 256,30,31
 294.5 489.349609375 430.821289062 574.3828125 541.5 571 c 260,32,33
 705.068359375 566 810.5 458.420898438 810.5 274 c 256,34,35
 810.5 151.370117188 719.244140625 -35 517.5 -35 c 256,36,37
 261.552734375 -35 245.359375 164 106.5 164 c 256,38,39
 87.158203125 164 76.912109375 159.508789062 59.5 154 c 1,40,-1
 92.5 169 l 1,41,42
 83.30859375 160.87109375 58.9990234375 131.4609375 53.5 122 c 257,43,44
 38.0517578125 128.515625 21.5 146.7578125 21.5 165 c 257,45,46
 76.013671875 230.5390625 211.0390625 388.530273438 348.5 533 c 0,47,48
 472.451171875 663.270507812 658.591796875 823.889648438 698.5 863 c 257,49,50
 718.72265625 863.02734375 739.5 828.850585938 739.5 814 c 257,51,52
 679.112304688 766.2890625 520.817382812 638.357421875 368.5 486 c 0,53,54
 266.96875 384.442382812 163.887695312 258.022460938 108.5 189 c 1,55,-1
 76.5 194 l 257,56,57
 87.353515625 197.819335938 99.6044921875 211.321289062 131.5 210.76953125 c 0,58,59
 261.864257812 208.512695312 289.545898438 61 500.5 61 c 256,60,61
 678.032226562 61 749.5 174.966796875 749.5 294 c 256,62,63
 749.5 438.220703125 642.025390625 505 538.5 510 c 256,64,65
 404.96484375 516.44921875 347.5 434.750976562 347.5 351 c 256,66,67
 347.5 229.654296875 446.193359375 197 496.5 197 c 0,68,69
 537.272460938 197 565.5 228.064453125 565.5 268 c 256,70,71
 565.5 294.759765625 547.88671875 314 514.5 314 c 256,72,73
 476.752929688 314 460.5 288.036132812 460.5 249 c 256,74,75
 460.5 210.061523438 482.375 185 509.5 185 c 257,76,-1
 509.5 155 l 257,77,78
 464.178710938 155 412.5 186.745117188 412.5 246 c 256,79,80
 412.5 322.711914062 460.684570312 368 521.5 368 c 256,81,82
 589.748046875 368 631.5 327 631.5 269 c 256,83,84
 631.5 211.333984375 591.543945312 140.981445312 498.5 143 c 256,85,86
 382.622070312 145.513671875 294.5 227.936523438 294.5 339 c 256,30,31
EndSplineSet
Layer: 2
SplineSet
681.5 255 m 5
 678.923828125 455.229492188 778.099609375 512 842.5 512 c 4
 900.266601562 512 961.653320312 464.592773438 958.5 384 c 5
 935.5 373 l 5
 953.5 476.76953125 1032.25 516 1088.5 516 c 4
 1182.81738281 516 1271.5 442 1271.5 259 c 4
 1271.5 120 1221.5 -30 1065.5 -30 c 4
 986.5 -30 896.5 8 896.5 162 c 5
 915.5 170 935.5 167 943.5 162 c 5
 944.5 74 999.5 39 1055.5 39 c 4
 1139.5 39 1166.78515625 146.994140625 1168.5 238 c 4
 1171.38769531 391.270507812 1131.92089844 452 1065.5 452 c 4
 1005.87890625 452 974.5 397.814453125 974.5 306 c 5
 959.5 271.333007812 935.5 258.333007812 923.5 293 c 5
 922.5 392.490234375 894.497070312 448.0859375 834.5 449 c 4
 728.255859375 450.9296875 735.4765625 289.7890625 703.5 174 c 5
 681.5 255 l 5
-69.5 153 m 261
 119.5 327.528320312 799.5 757.438476562 949.5 859 c 261
 965.5 855.041992188 983.5 833.666992188 984.5 821 c 261
 867.745117188 738.702148438 248.34765625 332.291992188 46.5 187 c 261
 109.668945312 197 205.879882812 57 391.5 57 c 260
 554.5 57 645.5 175 645.5 300 c 260
 645.5 491 529.155273438 569 404.5 569 c 260
 279.287109375 569 176.5 486.584960938 176.5 377 c 260
 176.5 234.325195312 287.467773438 224 334.5 224 c 4
 380.5 224 416.5 260.266601562 416.5 309 c 260
 416.5 350 389.3359375 377 346.5 377 c 260
 299.470703125 377 268.5 339.541015625 268.5 293 c 260
 268.5 252 299.303710938 212 337.5 212 c 261
 337.5 182 l 261
 283.5 182 229.5 238.971679688 229.5 309 c 260
 229.5 372.5234375 283.168945312 425 350.5 425 c 260
 432.60546875 425 480.5 371 480.5 312 c 260
 480.5 234.666992188 429.940429688 167 335.5 167 c 260
 217.333984375 167 128.5 240.356445312 128.5 356 c 260
 128.5 515 259.338867188 622 411.5 622 c 260
 592.676757812 622 726.5 479 726.5 292 c 260
 726.5 173 640.5 -32 398.5 -32 c 260
 161.5 -32 129.5 153 26.5 153 c 260
 -6.5 153 -24.5 134 -40.5 120 c 261
 -64.5 128 -73.5 142 -69.5 153 c 261
EndSplineSet
Layer: 3
SplineSet
691.5 255 m 5
 698.923828125 445.229492188 778.099609375 512 842.5 512 c 4
 900.266601562 512 961.653320312 464.592773438 958.5 384 c 5
 935.5 373 l 5
 953.5 476.76953125 1032.25 516 1088.5 516 c 4
 1182.81738281 516 1271.5 442 1271.5 259 c 4
 1271.5 120 1221.5 -30 1065.5 -30 c 4
 986.5 -30 896.5 8 896.5 162 c 5
 915.5 170 935.5 167 943.5 162 c 5
 944.5 74 999.5 39 1055.5 39 c 4
 1139.5 39 1166.78515625 146.994140625 1168.5 238 c 4
 1171.38769531 391.270507812 1131.92089844 452 1065.5 452 c 4
 1005.87890625 452 974.5 397.814453125 974.5 306 c 5
 959.5 271.333007812 935.5 258.333007812 923.5 293 c 5
 922.5 392.490234375 894.497070312 448.0859375 834.5 449 c 4
 728.255859375 450.9296875 735.4765625 289.7890625 703.5 174 c 5
 691.5 255 l 5
-49.5 163 m 257
 12.2138671875 236.047851562 139.048828125 378.120117188 283.5 524 c 0
 464.40234375 706.69140625 645.018554688 883.650390625 689.5 929 c 257
 715.5 929.041992188 734.5 893.666992188 734.5 871 c 257
 698.38671875 844.0859375 508.104492188 664.981445312 317.5 487 c 0
 208.553710938 385.26953125 115.36328125 283.02734375 56.5 212 c 257
 119.668945312 222 205.879882812 57 391.5 57 c 256
 554.5 57 655.5 175 655.5 300 c 256
 655.5 491 509.155273438 529 444.5 529 c 256
 319.287109375 529 256.5 426.584960938 256.5 357 c 256
 256.5 214.325195312 367.467773438 204 414.5 204 c 0
 460.5 204 502.5 232.266601562 502.5 281 c 256
 502.5 322 477.3359375 352 434.5 352 c 256
 387.470703125 352 358.5 309.541015625 358.5 263 c 256
 358.5 222 389.303710938 182 427.5 182 c 257
 427.5 152 l 257
 373.5 152 315.5 198.971679688 315.5 269 c 256
 315.5 342.5234375 372.168945312 405 439.5 405 c 256
 521.60546875 405 560.5 346 560.5 287 c 256
 560.5 209.666992188 505.940429688 142 411.5 142 c 256
 293.333984375 142 208.5 220.356445312 208.5 336 c 256
 208.5 495 319.338867188 582 441.5 582 c 256
 602.676757812 582 726.5 479 726.5 292 c 256
 726.5 173 647.5 -32 405.5 -32 c 256
 168.5 -32 149.5 163 46.5 163 c 256
 13.5 163 -4.5 144 -20.5 130 c 257
 -44.5 138 -53.5 152 -49.5 163 c 257
EndSplineSet
Layer: 4
SplineSet
284.5 335 m 260
 284.5 485.349609375 424.821289062 574.3828125 535.5 571 c 260
 699.068359375 566 796.5 457.420898438 796.5 273 c 260
 796.5 150.370117188 712.244140625 -35 510.5 -35 c 260
 254.552734375 -35 245.359375 164 106.5 164 c 260
 87.158203125 164 76.912109375 159.508789062 59.5 154 c 5
 92.5 169 l 5
 83.30859375 160.87109375 58.9990234375 131.4609375 53.5 122 c 261
 38.0517578125 128.515625 21.5 146.7578125 21.5 165 c 261
 76.013671875 230.5390625 211.0390625 388.530273438 348.5 533 c 4
 472.451171875 663.270507812 658.591796875 823.889648438 698.5 863 c 261
 718.72265625 863.02734375 730.5 831.850585938 730.5 817 c 261
 670.112304688 769.2890625 520.817382812 634.357421875 368.5 482 c 4
 266.96875 380.442382812 163.887695312 258.022460938 108.5 189 c 5
 76.5 194 l 261
 87.353515625 197.819335938 99.6044921875 211.321289062 131.5 210.76953125 c 4
 261.864257812 208.512695312 289.545898438 61 500.5 61 c 260
 678.032226562 61 738.5 173.966796875 738.5 293 c 260
 738.5 437.220703125 655.025390625 514 531.5 519 c 260
 397.918945312 524.407226562 337.5 433.750976562 337.5 350 c 260
 337.5 228.654296875 436.193359375 197 486.5 197 c 4
 527.272460938 197 555.5 228.064453125 555.5 268 c 260
 555.5 294.759765625 536.88671875 323 503.5 323 c 260
 465.752929688 323 450.5 288.036132812 450.5 249 c 260
 450.5 210.061523438 472.375 185 499.5 185 c 261
 499.5 155 l 261
 454.178710938 155 402.5 186.745117188 402.5 246 c 260
 402.5 322.711914062 449.684570312 377 510.5 377 c 260
 578.748046875 377 621.5 327 621.5 269 c 260
 621.5 211.333984375 581.543945312 140.981445312 488.5 143 c 260
 372.622070312 145.513671875 284.5 223.936523438 284.5 335 c 260
805.5 290 m 4
 805.5 257.857421875 833.944335938 235 869.5 235 c 4
 907.71875 235 931.5 266.622070312 931.5 295 c 4
 931.5 330 908.440429688 358 867.5 358 c 4
 834.77734375 358 805.5 329.23046875 805.5 290 c 4
760.5 281 m 4
 760.5 341.922851562 808.119140625 401 880.5 401 c 4
 939.048828125 401 990.5 352.400390625 990.5 293 c 4
 990.5 234.615234375 942.349609375 178 883.5 178 c 4
 811.592773438 178 760.5 224.349609375 760.5 281 c 4
945.5 356 m 5
 964.755859375 421.256835938 1022.63183594 493 1123.5 493 c 4
 1212.42773438 493 1321.5 420.151367188 1321.5 240 c 4
 1321.5 101 1273.68457031 -49 1124.5 -49 c 4
 1051.82519531 -49 946.5 0.1630859375 946.5 143 c 5
 965.5 151 985.5 148 993.5 143 c 5
 994.6875 66.94140625 1060 20 1126.5 20 c 4
 1209.01367188 20 1235.46972656 128.001953125 1237.5 219 c 4
 1240.76660156 365.427734375 1174.63183594 433 1099.5 433 c 4
 1024.59472656 433 988.5 361.327148438 988.5 313 c 5
 976.594726562 320.284179688 964.85546875 327.770507812 945.5 326 c 5
 945.5 336.916015625 945.5 338.48046875 945.5 356 c 5
EndSplineSet
EndChar

StartChar: si_Tha
Encoding: 41 3502 44
GlifName: si_T_ha
Width: 802
VWidth: 16
Flags: HMW
LayerCount: 5
Back
SplineSet
482.100585938 53 m 0
 656.561523438 53.3701171875 747.658203125 160.372070312 747.658203125 346 c 0
 747.658203125 548.7109375 588.944335938 641.901367188 455.163085938 668.212890625 c 0
 409.36328125 677.881835938 406.477539062 669.99609375 364.658203125 663 c 1
 365.658203125 731 l 1
 690.71484375 730.212890625 809.658203125 516.80859375 809.658203125 311 c 0
 809.658203125 91.0390625 679.627929688 -56.3818359375 481.100585938 -59 c 0
 288.107421875 -60.677734375 178.231445312 38.0029296875 175.100585938 176 c 0
 171.811523438 320.966796875 294.0859375 394.418945312 405.100585938 398 c 0
 467.100585938 400 507.100585938 379 507.100585938 379 c 1
 493.100585938 334 l 1
 467.100585938 346 433.100585938 352 400.100585938 350 c 0
 330.02734375 345.8515625 257.212890625 302.787109375 256.100585938 218 c 0
 255.100585938 140.005859375 319.098632812 52.2841796875 482.100585938 53 c 0
386.474609375 671.124023438 m 1
 457.658203125 680 l 1
 456.500976562 652.919921875 491.834960938 567.0546875 531.658203125 549 c 0
 607.76171875 516.365234375 646.82421875 581.057617188 703.658203125 533 c 1
 720.658203125 500 l 1
 651.793945312 518.92578125 601.15234375 455.291015625 509.658203125 485.301757812 c 0
 419.135742188 516.791992188 440.080078125 651.103515625 386.474609375 671.124023438 c 1
EndSplineSet
Fore
SplineSet
304.5 764 m 1
 343.5 778 l 1
 431.5 746 413.5 646 445.5 586 c 0
 475.5 531 558.5 522 651.5 563 c 1
 674.5 526 l 1
 601.5 479 443.5 451 391.5 556 c 0
 358.5 621 366.5 728 304.5 764 c 1
52.5 253 m 0
 52.5 432 185.5 531 317.5 531 c 1
 323.5 521 329.5 485 322.5 466 c 5
 187.5 466 109.5 389 109.5 279 c 0
 109.5 153 219.5 64 393.5 64 c 0
 588.5 64 675.5 226 677.5 376 c 0
 679.5 622 480.5 735 304.5 763 c 1
 304.5 779 299.5 795 314.5 811 c 1
 575.5 771 749.5 591 749.5 361 c 0
 749.5 131 608.5 -36 391.5 -36 c 0
 157.5 -36 52.5 108 52.5 253 c 0
EndSplineSet
EndChar

StartChar: si_Da
Encoding: 42 3503 45
GlifName: si_D_a
Width: 618
VWidth: 13
Flags: HMW
LayerCount: 5
Back
SplineSet
536.106445312 -389.28125 m 1
 392.545898438 -403.743164062 333.763671875 -298.6640625 330.015625 -231 c 4
 327.322265625 -146.361328125 383.14453125 -34.4345703125 523.015625 16 c 1
 535.015625 18.3330078125 543.015625 -0.3330078125 507.015625 2 c 1
 267.522460938 -90.2666015625 52.9150390625 -4.337890625 55.015625 165 c 0
 56.935546875 319.76171875 219.903320312 393.12109375 411.015625 394 c 0
 470.018554688 394.271484375 513.015625 385 513.015625 385 c 1
 513.015625 387.5 502.370117188 375.5 502.015625 378 c 1
 505.615234375 475 387.015625 506 332.015625 498 c 1
 276.015625 409 l 1
 230.015625 412 209.572265625 452.114257812 219.015625 488 c 0
 234.015625 545 287.015625 571 350.015625 571 c 0
 422.015625 571 520.015625 528 534.015625 444 c 0
 543.111328125 389.426757812 527.015625 345 527.015625 345 c 1
 527.015625 343 l 1
 287.473632812 364.4921875 176.551757812 306.422851562 166.015625 199 c 0
 152.364257812 59.8173828125 317.245117188 -31.3037109375 563.015625 57 c 1
 579.015625 23 l 1
 485.79296875 -18.275390625 439.576171875 -95.525390625 428.015625 -148 c 0
 412.9453125 -208.849609375 407.454101562 -324.783203125 559.374023438 -359.80859375 c 1
 536.106445312 -389.28125 l 1
EndSplineSet
Fore
SplineSet
50 183 m 0
 50 344.709960938 192.791992188 424 387 424 c 0
 460.818359375 424 513 415 513 415 c 1
 513 419.857421875 497.3125 390.747070312 498 398 c 0
 508 503.432617188 411.948242188 531.139648438 352 528 c 1
 296 439 l 1
 250.389648438 442.193359375 227 473.064453125 227 505 c 0
 227 568.360351562 286.330078125 601 357 601 c 0
 438.818359375 601 537 539 537 440 c 0
 537 400 529 376 527 373 c 1
 484.315429688 376 444.217773438 377 408 377 c 0
 235.71484375 377 141 306.219726562 141 199 c 0
 141 111.19921875 221.015625 47 358 47 c 0
 418.02734375 47 509.768554688 63.9228515625 563 91 c 1
 575 86.142578125 578 52.142578125 573 40 c 1
 473.9453125 -6.1376953125 421 -82.8603515625 421 -174 c 0
 421 -233 447 -304 559 -330 c 1
 558 -340 549 -351 536 -359 c 1
 527 -360 518 -361 510 -361 c 0
 388.47265625 -361 335 -263.590820312 335 -196 c 0
 335 -105.278320312 389.549804688 -10.373046875 523 37 c 1
 507 26 l 1
 436.4921875 -2.7373046875 368.088867188 -16 306 -16 c 0
 153.842773438 -16 50 62 50 183 c 0
EndSplineSet
Layer: 3
SplineSet
466.106445312 -399.28125 m 5
 383.345703125 -372.770507812 340.344726562 -299.50390625 338.015625 -225 c 4
 335.43359375 -142.416992188 388.942382812 -33.208984375 523.015625 16 c 5
 535.015625 18.3330078125 543.015625 -0.3330078125 507.015625 2 c 5
 267.522460938 -90.2666015625 52.9150390625 -4.337890625 55.015625 165 c 4
 56.935546875 319.76171875 219.903320312 393.12109375 411.015625 394 c 4
 470.018554688 394.271484375 513.015625 385 513.015625 385 c 5
 513.015625 387.5 502.370117188 375.5 502.015625 378 c 5
 505.615234375 475 387.015625 506 332.015625 498 c 5
 276.015625 409 l 5
 230.015625 412 209.572265625 452.114257812 219.015625 488 c 4
 234.015625 545 287.015625 571 350.015625 571 c 4
 422.015625 571 520.015625 528 534.015625 444 c 4
 543.111328125 389.426757812 527.015625 345 527.015625 345 c 5
 527.015625 343 l 5
 287.473632812 364.4921875 176.551757812 306.422851562 166.015625 199 c 4
 152.364257812 59.8173828125 317.245117188 -31.3037109375 563.015625 57 c 5
 579.015625 23 l 5
 487.028320312 -15.8623046875 441.986328125 -88.3837890625 430.015625 -138 c 4
 411.427734375 -215.045898438 426.208984375 -321.025390625 481.374023438 -369.80859375 c 5
 466.106445312 -399.28125 l 5
EndSplineSet
EndChar

StartChar: si_Dha
Encoding: 43 3504 46
GlifName: si_D_ha
Width: 861
VWidth: 16
Flags: HMW
LayerCount: 5
Back
SplineSet
398.62109375 284 m 5
 263.125 301.37890625 136.086914062 252.458984375 140.62109375 158 c 4
 143.690429688 87.791015625 231.892578125 45.1572265625 377.62109375 46 c 4
 571.62109375 47.1220703125 679.62109375 174.791015625 679.62109375 339 c 4
 679.62109375 547.71875 570.5625 679.712890625 354.62109375 677 c 4
 231.684570312 675.456054688 144.931640625 606 141.62109375 606 c 5
 109.62109375 660 l 5
 151.857421875 688.125 232 735.633789062 370.62109375 735 c 4
 578.4375 734.018554688 742.62109375 582.319335938 742.62109375 331 c 4
 742.62109375 111.353515625 611.036132812 -48.5791015625 387.62109375 -58 c 4
 205.177734375 -65.2548828125 61.970703125 8.0341796875 58.62109375 137 c 4
 54.865234375 299.32421875 252.060546875 339.377929688 366.62109375 332 c 5
 366.62109375 402 316.62109375 438 224.62109375 438 c 5
 198.62109375 357 l 5
 147.62109375 350 113.381835938 378.857421875 121.62109375 425 c 4
 131.62109375 481 189.62109375 500 236.62109375 500 c 4
 312.62109375 500 402.620117188 463 406.62109375 359 c 4
 408.004882812 323.026367188 398.62109375 284 398.62109375 284 c 5
EndSplineSet
Fore
SplineSet
41 211 m 0
 41 400.848632812 185.3203125 501 315 501 c 0
 375 501 406 482 406 482 c 1
 411.5 468.444335938 409 439.599609375 400 429 c 1
 374.475585938 440 342.29296875 445 309 445 c 0
 209.569335938 445 108 363.774414062 108 234 c 0
 108 143.193359375 165.466796875 75 262 75 c 0
 346.48046875 75 396 131 396 218 c 1
 409 223 425 226 438 223 c 1
 438 137 484.483398438 70 578 70 c 0
 696.283203125 70 753 198.173828125 753 346 c 0
 753 589.733398438 583.237304688 705 363 705 c 0
 225.94140625 705 132.936523438 633 130 633 c 1
 115 649 119 679 124 699 c 1
 175.030273438 731 253.350585938 764 377 764 c 0
 631.033203125 764 820 601.009765625 820 348 c 0
 820 160.325195312 753.822265625 -30 576 -30 c 0
 470.396484375 -30 404.861328125 31.2119140625 405 106 c 1
 424 107 l 5
 425.963867188 38 360.029296875 -28.3857421875 266 -29 c 4
 124.4140625 -29.8583984375 41 66.830078125 41 211 c 0
EndSplineSet
EndChar

StartChar: si_Nda
Encoding: 45 3507 47
GlifName: si_N_da
Width: 687
VWidth: 13
Flags: HMW
LayerCount: 5
Fore
SplineSet
55.435546875 279 m 0
 53.2080078125 458.305664062 180.4609375 601.938476562 417.435546875 601 c 0
 469.435546875 531 l 1
 364.435546875 551 l 1
 214.741210938 544.853515625 104.952148438 416.77734375 108.435546875 258 c 0
 109.625976562 195.8828125 157.245117188 111.764648438 233.435546875 82 c 1
 200.435546875 42 l 1
 118.076171875 91.0830078125 56.7490234375 173.306640625 55.435546875 279 c 0
EndSplineSet
Refer: 45 3503 N 1 0 0 1 68.436 0 2
EndChar

StartChar: si_Pha
Encoding: 47 3509 48
GlifName: si_P_ha
Width: 802
VWidth: 16
Flags: HMW
LayerCount: 5
Back
SplineSet
366.474609375 671.124023438 m 1
 437.658203125 680 l 1
 436.500976562 652.919921875 471.834960938 567.0546875 511.658203125 549 c 0
 587.76171875 516.365234375 626.82421875 581.057617188 683.658203125 533 c 1
 700.658203125 500 l 1
 631.793945312 518.92578125 581.15234375 455.291015625 489.658203125 485.301757812 c 0
 399.135742188 516.791992188 420.080078125 651.103515625 366.474609375 671.124023438 c 1
435.163085938 668.212890625 m 0
 389.36328125 677.881835938 386.477539062 669.99609375 344.658203125 663 c 1
 345.658203125 731 l 1
 670.71484375 730.212890625 789.658203125 516.80859375 789.658203125 311 c 0
 789.658203125 91.0390625 669.627929688 -50.3818359375 479.658203125 -58 c 0
 270.94921875 -65.8603515625 156.022460938 17.8017578125 152.658203125 121 c 0
 148.272460938 269.0703125 301.62890625 309.060546875 414.658203125 303 c 5
 407.658203125 375.333007812 359.658203125 419 291.658203125 408 c 5
 265.658203125 327 l 1
 219.294921875 320 188.16796875 348.857421875 195.658203125 395 c 0
 205.049804688 451 259.51953125 470 303.658203125 470 c 0
 369.658203125 470 449.657226562 443 453.658203125 339 c 0
 455.041992188 303.026367188 445.658203125 252 445.658203125 252 c 1
 317.908203125 268.000976562 225.001953125 233.91015625 225.658203125 156 c 4
 226.198242188 85.6572265625 319.706054688 50.9384765625 463.658203125 52 c 0
 636.561523438 53.2998046875 727.658203125 160.372070312 727.658203125 346 c 0
 727.658203125 548.7109375 568.944335938 641.901367188 435.163085938 668.212890625 c 0
EndSplineSet
Fore
SplineSet
319.5 412 m 5
 326.76953125 412 334.038085938 412 340.5 411 c 5
 340.5 480.33984375 280.5 516 208.5 516 c 5
 148.5 435 l 5
 125.224609375 435 95.1484375 452.993164062 94.5 492 c 4
 93.5 548 150.5 581 209.5 581 c 4
 287.5 581 383.5 532 383.5 423 c 4
 383.5 389 375.5 358 375.5 358 c 5
 357.5 360 336.5 361 318.5 361 c 5
 224.950195312 361.591796875 110.5 315.694335938 110.5 221 c 4
 110.5 126.127929688 213.130859375 74 388.5 74 c 4
 612.5 74 686.65625 226.998046875 688.5 380 c 4
 691.5 629 490.5 738 304.5 766 c 5
 298.5 780 296.5 814 309.5 824 c 5
 570.5 784 749.5 601 749.5 371 c 4
 749.5 134 611.5 -26 384.5 -26 c 4
 151.5 -26 52.5 78 52.5 193 c 4
 52.5 345.588867188 185.717773438 410.723632812 319.5 412 c 5
304.5 767 m 5
 343.5 788 l 5
 431.5 756 412.938476562 655.697265625 445.5 596 c 4
 475.5 541 558.5 532 651.5 573 c 5
 674.5 536 l 5
 601.5 489 444.541992188 461.522460938 391.5 566 c 4
 358.5 631 366.5 731 304.5 767 c 5
EndSplineSet
EndChar

StartChar: si_Ba
Encoding: 48 3510 49
GlifName: si_B_a
Width: 871
VWidth: 6
Flags: HMW
LayerCount: 5
Back
SplineSet
524.979492188 284 m 1
 389.483398438 301.37890625 262.4453125 252.458984375 266.979492188 158 c 0
 270.177734375 82.6845703125 362.102539062 39.095703125 513.979492188 40 c 0
 704.125 41.1494140625 809.979492188 165.786132812 809.979492188 334 c 0
 809.979492188 543.329101562 699.578125 679.720703125 480.979492188 677 c 0
 358.04296875 675.456054688 271.290039062 606 267.979492188 606 c 1
 235.979492188 660 l 1
 278.215820312 688.125 358.358398438 735.633789062 496.979492188 735 c 0
 707.03125 734.015625 872.979492188 585.947265625 872.979492188 334 c 0
 872.979492188 114.912109375 743.618164062 -48.603515625 523.979492188 -58 c 0
 335.991210938 -65.2548828125 188.430664062 8.0341796875 184.979492188 137 c 0
 181.223632812 299.32421875 378.418945312 339.377929688 492.979492188 332 c 1
 492.979492188 402 442.979492188 438 350.979492188 438 c 1
 324.979492188 357 l 1
 273.979492188 350 239.740234375 378.857421875 247.979492188 425 c 0
 257.979492188 481 315.979492188 500 362.979492188 500 c 0
 438.979492188 500 528.978515625 463 532.979492188 359 c 0
 534.36328125 323.026367188 524.979492188 284 524.979492188 284 c 1
EndSplineSet
Fore
SplineSet
50.5 186 m 0
 50.5 372.166015625 168.9609375 485.158203125 313.5 486 c 0
 475.428710938 486.943359375 561.196289062 367.0859375 546.5 234 c 1
 542.763671875 226.838867188 538.602539062 222.532226562 534.5 220 c 1
 491.642578125 217.407226562 449.5 187.109375 449.5 143 c 0
 449.5 99.2822265625 491.698242188 71 563.5 71 c 0
 672.588867188 71 748.853515625 171.3984375 751.5 343 c 0
 754.6640625 548.19140625 625.75 704 374.5 704 c 0
 244.728515625 704 129.5 625 129.5 625 c 1
 118.010742188 635.227539062 106.334960938 660.014648438 112.5 694 c 1
 112.5 694 215.415039062 766 388.5 766 c 0
 615.084960938 766 820.5 606.782226562 820.5 345 c 0
 820.5 132.70703125 737.966796875 -28 576.5 -28 c 0
 452.041992188 -28 393.5 51.2978515625 393.5 123 c 0
 393.5 208.002929688 455.580078125 255 508.5 267 c 1
 506.5 252 l 1
 504.334960938 342.61328125 385.427734375 400.114257812 296.5 397 c 0
 172.805664062 392.66796875 100.5 315.661132812 100.5 184 c 0
 100.5 84.40625 155.807617188 16.80859375 228.5 19 c 0
 268.118164062 20.1943359375 288.5 50.2001953125 288.5 79 c 0
 288.5 108.64453125 268.192382812 130 240.5 130 c 0
 208.1328125 130 180.5 110.385742188 180.5 63 c 0
 180.5 39.2724609375 190.534179688 12.3935546875 217.5 8 c 1
 193.5 -3 l 1
 169.163085938 -0.849609375 141.5 30.1748046875 141.5 75 c 0
 141.5 143.201171875 191.97265625 186 245.5 186 c 0
 297.745117188 186 343.5 148.959960938 343.5 87 c 0
 343.5 33.109375 300.852539062 -27 227.5 -27 c 0
 105.661132812 -27 50.5 90.2099609375 50.5 186 c 0
EndSplineSet
EndChar

StartChar: si_Bha
Encoding: 49 3511 50
GlifName: si_B_ha
Width: 1101
VWidth: 6
Flags: HMW
LayerCount: 5
Back
SplineSet
52.2685546875 373 m 5
 431.268554688 372 l 5
 426.268554688 331 l 5
 135.268554688 326 l 5
 51.2685546875 308 l 5
 52.2685546875 373 l 5
EndSplineSet
Refer: 57 3524 S 1 0 0 1 87.2688 0 2
Fore
SplineSet
53.56640625 353 m 1
 48.56640625 375 47.56640625 394 53.56640625 410 c 1
 432.56640625 410 l 1
 434.56640625 368 l 1
 138.56640625 368 l 1
 53.56640625 353 l 1
EndSplineSet
Refer: 57 3524 N 1 0 0 1 87.5664 0 2
EndChar

StartChar: si_Ma
Encoding: 50 3512 51
GlifName: si_M_a
Width: 865
VWidth: 16
Flags: HMW
LayerCount: 5
Fore
SplineSet
53.00390625 271 m 4
 52.00390625 420 137.00390625 500 204.00390625 500 c 4
 249.00390625 500 277.411132812 474.004882812 278.00390625 409 c 4
 279.071289062 285.314453125 368.946289062 260.153320312 433.00390625 261 c 4
 513.020507812 262.069335938 567.099609375 317.676757812 569.00390625 385 c 4
 570.981445312 454.809570312 514.9765625 497.209960938 450.00390625 493 c 4
 405.151367188 490.524414062 384.00390625 453.90625 384.00390625 427 c 4
 384.00390625 402 397.00390625 380 431.00390625 380 c 4
 466.00390625 380 483.00390625 411 483.00390625 438 c 4
 483.00390625 467 473.00390625 486 463.00390625 497 c 5
 493.00390625 506 l 5
 509.00390625 491 519.00390625 463 519.00390625 432 c 4
 519.00390625 377.6796875 483.717773438 335 428.00390625 335 c 4
 375.319335938 335 337.00390625 369.813476562 337.00390625 423 c 4
 337.00390625 488.401367188 389.991210938 539 462.00390625 539 c 4
 559.75390625 539 615.00390625 459.5 615.00390625 380 c 4
 615.00390625 295.03515625 561.688476562 199 434.00390625 199 c 4
 317.034179688 199 238.580078125 256.772460938 236.00390625 383 c 4
 235.00390625 432 223.00390625 447 198.00390625 447 c 4
 150.00390625 447 109.846679688 387.998046875 111.00390625 296 c 4
 113.0234375 137 260.418945312 53.142578125 428.00390625 52 c 0
 641.665039062 50.5771484375 743.244140625 196.139648438 750.00390625 354 c 0
 757.678710938 541.612304688 635.979492188 703 386.00390625 703 c 0
 261.728515625 703 177.13671875 637 174.00390625 637 c 1
 164.00390625 643 149.00390625 675 156.00390625 700 c 1
 156.00390625 700 255.514648438 763.78515625 408.00390625 760 c 0
 657.595703125 753.955078125 812.00390625 574.61328125 812.00390625 359 c 0
 812.00390625 110.678710938 653.670898438 -50 432.00390625 -50 c 0
 187.850585938 -50 54.2314453125 92.00390625 53.00390625 271 c 4
EndSplineSet
Layer: 2
SplineSet
511.4375 418 m 5
 470.388671875 386.802734375 445.764648438 320.063476562 448.4375 258 c 4
 453.94140625 130.204101562 573.432617188 60.369140625 706.4375 60 c 4
 901.43359375 59.458984375 984.729492188 192.06640625 990.4375 317 c 4
 999.4375 514 894.435546875 663.875976562 697.4375 667 c 4
 576.436523438 668.918945312 482.4375 595 479.4375 595 c 5
 461.4375 621 l 4
 461.4375 621 566.435546875 706.665039062 713.4375 706 c 4
 934.4375 705 1072.4375 549 1062.4375 312 c 4
 1053.62695312 103.185546875 930.4375 -59 709.4375 -59 c 4
 486.4375 -59 386.907226562 63.16796875 384.4375 209 c 4
 382.09765625 347.161132812 443.375 412.219726562 496.4375 451 c 4
 511.4375 450.357421875 l 5
 526.900390625 436 l 5
 524.109375 339.133789062 571.381835938 230.7109375 704.4375 230 c 4
 799.44140625 229.4921875 823.4375 298 823.4375 343 c 4
 823.4375 396.241210938 778.444335938 441.466796875 715.4375 442 c 4
 672.63671875 442.362304688 651.700195312 421.0390625 651.4375 396 c 4
 651.153320312 368.926757812 667.4375 353 696.4375 351.561523438 c 4
 754.474609375 348.682617188 741.446289062 415.986328125 742.4375 445.561523438 c 5
 742.952148438 440.146484375 781.396484375 443.584960938 769.4375 435.561523438 c 5
 785.6875 412.91796875 783.869140625 308.831054688 692.4375 310 c 4
 637.360351562 310.704101562 611.17578125 346.096679688 610.4375 385.856445312 c 4
 609.432617188 440.03125 654.4375 481 717.4375 481 c 4
 787.4375 481 868.4375 438 866.4375 334 c 4
 865.487304688 284.586914062 830.4375 184 697.4375 184 c 4
 567.225585938 184 482.586914062 277.543945312 490.4375 419 c 5
 511.4375 418 l 5
EndSplineSet
EndChar

StartChar: si_Mba
Encoding: 51 3513 52
GlifName: si_M_ba
Width: 865
VWidth: 16
Flags: HMW
LayerCount: 5
Back
SplineSet
682.331054688 -43.013671875 m 0
 850.649414062 -43.013671875 906.6015625 190.034179688 906.6015625 317.23046875 c 0
 906.6015625 538.0703125 777.10546875 743.002929688 506.830078125 743.002929688 c 0
 337.494140625 743.002929688 215.577148438 657 215.577148438 657 c 1
 250.577148438 600 l 1
 253.854492188 600 345.978515625 680.51953125 486.577148438 682 c 0
 751.358398438 684.788085938 835.870117188 534.267578125 835.870117188 325.692382812 c 4
 835.870117188 203.387695312 786.274414062 55.2900390625 670.848632812 55.2900390625 c 0
 616.751953125 55.2900390625 579.951171875 81.6787109375 576.577148438 124.466796875 c 1
 588.83984375 146.537109375 618.577148438 164.547851562 618.577148438 206 c 0
 618.577148438 242.514648438 576.616210938 273.0390625 501.826171875 273.0390625 c 0
 437.514648438 273.0390625 399.553710938 238.702148438 399.553710938 200.985351562 c 0
 399.553710938 164.037109375 423.147460938 139.123046875 443.577148438 125.828125 c 1
 427.806640625 74.7548828125 392.463867188 53.9873046875 331.228515625 53.9873046875 c 0
 243.010742188 53.9873046875 196.57421875 135.182617188 196.57421875 225.384765625 c 0
 196.57421875 328.625 237.400390625 408.010742188 305.637695312 408.010742188 c 0
 341.763671875 408.010742188 348.577148438 371.577148438 348.577148438 328 c 0
 348.577148438 285.559570312 391.823242188 226 515.0625 226 c 0
 625.016601562 226 677.81640625 310.2734375 677.81640625 377.76953125 c 0
 677.81640625 460.4921875 620.237304688 513 545.577148438 513 c 0
 461.125976562 513 428.567382812 452.721679688 428.567382812 413.915039062 c 0
 428.567382812 349.384765625 474.15234375 321.98046875 515.62890625 321.98046875 c 0
 574.938476562 321.98046875 600.79296875 371.37109375 600.79296875 418.228515625 c 0
 600.79296875 436.395507812 596.90625 454.181640625 589.577148438 468.561523438 c 1
 547.577148438 473.561523438 l 1
 558.833007812 459.3125 564.07421875 442.65625 564.07421875 427.069335938 c 0
 564.07421875 398.484375 546.520507812 373.55859375 515.954101562 373.55859375 c 0
 481.98828125 373.55859375 468.569335938 399.428710938 468.569335938 419.184570312 c 0
 468.569335938 443.725585938 491.037109375 473.001953125 529.051757812 473.001953125 c 0
 607.251953125 473.001953125 629.803710938 404.42578125 623.803710938 356.34375 c 0
 619.19140625 319.385742188 599.611328125 272.963867188 509.80859375 272.963867188 c 0
 439.689453125 272.963867188 395.396484375 296.475585938 395.396484375 350 c 0
 395.396484375 419.559570312 358.408203125 456.045898438 312.426757812 456.045898438 c 0
 215.139648438 456.045898438 128.491210938 350.512695312 128.491210938 202.122070312 c 0
 128.491210938 101.249023438 170.270507812 -42.017578125 325.4921875 -42.017578125 c 0
 417.124023438 -42.017578125 489.583007812 20.4423828125 489.583007812 149.018554688 c 0
 489.583007812 150 455.568359375 167.112304688 455.568359375 195.217773438 c 0
 455.568359375 222.396484375 498.637695312 225.1015625 511.330078125 225.1015625 c 0
 516.6484375 225.1015625 562.598632812 219.705078125 562.598632812 194.515625 c 0
 562.598632812 161.596679688 530.577148438 149 530.577148438 149 c 1
 530.413085938 144.627929688 530.33203125 140.3359375 530.33203125 136.122070312 c 0
 530.33203125 12.9931640625 599.407226562 -43.013671875 682.331054688 -43.013671875 c 0
EndSplineSet
Fore
SplineSet
105.491210938 282 m 0
 105.491210938 379.912109375 143.491210938 467 191.491210938 467 c 0
 216.491210938 467 228.491210938 452 229.491210938 403 c 0
 232.067382812 276.772460938 320.521484375 229 427.491210938 229 c 0
 545.17578125 229 608.491210938 315.03515625 608.491210938 400 c 0
 608.491210938 479.5 553.241210938 559 455.491210938 559 c 0
 383.478515625 559 330.491210938 508.401367188 330.491210938 443 c 0
 330.491210938 389.813476562 368.806640625 355 421.491210938 355 c 0
 477.205078125 355 512.491210938 397.6796875 512.491210938 452 c 0
 512.491210938 483 502.491210938 511 486.491210938 526 c 1
 456.491210938 517 l 1
 466.491210938 506 476.491210938 487 476.491210938 458 c 0
 476.491210938 431 459.491210938 400 424.491210938 400 c 0
 390.491210938 400 377.491210938 422 377.491210938 447 c 0
 377.491210938 473.90625 398.638671875 510.524414062 443.491210938 513 c 0
 508.463867188 517.209960938 564.46875 474.809570312 562.491210938 405 c 0
 560.586914062 337.676757812 506.5078125 292.069335938 426.491210938 291 c 0
 362.43359375 290.153320312 272.55859375 305.314453125 271.491210938 429 c 0
 270.8984375 494.004882812 242.491210938 520 197.491210938 520 c 0
 130.491210938 520 45.4912109375 410 47.4912109375 252 c 0
 49.2763671875 110.998046875 106.491210938 -32 263.491210938 -32 c 0
 329.491210938 -32 399.491210938 0 399.491210938 99 c 0
 399.491210938 100 363.491210938 106 363.491210938 129 c 0
 363.491210938 155 393.491210938 165 426.491210938 165 c 0
 458.491210938 165 490.491210938 155 490.491210938 129 c 0
 490.491210938 106 448.491210938 99 448.491210938 99 c 1
 445.491210938 1 503.491210938 -33 583.491210938 -33 c 0
 764.491210938 -33 819.491210938 185 817.491210938 361 c 0
 815.040039062 576.7265625 670.874023438 754.150390625 435.491210938 760 c 0
 277.560546875 763.959960938 174.491210938 700 174.491210938 700 c 1
 167.491210938 675 182.491210938 643 192.491210938 637 c 1
 195.7578125 637 283.940429688 703 413.491210938 703 c 0
 647.672851562 703 753.045898438 545.416992188 754.491210938 356 c 0
 755.491210938 225 697.491210938 65 578.491210938 65 c 0
 534.491210938 65 504.491210938 75 492.491210938 86 c 1
 511.491210938 91 541.491210938 108 541.491210938 141 c 0
 541.491210938 179 496.491210938 213 429.491210938 213 c 0
 354.491210938 213 310.491210938 177 310.491210938 137 c 0
 310.491210938 108 334.491210938 94 354.491210938 86 c 1
 339.491210938 73 315.491210938 65 279.491210938 65 c 0
 161.491210938 65 105.491210938 164 105.491210938 282 c 0
EndSplineSet
EndChar

StartChar: si_Ya
Encoding: 52 3514 53
GlifName: si_Y_a
Width: 902
VWidth: 6
Flags: HMW
LayerCount: 5
Back
SplineSet
534.0546875 366 m 1xfe
 666.288085938 410.743164062 831.0546875 353.65625 831.0546875 178 c 0
 831.0546875 41.892578125 750.36328125 -53 622.0546875 -53 c 0
 513.431640625 -53 448.95703125 13 447.0546875 108 c 1
 445.0546875 105 480.0546875 111 478.0546875 108 c 1
 471.130859375 27 415.16796875 -51.3505859375 296.0546875 -52 c 0
 149.0703125 -52.837890625 67.765625 49.0859375 67.0546875 178 c 0
 66.3125 339.895507812 178.115234375 459.76953125 310.0546875 464 c 0
 336.060546875 464.833984375 363.0546875 463 387.0546875 453 c 1
 378.0546875 388 l 5
 345.229492188 402.400390625 320.048828125 404.036132812 277.0546875 401 c 4
 208.569335938 396.028320312 127.497070312 344.875976562 129.0546875 219 c 0
 130.189453125 124.959960938 194.83203125 62.5048828125 292.0546875 61 c 0
 371.553710938 59.796875 439.78125 93 442.0546875 197 c 1
 478.0546875 197 l 1
 478.0546875 100 548.987304688 56 630.0546875 56 c 0
 734.275390625 56 769.944335938 116.850585938 771.0546875 188 c 0xfd
 772.250976562 267.428710938 711.828125 384.211914062 514.0546875 321 c 1
 509.0546875 349.743164062 506.7578125 349.853515625 505.0546875 380 c 0
 495.639648438 484.619140625 579.442382812 548.891601562 666.0546875 549 c 0
 737.259765625 549.086914062 803.0546875 514 803.0546875 434 c 0
 803.0546875 338 710.0546875 312 710.0546875 312 c 1
 684.0546875 329 l 1
 684.0546875 329 735.263671875 342.997070312 736.0546875 402 c 0
 736.698242188 449.994140625 685.15625 479.125 641.0546875 479 c 0
 590.16015625 478.870117188 544.59765625 453 539.0546875 401 c 0
 535.0546875 355 552.0546875 339 552.0546875 339 c 1
 534.0546875 366 l 1xfe
EndSplineSet
Fore
SplineSet
55.025390625 204 m 0
 52.9287109375 397.084960938 178.865234375 483.739257812 315.025390625 491 c 0
 334.025390625 492 353.025390625 490 370.025390625 486 c 1
 375.025390625 469.479492188 370.025390625 440.25 362.025390625 425 c 1
 343.692382812 431.875 326.581054688 436 307.025390625 436 c 0
 210.077148438 436 115.340820312 370.01171875 114.025390625 242 c 0
 112.922851562 142.321289062 184.661132812 74 289.025390625 74 c 0
 365.456054688 74 441.065429688 112.321289062 443.025390625 219 c 1
 448.025390625 225 467.025390625 235 482.025390625 229 c 1
 482.025390625 121.538085938 542.3359375 70 633.025390625 70 c 0
 737.647460938 70 789.810546875 148.954101562 791.025390625 229 c 0
 792.088867188 299.083984375 743.159179688 377 624.025390625 377 c 0
 595.025390625 377 562.025390625 372 524.025390625 359 c 1
 519.025390625 378.54296875 514.025390625 399.114257812 514.025390625 431 c 0
 514.025390625 530 594.432617188 589 681.025390625 589 c 0
 749.87890625 589 820.025390625 552.782226562 820.025390625 470 c 0
 820.025390625 384.088867188 728.025390625 352 728.025390625 352 c 1
 703.025390625 369 l 1
 703.025390625 369 752.025390625 389 752.025390625 448 c 0
 752.025390625 495 707.025390625 524 656.025390625 524 c 0
 603.100585938 524 554.025390625 490 554.025390625 429 c 0
 554.025390625 391.530273438 570.025390625 378 570.025390625 378 c 1
 528.025390625 393 l 1
 544.025390625 406 l 1
 573.025390625 416 602.025390625 421 632.025390625 421 c 0
 744.145507812 421 851.025390625 355 851.025390625 205 c 0
 851.025390625 69 752.03515625 -24 637.025390625 -24 c 0
 520.373046875 -24 453.69140625 35.8740234375 449.025390625 146 c 1
 449.025390625 145 450.025390625 145 452.025390625 145 c 0
 458.025390625 145 471.025390625 147 477.025390625 147 c 0
 479.025390625 147 480.107421875 146.997070312 480.025390625 146 c 0
 473.029296875 58.291015625 403.95703125 -23 284.025390625 -23 c 0
 134.336914062 -23 56.4306640625 78.1123046875 55.025390625 204 c 0
EndSplineSet
EndChar

StartChar: si_La
Encoding: 54 3517 54
GlifName: si_L_a
Width: 910
VWidth: 25
Flags: HMW
LayerCount: 5
Back
SplineSet
357.5 341 m 1
 446.166992188 336.596679688 534.833007812 339.290039062 623.5 341 c 1
 623.5 294 l 1
 357.5 294 l 1
 357.5 341 l 1
622.5 295 m 1
 550.209960938 295 539.5 262 539.5 239 c 0
 539.5 191.264648438 597.500976562 166.736328125 647.5 168 c 0
 733.0859375 170.1640625 783.5 218.852539062 783.5 300 c 0
 783.5 409.952148438 683.022460938 509.96875 508.5 510 c 0
 311.967773438 510.034179688 186.524414062 333.000976562 179.5 145 c 0
 172.034179688 -54.8193359375 282.590820312 -214.833984375 484.5 -232 c 4
 640.89453125 -245.295898438 746.864257812 -168.98046875 792.5 -115 c 0
 838.5 -172 l 0
 795.673828125 -220.060546875 667.952148438 -297.584960938 491.5 -294 c 0
 241.176757812 -288.915039062 69.2578125 -139.141601562 68.5 89 c 0
 67.564453125 370.686523438 266.369140625 564 515.5 564 c 0
 735.043945312 564 851.5 422 851.5 296 c 0
 851.5 155.9453125 764.5 83 644.5 83 c 0
 517.012695312 83 469.50390625 152.776367188 468.5 213 c 0
 467.5 273 510.5 323 550.5 327 c 1
 622.5 295 l 1
EndSplineSet
Fore
SplineSet
352.5 344 m 1
 352.478515625 360.45703125 355.004882812 376.1953125 368.5 389 c 1
 654.5 389 l 1
 653.873046875 367.072265625 649.6875 349.7109375 634.5 344 c 1
 352.5 344 l 1
50.5 142 m 0
 50.5 420.850585938 265.471679688 594 518.5 594 c 0
 749.180664062 594 857.5 457 857.5 336 c 0
 857.5 206 758.484375 135 647.5 135 c 0
 526.989257812 135 484.5 198 484.5 257 c 0
 484.5 327 537.5 363 575.5 367 c 1
 633.5 345 l 1
 556.5 345 534.5 319.515625 534.5 287 c 0
 534.5 236.375 586.141601562 215 653.5 215 c 0
 717.33984375 215 786.5 256 786.5 348 c 0
 786.5 450 705.19921875 539 516.5 539 c 0
 293.4453125 539 147.5 380.733398438 147.5 167 c 0
 147.5 -42.419921875 282.607421875 -195.208984375 514.5 -198 c 0
 669.5703125 -199.748046875 775.745117188 -130.75390625 820.5 -83 c 1
 835.5 -91.326171875 846.409179688 -113.18359375 850.5 -134 c 1
 809.224609375 -175.751953125 705.051757812 -264 508.5 -264 c 0
 227.293945312 -264 50.5 -95.2470703125 50.5 142 c 0
EndSplineSet
EndChar

StartChar: si_Sha
Encoding: 56 3521 55
GlifName: si_S_ha
Width: 1005
VWidth: 6
Flags: HMW
LayerCount: 5
Back
SplineSet
902.334960938 287.131835938 m 5x9c
 899.387695312 202.45703125 l 5
 872.8671875 208.05078125 782.361328125 180.313476562 758.004882812 144 c 0
 713.302734375 74.296875 770.693359375 25.1318359375 713.946289062 -23.029296875 c 1
 668.600585938 -14.3720703125 l 1
 708.58984375 40.443359375 654.146484375 100.857421875 698.790039062 176.172851562 c 0
 747.661132812 258.620117188 873.774414062 237.546875 902.334960938 287.131835938 c 5x9c
729.764648438 17.6123046875 m 0
 832.735351562 29.5859375 885.627929688 108.114257812 885.627929688 229.600585938 c 0
 885.627929688 353.83984375 805.364257812 445.533203125 665.942382812 445.533203125 c 0
 585.075195312 445.533203125 474.370117188 397.33203125 467.8828125 254.823242188 c 1
 417.615234375 238.01171875 l 1
 413.662109375 437.1640625 544.456054688 542.603515625 684.684570312 542.603515625 c 0xdc
 856.6484375 542.603515625 949.875 411.889648438 949.875 267.375 c 0
 949.875 101.1640625 865.114257812 -54.5166015625 693.416015625 -55.814453125 c 0
 642.540039062 -56.19921875 602.66015625 -45.9150390625 584.6875 -36.138671875 c 1
 609.45703125 40.328125 l 1
 631.021484375 24.771484375 686.092773438 12.5341796875 729.764648438 17.6123046875 c 0
140.979492188 245.841796875 m 0
 140.229492188 128.7109375 209.219726562 50.8837890625 337.004882812 47.5908203125 c 0
 443.431640625 44.8486328125 514.637695312 87.9111328125 517.004882812 160 c 0
 518.32421875 200.172851562 491.772460938 237 418.004882812 237 c 1
 469.004882812 291 l 1
 518.004882812 290 580.657226562 244.21484375 581.004882812 160 c 0
 581.456054688 47.953125 502.599609375 -55.0048828125 337.603515625 -55.0048828125 c 0
 169.696289062 -55.0048828125 83 61.9140625 83 221.564453125 c 0
 83 428.865234375 239.293945312 536 366.004882812 538 c 0
 373.884765625 462.879882812 l 0xbc
 278.920898438 462.879882812 142.064453125 415.424804688 140.979492188 245.841796875 c 0
EndSplineSet
Fore
SplineSet
405 269 m 1
 410.991210938 467.4453125 528.68359375 577 678 577 c 0
 850.014648438 577 945 440.494140625 945 298 c 0
 945 123.552734375 858.256835938 -29 678 -29 c 0
 685 28 l 0
 830.145507812 30.703125 876 152.2578125 876 269 c 0
 876 418.08203125 771.276367188 487 664 487 c 0
 555.865234375 487 454.379882812 428.76953125 448 263 c 1
 436.272460938 261.799804688 414.727539062 263.200195312 405 269 c 1
60 252 m 0
 60 456.634765625 227.0625 572.083984375 357 574 c 1
 365 555 359 520 353 511 c 1
 261.340820312 511 123.4375 447.711914062 119 279 c 0
 116.014648438 162.1953125 190.270507812 75.2666015625 326 72 c 0
 450.200195312 69.01171875 520 133.153320312 520 199 c 0
 520 256.887695312 488.875 287 430 287 c 1
 441 332 l 1
 516.131835938 333.567382812 572 280.876953125 572 198 c 0
 572 86.869140625 485.8828125 -25 328 -25 c 0
 155.854492188 -25 60 91.1943359375 60 252 c 0
668 15 m 1
 682 45.9453125 665.846679688 94.7060546875 668 136 c 0
 676 289.44140625 852 312.495117188 891 317 c 1
 891 257 l 1
 812.458984375 257 742.35546875 229.602539062 727 124 c 0
 718.484375 65.4375 732.59765625 -28.3564453125 674 -30 c 1
 659.716796875 -15.6728515625 661.901367188 -11.90234375 668 15 c 1
EndSplineSet
EndChar

StartChar: si_Ssa
Encoding: 57 3522 56
GlifName: si_S_sa
Width: 818
VWidth: 6
Flags: HMW
LayerCount: 5
Back
SplineSet
507.016601562 352 m 1xff80
 457.016601562 333 l 1
 449.016601562 358 441.528320312 375.002929688 442.016601562 417 c 0
 443.016601562 503 514.016601562 556 585.016601562 556 c 0
 658.016601562 556 710.016601562 507 710.016601562 427 c 0
 710.016601562 359 623.016601562 309 623.016601562 309 c 1
 587.016601562 326 l 1
 621.068359375 347.129882812 655.901367188 377.10546875 656.016601562 417 c 0
 656.150390625 463 622.016601562 494 573.016601562 494 c 0
 524.984375 494 480.016601562 452 480.016601562 409 c 0
 480.016601562 357 507.016601562 352 507.016601562 352 c 1xff80
124.016601562 209 m 0
 123.016601562 124 208.016601562 45 393.016601562 45 c 0
 568.016601562 45 668.467773438 127.008789062 670.016601562 216 c 0
 671.791992188 318.00390625 554.016601562 348 457.016601562 333 c 1
 477.016601562 373 l 1
 622.016601562 402 745.223632812 330.994140625 741.016601562 193 c 0xff40
 736.016601562 29 569.016601562 -59 388.016601562 -59 c 0
 194.016601562 -59 43.1591796875 32.998046875 45.0166015625 180 c 0
 47.0166015625 330.426757812 202.016601562 399.4609375 321.016601562 373 c 1
 297.016601562 345 l 1
 304.016601562 365 317.389648438 386.33203125 313.016601562 415 c 0
 304.016601562 474 244.016601562 505 176.016601562 490 c 0
 209.016601562 511 l 1
 154.016601562 409 l 1
 113.016601562 411 86.6171875 436.013671875 88.0166015625 471 c 0
 90.0166015625 521 147.016601562 557 207.016601562 557 c 0
 277.016601562 557 348.909179688 516.997070312 351.016601562 439 c 0
 352.016601562 402 346.016601562 370 337.016601562 333 c 1
 213.016601562 359 124.934570312 287.000976562 124.016601562 209 c 0
648.016601562 323 m 1
 557.806640625 270.456054688 522.510742188 251.752929688 399.016601562 246 c 0
 368.159179688 244.5625 317.151367188 242.704101562 316.016601562 200 c 0
 315.3203125 173.78515625 352.4140625 147.779296875 419.016601562 148 c 0
 457.728515625 148.127929688 499.22265625 171.149414062 499.30078125 212 c 0
 499.364257812 245.018554688 470.301757812 262.201171875 458.016601562 270 c 1
 492.016601562 290 l 1
 491.661132812 268.418945312 538.73828125 261.372070312 539.875976562 195 c 0
 540.79296875 141.533203125 483.875976562 95.91015625 389.016601562 94 c 0
 284.798828125 91.9013671875 233.958007812 135.838867188 235.016601562 190 c 0
 236.385742188 259.994140625 319.200195312 277.727539062 389.016601562 281 c 0
 547.551757812 288.431640625 574.90234375 327.166015625 621.016601562 345.561523438 c 1
 648.016601562 323 l 1
EndSplineSet
Fore
SplineSet
238.5 227 m 4
 238.5 305.956054688 338.188476562 313.998046875 417.5 317 c 4
 576.5 324.791992188 603.5 345.961914062 649.5 366 c 1
 676.5 353 l 1
 596.5 295.025390625 550.62890625 281.649414062 427.5 278 c 4
 386.624023438 277.045898438 278.5 277.045898438 278.5 236 c 4
 278.5 207.173828125 328.55859375 185 416.5 185 c 4
 458.662109375 185 536.5 200.803710938 536.5 244 c 4
 536.5 272.448242188 501.133789062 287.103515625 486.5 294 c 5
 520.5 314 l 5
 520.5 297.021484375 568.5 292.169921875 568.5 238 c 4
 568.5 179.764648438 507.885742188 130 411.5 130 c 4
 299.221679688 130 238.5 173.340820312 238.5 227 c 4
EndSplineSet
Refer: 1 3508 N 1 0 0 1 0 0 2
EndChar

StartChar: si_Ha
Encoding: 59 3524 57
GlifName: si_H_a
Width: 1016
VWidth: 6
Flags: HMW
LayerCount: 5
Back
SplineSet
314.504882812 336 m 1
 332.189453125 423.088867188 275.856445312 479.735351562 178.504882812 471 c 1
 128.504882812 389 l 1
 98.5048828125 392 74.5048828125 409 74.5048828125 446 c 0
 74.5048828125 513 146.504882812 538 199.504882812 538 c 0
 279.504882812 538 355.161132812 488.983398438 359.504882812 404 c 0
 362.071289062 353.791015625 352.504882812 331.083007812 345.504882812 309 c 1
 314.504882812 336 l 1
688.264648438 3.6123046875 m 0
 795.282226562 12.49609375 851.127929688 99.1904296875 851.127929688 236.600585938 c 0
 851.127929688 356.831054688 790.029296875 434.868164062 658.442382812 436.533203125 c 0
 577.49609375 437.557617188 438.870117188 390.266601562 452.3828125 254.823242188 c 1
 405.115234375 244.01171875 l 1
 391.162109375 427.034179688 519.956054688 542.603515625 660.184570312 542.603515625 c 0
 835.177734375 542.603515625 915.375 412.364257812 915.375 268.375 c 0
 915.375 76.21875 818.827148438 -52.93359375 644.916015625 -54.814453125 c 0
 604.041015625 -55.275390625 574.16015625 -45.9150390625 556.1875 -36.138671875 c 1
 581.95703125 29.328125 l 1
 603.521484375 13.771484375 634.608398438 -0.669921875 688.264648438 3.6123046875 c 0
107.479492188 186.841796875 m 0
 106.203125 90.6962890625 184.778320312 50.7744140625 302.504882812 46.5908203125 c 0
 367.958984375 44.2646484375 475.771484375 73.1357421875 477.504882812 155 c 0
 478.82421875 217.323242188 451.272460938 238.487304688 405.504882812 243 c 1
 448.504882812 291 l 1
 489.504882812 281.302734375 540.157226562 242.743164062 540.504882812 152 c 0
 540.956054688 37.15234375 463.099609375 -53.0048828125 298.103515625 -53.0048828125 c 0
 140.196289062 -53.0048828125 50.5 28.916015625 50.5 151.564453125 c 0
 50.5 318.865234375 193.793945312 380 340.504882812 372 c 0
 344.384765625 309.879882812 l 0
 219.420898438 329.879882812 108.938476562 286.419921875 107.479492188 186.841796875 c 0
EndSplineSet
Fore
SplineSet
412.5 269 m 1
 418.491210938 467.4453125 536.18359375 577 685.5 577 c 0
 864.514648438 577 959.5 437.494140625 959.5 295 c 0
 959.5 120.014648438 871.756835938 -30 691.5 -30 c 0
 649.037109375 -30 610.611328125 -20.5712890625 595.5 -12 c 1
 588.5 -4.94140625 584.5 30.3525390625 604.5 48 c 1
 619.0859375 39.1943359375 651.24609375 26.109375 698.5 27 c 0
 841.376953125 29.6923828125 887.5 147.749023438 887.5 264 c 0
 887.5 414.430664062 787.424804688 487 665.5 487 c 0
 560.369140625 487 461.702148438 428.76953125 455.5 263 c 1
 443.772460938 261.799804688 422.227539062 263.200195312 412.5 269 c 1
76.5 486 m 0
 76.5 543 136.5 582 209.5 582 c 0
 317.049804688 582 381.5 519.009765625 381.5 422 c 0
 381.5 383 373.5 369 367.5 349 c 1
 334.5 376 l 1
 336.5 387 337.5 384 337.5 394 c 0
 337.5 486 272.5 514 219.5 514 c 0
 192.5 514 195.5 509 188.5 508 c 1
 148.5 416 l 1
 98.5 419 76.5 449 76.5 486 c 0
56.5 177 m 0
 56.5 340.572265625 211.639648438 424.30859375 341.5 401 c 0
 347.405273438 399.940429688 356.5 398 362.5 398 c 1
 366.5 350 l 5
 345.5 357 323.5 360 304.5 360 c 0
 209.33984375 360 124.5 306.466796875 124.5 214 c 0
 124.5 124.604492188 204.293945312 69.3974609375 329.5 70 c 0
 455.618164062 70.6064453125 514.5 139 514.5 204 c 0
 514.5 258.741210938 481.825195312 288.793945312 442.5 286 c 5
 441.5 330 l 5
 521.3671875 335.823242188 572.5 268.41796875 572.5 190 c 0
 572.5 86.4912109375 501.791992188 -24 321.5 -24 c 0
 160.043945312 -24 56.5 59.271484375 56.5 177 c 0
EndSplineSet
EndChar

StartChar: si_Lla
Encoding: 60 3525 58
GlifName: si_L_la
Width: 860
VWidth: 25
Flags: HMW
LayerCount: 5
Back
SplineSet
739.169921875 316.857421875 m 1
 697.5078125 371 l 1
 693.5078125 364 l 1
 696.939453125 434.71875 669.443359375 501.544921875 598.5078125 500 c 0
 555.98046875 499.07421875 493.420898438 463.9609375 494.5078125 371 c 1
 468.5078125 369 l 1
 469.646484375 459.625976562 427.71484375 505.03515625 366.5078125 503 c 0
 306.833007812 501.1328125 276.873046875 434.89453125 276.5078125 384 c 0
 275.657226562 262.900390625 347.857421875 167.662109375 509.5078125 154.3359375 c 0
 598.850585938 145.145507812 658.303710938 163.501953125 712.5078125 197 c 1
 726.5078125 166 l 1
 664.692382812 99.427734375 595.37890625 78.2412109375 494.5078125 78.9765625 c 0
 345.221679688 80.076171875 218.209960938 173.544921875 214.5078125 359 c 0
 212.217773438 471.076171875 270.572265625 571.12109375 369.5078125 573 c 4
 481.551757812 575.44140625 500.958007812 440.340820312 482.5078125 408 c 1
 473.5078125 415 l 1
 475.202148438 469.4453125 513.633789062 572.453125 606.5078125 573 c 0
 681.869140625 573.443359375 738.607421875 522.587890625 743.5078125 418 c 0
 745.504882812 375.379882812 742.053710938 346.486328125 739.169921875 316.857421875 c 1
203.5078125 82 m 0
 177.818359375 -46.61328125 249.24609375 -214.885742188 432.5078125 -236.380859375 c 0
 567.418945312 -252.205078125 649.096679688 -209.567382812 722.5078125 -151 c 1
 756.5078125 -208 l 1
 706.73046875 -243.866210938 600.377929688 -302.046875 448.5078125 -296.19140625 c 0
 170.958984375 -285.490234375 76.560546875 -102.752929688 87.5078125 34 c 0
 110.224609375 317.774414062 364.268554688 376.5625 519.5078125 379 c 0
 619.899414062 380.576171875 677.697265625 371.364257812 724.5078125 365 c 1
 724.5078125 370 700.340820312 346 699.5078125 351 c 1
 741.5078125 423 l 0
 750.603515625 368.426757812 738.5078125 318 738.5078125 318 c 1
 738.5078125 316 l 1
 395.274414062 346.892578125 245.145507812 290.458007812 203.5078125 82 c 0
EndSplineSet
Fore
SplineSet
128.5078125 100 m 0
 130.834960938 -77.560546875 270.48828125 -211.909179688 483.5078125 -214 c 0
 641.671875 -215.50390625 744.861328125 -141.15234375 790.5078125 -93 c 1
 805.5078125 -101.326171875 816.416992188 -123.18359375 820.5078125 -144 c 1
 778.266601562 -185.751953125 671.657226562 -274 470.5078125 -274 c 0
 225.512695312 -274 41.2314453125 -157.001953125 39.5078125 69 c 0
 38.0751953125 250.844726562 134.513671875 351.313476562 235.5078125 383 c 0
 290.4765625 394.831054688 344.319335938 394 395.5078125 395 c 0
 499.975585938 397.333007812 690.274414062 400.1171875 742.5078125 396 c 1
 722.5078125 388 l 1
 722.5078125 487.778320312 679.514648438 523.006835938 621.5078125 525 c 4
 579.471679688 526.565429688 528.708007812 500.795898438 529.5078125 442 c 1
 514.174804688 438.856445312 498.840820312 440.220703125 483.5078125 449 c 1
 474.450195312 496.395507812 443.908203125 529 384.5078125 529 c 4
 325.3046875 529 273.5078125 484.678710938 273.5078125 386 c 0
 273.5078125 224.900390625 417.631835938 181.37109375 513.5078125 180 c 0
 608.436523438 178.720703125 682.515625 208.059570312 733.5078125 241 c 1
 741.487304688 231.000976562 747.1640625 213.611328125 744.5078125 200 c 1
 706.056640625 152.947265625 630.880859375 99.9296875 505.5078125 102 c 0
 358.764648438 104.422851562 223.5078125 207.434570312 223.5078125 369 c 0
 223.5078125 504.341796875 286.428710938 594 390.5078125 594 c 0
 477.387695312 594 515.5078125 520.0078125 515.5078125 479 c 0
 515.5078125 482.0625 512.840820312 484.46875 507.5078125 486 c 1
 500.5078125 489 l 1
 500.33984375 522.416015625 547.900390625 591.998046875 626.5078125 591 c 0
 739.857421875 589.587890625 789.40625 463.150390625 767.5078125 345 c 1
 709.059570312 349.6875 446.248046875 350.568359375 322.5078125 347 c 0
 172.819335938 342.68359375 127.048828125 209.112304688 128.5078125 100 c 0
EndSplineSet
EndChar

StartChar: si_Fa
Encoding: 61 3526 59
GlifName: si_F_a
Width: 952
VWidth: 6
Flags: HMW
LayerCount: 5
Back
SplineSet
383.5 -13 m 1
 354.381835938 -25.3193359375 319.134765625 -34.6181640625 268.5 -33.93359375 c 0
 128.443359375 -32.0400390625 54.5 85.7529296875 54.5 228 c 0
 54.5 384 142.5 520 278.5 522 c 0
 403.486328125 523.837890625 451.5 437 453.5 362 c 1
 455.5 365 420.5 359 422.5 362 c 1
 429.5 443 502.502929688 521.33203125 603.5 522 c 0
 754.500976562 522.999023438 816.934570312 373.00390625 817.5 254 c 0
 818.331054688 78.9990234375 729.455078125 -30.02734375 612.5 -33 c 0
 576.497070312 -33.9150390625 530.5 -27 506.5 -17 c 1
 525.5 45 l 1
 551.5 23 590.5 17 624.5 20 c 0
 684.565429688 25.2998046875 748.099609375 89.994140625 746.5 224 c 0
 745.305664062 323.990234375 698.546875 407.399414062 600.5 409 c 0
 530.5390625 410.141601562 470.5 357 468.5 273 c 1
 412.5 273 l 1
 412.5 370 342.448242188 416.880859375 272.5 414 c 0
 161.522460938 409.428710938 127.196289062 303.002929688 124.5 219 c 0
 121.329101562 120.224609375 163.103515625 20.6630859375 279.5 20 c 0
 305.912109375 19.849609375 332.151367188 22.8125 364.5 45 c 1
 383.5 -13 l 1
EndSplineSet
Fore
SplineSet
53.5 268 m 0
 53.5 430.33984375 152.258789062 572 306.5 572 c 0
 439.202148438 572 490.32421875 475.25 492.5 392 c 1
 492.5 413 491.5 413 489.5 413 c 0
 484.700195312 413 474.299804688 391 469.5 391 c 0
 467.5 391 466.415039062 391.00390625 466.5 392 c 0
 474.692382812 481.606445312 570.3671875 569 679.5 569 c 0
 834.75390625 569 898.5 420.666992188 898.5 302 c 0
 898.5 113.649414062 803.405273438 -3 674.5 -3 c 0
 639.5 -3 598.5 4 575.5 13 c 1
 574.889648438 32.650390625 576.126953125 55.71484375 594.5 71 c 1
 616.5 54.9228515625 647.5 49 677.5 49 c 0
 756.088867188 49 824.5 133.31640625 824.5 289 c 0
 824.5 387.663085938 771.465820312 471 657.5 471 c 0
 575.23046875 471 504.884765625 405.529296875 502.5 303 c 1
 461.5 303 l 1
 461.5 418.333007812 382.201171875 476 300.5 476 c 0
 172.576171875 476 122.5 353.658203125 122.5 256 c 0
 122.5 155.936656174 169.333984375 59 293.5 59 c 0
 318.560546875 59 342.65625 60.92 373.5 75 c 1
 391.611328125 51.830078125 393.8671875 35.1279296875 392.5 17 c 1
 366.026932566 5 333.881510417 -4 288.5 -4 c 4
 133.979340278 -4 53.5 118.50390625 53.5 268 c 0
EndSplineSet
EndChar

StartChar: si_Halant
Encoding: 62 3530 60
GlifName: si_H_alant
Width: 1
VWidth: -6
Flags: HMW
LayerCount: 5
Back
SplineSet
-53.5 866 m 1
 -53.5 820.333007812 -53.5 774.666992188 -53.5 729 c 1
 -37.5 708 -18.5185546875 706.276367188 -5.5 707 c 0
 12.5 708 27.5 727 24.5 767 c 0
 21.5 806 -6.5 850 -53.5 866 c 1
-75.5 685 m 1
 -75.671875 683.069335938 -55.8134765625 688.06640625 -55.927734375 686 c 1
 -58.4755859375 639.911132812 -47.1142578125 532.184570312 -38.5 514 c 1
 -97.5 514 l 1
 -104.5 565 -102.5 670 -102.5 737 c 1
 -103.5 920 l 1
 -27.5 911 87.5 868 83.5 743 c 0
 81.5 689 43.546875 657 0.5 657 c 0
 -40.5 657 -66.5 679 -75.5 685 c 1
EndSplineSet
Fore
SplineSet
-102.5 484 m 1
 -102.5 894 l 1
 -90.5 901 -77.5 896 -68.5 894 c 1
 -40.5 875 -16.5 865 11.5 851 c 0
 36.5 838 103.5 810 103.5 733 c 0
 103.5 674 60.5 647 5.5 647 c 0
 -34.5 647 -62.5 663 -71.5 675 c 1
 -55.5 676 l 1
 -55.5 671 -58.5 665 -58.5 659 c 2
 -58.5 484 l 1
 -73.5 484 -69.5 480 -102.5 484 c 1
-53.5 707 m 1
 -39.5 688 -15.5 686 -2.5 686 c 0
 23.5 686 44.5 701 44.5 735 c 0
 44.5 801 -38.5 823 -53.5 840 c 1
 -53.5 707 l 1
EndSplineSet
EndChar

StartChar: si_MatraAa
Encoding: 63 3535 61
GlifName: si_M_atraA_a
Width: 396
VWidth: 19
Flags: HMW
LayerCount: 5
Back
SplineSet
32.712890625 440 m 1
 58.712890625 419 l 1
 75.9462890625 430.538085938 110.186523438 450.502929688 156.712890625 444 c 0
 234.721679688 431.5859375 269.8671875 350.3984375 266.712890625 231 c 0
 263.685546875 124.423828125 222.677734375 26.69140625 145.712890625 17 c 0
 105.9140625 12.62109375 64.6650390625 26.9599609375 53.712890625 33 c 1
 31.712890625 7 l 1
 44.509765625 -10.5 90.583984375 -35.92578125 148.712890625 -33 c 0
 286.646484375 -26.056640625 353.500976562 122.322265625 356.712890625 234 c 0
 360.782226562 378.272460938 293.040039062 493.89453125 166.712890625 499 c 0
 115.796875 501.081054688 61.4365234375 474.416992188 32.712890625 440 c 1
EndSplineSet
Fore
SplineSet
32.712890625 43 m 1
 30.712890625 55 35.712890625 74 48.712890625 83 c 1
 69.712890625 60 102.712890625 45 144.712890625 45 c 4
 236.712890625 45 285.712890625 146 285.712890625 265 c 0
 285.712890625 383 223.712890625 488 138.712890625 488 c 0
 100.712890625 488 63.712890625 464 48.712890625 447 c 5
 38.712890625 457 33.712890625 472 38.712890625 489 c 1
 65.712890625 513 117.712890625 539 166.712890625 539 c 0
 310.712890625 539 363.712890625 410 363.712890625 272 c 0
 363.712890625 149 311.712890625 -3 156.712890625 -3 c 0
 92.712890625 -3 47.712890625 25 32.712890625 43 c 1
EndSplineSet
EndChar

StartChar: si_MatraAe
Encoding: 64 3536 62
GlifName: si_M_atraA_e
Width: 355
VWidth: 19
Flags: HMW
LayerCount: 5
Back
SplineSet
137.416992188 96 m 0x40
 122.170898438 7.5224609375 130.48046875 -89.5732421875 232.416992188 -97 c 0
 296.109375 -101.640625 327.416992188 -71.2119140625 350.416992188 -51 c 1
 371.416992188 -73 l 1
 356.53125 -116.75 284.245117188 -174.841796875 203.416992188 -173 c 0
 66.4853515625 -169.87890625 37.966796875 -73.234375 52.4169921875 40 c 0
 68.384765625 174.331054688 164.766601562 293.0390625 202.580078125 332 c 1x40
 155.845703125 329.587890625 65.490234375 326.22265625 7.4169921875 323.856445312 c 1
 8.4169921875 388.116210938 l 5x80
 31.326171875 388.107421875 219.84765625 387.998046875 253.416992188 388 c 5
 253.416992188 323 l 1
 204.29296875 285.021484375 151.484375 177.639648438 137.416992188 96 c 0x40
EndSplineSet
Fore
SplineSet
14.4169921875 373 m 1
 13.716796875 391.854492188 13.26171875 412.1953125 21.4169921875 434 c 1
 263.416992188 434 l 1
 263.8125 414.892578125 260.041992188 394.123046875 254.416992188 380 c 5
 172.916992188 302.541015625 131.416992188 193.094726562 131.416992188 70 c 4
 131.416992188 -3 160.416992188 -60 250.416992188 -60 c 4
 288.235351562 -60 319.14453125 -48 334.416992188 -40 c 5
 340.130859375 -44.5712890625 341.940429688 -62.7138671875 340.416992188 -74 c 5
 326.1484375 -95.6337890625 280.965820312 -133 210.416992188 -133 c 4
 93.5 -133 49.4169921875 -58 49.4169921875 37 c 4
 49.4169921875 194.37109375 162.416992188 351.743164062 215.416992188 397 c 1
 95.4169921875 376 l 1
 14.4169921875 373 l 1
EndSplineSet
EndChar

StartChar: si_MatraAae
Encoding: 65 3537 63
GlifName: si_M_atraA_ae
Width: 417
VWidth: 19
Flags: HMW
LayerCount: 5
Back
SplineSet
60.2421875 412 m 1xc0
 294.2421875 412 l 1xc0
 294.2421875 358 l 1
 201.2421875 324.43359375 l 5
 112.2421875 303 l 1
 50.2421875 309 l 1
 174.2421875 355.081054688 l 1
 258.2421875 372 l 1xa0
 228.2421875 364 l 1
 60.2421875 364 l 1
 60.2421875 412 l 1xc0
191.2421875 88 m 0
 172.345703125 4.6083984375 176.40625 -90.5087890625 274.2421875 -97 c 0
 337.962890625 -101.227539062 369.2421875 -71.2119140625 392.2421875 -51 c 1
 413.2421875 -73 l 1
 398.356445312 -116.75 326.0703125 -174.842773438 245.2421875 -173 c 0
 108.310546875 -169.87890625 74.46484375 -72.42578125 94.2421875 40 c 0
 113.28515625 148.252929688 213.053710938 232.37890625 264.405273438 262 c 1
 212.856445312 261.661132812 114.296875 261.188476562 50.2421875 260.856445312 c 1
 50.2421875 309.116210938 l 1
 73.1513671875 309.107421875 270.673828125 308.998046875 304.2421875 309 c 1
 304.2421875 253 l 1
 259.204101562 225.39453125 207.055664062 157.787109375 191.2421875 88 c 0
EndSplineSet
Fore
SplineSet
20.2421875 390 m 1
 20.2421875 441 l 1
 249.2421875 441 l 1
 250.2421875 423 248.2421875 406 244.2421875 388 c 1
 152.2421875 343 l 1
 90.2421875 349 l 1
 179.2421875 390 l 1
 20.2421875 390 l 1
184.2421875 60 m 4
 184.2421875 -13 216.2421875 -60 306.2421875 -60 c 0
 344.060546875 -60 374.969726562 -48 390.2421875 -40 c 1
 395.956054688 -44.5712890625 397.765625 -62.7138671875 396.2421875 -74 c 1
 381.973632812 -95.6337890625 336.791015625 -133 266.2421875 -133 c 0
 159.325195312 -133 105.2421875 -82 105.2421875 13 c 0
 105.2421875 114 190.2421875 240 254.2421875 296 c 5
 202.2421875 300 154.2421875 298 90.2421875 303 c 1
 86.626953125 309.256835938 79.9560546875 326.809570312 90.2421875 349 c 1
 113.2421875 349 263.2421875 343 300.2421875 340 c 1
 300.2421875 317 298.2421875 301 293.2421875 283 c 1
 261.2421875 260 184.2421875 156 184.2421875 60 c 4
EndSplineSet
EndChar

StartChar: si_MatraIi
Encoding: 67 3539 65
GlifName: si_M_atraI_i
Width: 0
VWidth: 2
Flags: HMW
LayerCount: 5
Back
SplineSet
-175 531 m 21
 -238 551 -281.833007812 588.24609375 -276 655 c 4
 -267 758 -129 802 12 800 c 4
 116 799 259.903320312 764.702148438 276 659 c 4
 285.955078125 593.627929688 241 543 206 529 c 13
 187 554 l 21
 210 574 224.749023438 594.73046875 215 635 c 4
 200.84375 693.477539062 78 701.96875 10 703 c 4
 -84.994140625 704.44140625 -204 706 -213 641 c 4
 -220.40625 587.510742188 -181 576 -158 566 c 13
 -175 531 l 21
EndSplineSet
Fore
SplineSet
-277 673 m 0
 -277 785 -137 830 3 830 c 0
 111 830 259 798 276 689 c 0
 277 683 277 677 277 671 c 0
 277 615 238 572 206 559 c 9
 187 584 l 17
 205 600 218 616 218 642 c 0
 218 725.262695312 89.037109375 731.837890625 10 733 c 4
 -4 733 -19 733 -34 733 c 0
 -124 733 -214 727 -214 658 c 0
 -214 615 -179 605 -158 596 c 9
 -175 561 l 17
 -234 580 -277 614 -277 673 c 0
EndSplineSet
EndChar

StartChar: si_MatraU
Encoding: 68 3540 66
GlifName: si_M_atraU_
Width: 0
VWidth: 30
Flags: HMW
AnchorPoint: "si_MaU" 317 199 mark 0
LayerCount: 5
Back
SplineSet
-103 -115 m 17
 -76.2275390625 -160 l 1
 -76.23046875 -152.99609375 -142.8125 -191.887695312 -142.809570312 -226 c 0
 -142.805664062 -272.552734375 -118.69921875 -285.247070312 -67 -285.247070312 c 1
 250 -287 l 9
 250 169 l 25
 307 169 l 25
 313 -367 l 17
 313 -367 37.0048828125 -369.6796875 -139 -370.586914062 c 0
 -219 -371 -260.244140625 -321.6015625 -261 -271 c 0
 -262.62890625 -161.938476562 -103 -115 -103 -115 c 17
EndSplineSet
Fore
SplineSet
-323 -239 m 0
 -323 -131 -165 -85 -165 -85 c 1
 -138 -130 l 2
 -138 -129 -138 -129 -139 -129 c 0
 -148 -129 -205 -165 -205 -196 c 0
 -205 -243 -181 -255 -129 -255 c 2
 267 -257 l 9
 267 199 l 25
 317 199 l 29
 323 -337 l 17
 323 -337 -26 -341 -202 -341 c 0
 -282 -341 -323 -291 -323 -239 c 0
EndSplineSet
EndChar

StartChar: si_MatraUu
Encoding: 69 3542 67
GlifName: si_M_atraU_u
Width: 0
VWidth: 30
Flags: HMW
AnchorPoint: "si_MaU" 281 199 mark 0
LayerCount: 5
Back
SplineSet
-189 -165 m 25
 -177 -251 l 25
 347 -247 l 25
 341 129 l 25
 254 129 l 25
 254 -167 l 25
 -189 -165 l 25
EndSplineSet
Fore
SplineSet
-287 -249 m 0
 -287 -157 -176 -95 -176 -95 c 1
 -143 -129 l 1
 -151 -129 -195 -171 -195 -210 c 0
 -195 -244 -172 -267 -137 -267 c 0
 -72 -267 -20 -206 64 -206 c 0
 141 -206 194 -240 234 -267 c 1
 234 199 l 25
 281 199 l 25
 287 -347 l 1
 225 -346 l 1
 173 -311 113 -280 59 -280 c 0
 -35 -280 -88 -351 -182 -351 c 0
 -252 -351 -287 -301 -287 -249 c 0
EndSplineSet
EndChar

StartChar: si_MatraR
Encoding: 70 3544 68
GlifName: si_M_atraR_
Width: 397
VWidth: 19
Flags: HMW
LayerCount: 5
Back
SplineSet
13.5 449 m 1
 33.5 419 l 1
 50.7333984375 430.538085938 84.9287109375 450.171875 131.5 444 c 0
 202.543945312 434.5859375 237.454101562 350.3984375 234.5 231 c 0
 232.173828125 126.416015625 206.185546875 33.541015625 141.5 21 c 0
 96.38671875 13.5322265625 56.5986328125 27.0791015625 30.5 43 c 1
 7.5 13 l 1
 23.09375 -5.28515625 67.83984375 -35.6494140625 140.5 -33 c 0
 283.439453125 -27.787109375 340.365234375 122.322265625 343.5 234 c 0
 347.826171875 378.272460938 291.056640625 498.89453125 141.5 499 c 0
 92.8291015625 499.034179688 40.9375 473.166992188 13.5 449 c 1
EndSplineSet
Fore
SplineSet
23.5 118 m 0
 23.5 29.2880859375 96.2109375 -10 179.5 -10 c 0
 325.232421875 -10 373.5 149.724609375 373.5 269 c 0
 373.5 428.23046875 302.52734375 569 171.5 569 c 0
 122.5 569 70.5 543 43.5 519 c 1
 63.5 489 l 1
 78.5 499 105.5 515 143.5 515 c 0
 235.413085938 515 294.5 405.909179688 294.5 265 c 0
 294.5 145.208007812 267.666992188 43 184.5 43 c 0
 143.5 43 97.5 64 97.5 121 c 4
 97.5 180 150.74609375 225 209.5 225 c 0
 251.119140625 225 290.547851562 213 324.5 190 c 1
 314.5 251 l 1
 289 261 249.086914062 266 212.5 266 c 0
 115.625976562 266 23.5 212.607421875 23.5 118 c 0
EndSplineSet
EndChar

StartChar: si_MatraE
Encoding: 71 3545 69
GlifName: si_M_atraE_
Width: 666
VWidth: 20
Flags: HMW
LayerCount: 5
Back
SplineSet
301.5 157 m 4
 243.581054688 160.048828125 213.5 204 213.5 247 c 4
 213.5 321 284.49609375 364.286132812 354.5 365 c 0
 445.500976562 365.928710938 540.037109375 304.978515625 534.5 172 c 0
 530.155273438 72 449.787109375 -44 269.5 -44 c 0
 94.51171875 -44 -6.455078125 78.4462890625 8.5 244 c 0
 24.6884765625 424.993164062 155.26953125 546 335.5 546 c 0
 457.98046875 546 524.5 489 524.5 489 c 0
 485.5 427 l 1
 483.5 427 433.251953125 479.645507812 326.5 487 c 0
 197.578125 495.052734375 76.029296875 413.663085938 66.5 284 c 0
 55.4072265625 133.064453125 167.833007812 55.640625 263.5 48 c 0
 368.229492188 39.6357421875 459.397460938 65.0263671875 475.5 174 c 0
 488.454101562 266.267578125 420.495117188 330.3359375 351.5 329 c 0
 295.44921875 328 269.5 297 269.5 263 c 0
 269.5 239 290.645507812 216.83203125 323.5 216 c 0
 359.735351562 215.200195312 379.5 236 379.5 256 c 0
 379.5 323.307617188 332.021484375 331 323.5 331 c 1
 350.5 337 383.02734375 334.682617188 384.5 333 c 0
 393.5 322.713867188 417.5 306.713867188 417.5 253 c 0
 417.5 208 377.5 153 301.5 157 c 4
EndSplineSet
Fore
SplineSet
17.5 237 m 0
 17.5 449 183.099609375 568 362.5 568 c 0
 508.10546875 568 618.416015625 489.767578125 648.5 438 c 1
 646.383789062 415.791992188 637.899414062 389.779296875 628.5 386 c 1
 628.5 386 529.443359375 510 353.5 510 c 0
 203.303710938 510 80.5 424.086914062 80.5 271 c 0
 80.5 137.369140625 175.288085938 57 313.5 57 c 4
 415.293945312 57 506.53515625 105.958984375 507.5 206 c 0
 508.2578125 285.002929688 446.5 339 383.5 339 c 0
 326.5 339 299.5 307 299.5 273 c 0
 299.5 248 314.5 218 348.5 218 c 0
 383.5 218 402.5 244 402.5 276 c 0
 402.5 323 372.5 351 363.5 351 c 1
 414.5 343 l 0
 423.5 333 444.5 317 444.5 263 c 0
 444.5 220 414.5 169 343.5 169 c 0
 280.5 169 244.5 215 244.5 260 c 0
 244.5 335 315.5 381 386.5 381 c 0
 475.983398438 381 567.5 317 567.5 193 c 0
 567.5 83.0400390625 487.866210938 -36 305.5 -36 c 0
 139.173828125 -36 17.5 81.1494140625 17.5 237 c 0
EndSplineSet
EndChar

StartChar: si_MatraLs
Encoding: 77 3551 75
GlifName: si_M_atraL_s
Width: 610
VWidth: 19
Flags: HMW
LayerCount: 5
Back
Refer: 61 3535 N 1 0 0 1 87 0 2
Fore
SplineSet
35 386 m 0
 35 269 91.3740234375 193 215 193 c 0
 287.743164062 193 367 236 367 318 c 0
 367 371.8046875 328 417 261 417 c 0
 244 417 225 413 225 413 c 1
 225 380 l 1
 285.829101562 380 311 350.461914062 311 316 c 0
 311 284.591796875 291.061523438 244 216 244 c 4
 143.909179688 244 84 290 84 398 c 0
 84 460 112 509 142 560 c 1
 132 567 112 573 94 564 c 1
 61.490234375 522 35 451 35 386 c 0
151 81 m 1
 170 7 240 -33 332 -33 c 0
 510.392578125 -33 575 112 575 287 c 0
 575 535 448 573 374 573 c 0
 266 573 200 494 200 402 c 0
 200 394 200 387 201 379 c 1
 241 379 l 1
 239 389.240234375 239 400.759765625 239 411 c 0
 239 459.75 288 516 348 516 c 0
 456 516 483 396 483 298 c 0
 483 170.166992188 457.849609375 19 335 19 c 0
 265.475585938 19 217.841796875 40.1943359375 198 90 c 1
 183.791015625 96 155.372070312 93 151 81 c 1
EndSplineSet
EndChar

StartChar: si_VI
Encoding: 387 -1 78
GlifName: si_V_I_
Width: 821
VWidth: 16
Flags: HMW
LayerCount: 5
Back
SplineSet
368.997070312 274 m 1
 222.997070312 290 117.997070312 245 121.997070312 158 c 0
 124.936523438 94.0595703125 197.99609375 55.1953125 337.997070312 56 c 0
 511.997070312 57 610.997070312 173 610.997070312 326 c 0
 672.997070312 321 l 0
 672.997070312 107 563.999023438 -56.423828125 327.997070312 -58 c 0
 171.997070312 -59.0419921875 42.3466796875 8.0439453125 38.9970703125 137 c 0
 34.9970703125 291 211.997070312 325 333.997070312 318 c 1
 343.997070312 378 296.997070312 428 204.997070312 428 c 1
 178.997070312 347 l 1
 127.997070312 340 92.9970703125 369 101.997070312 415 c 0
 111.997070312 471 169.997070312 490 216.997070312 490 c 0
 292.997070312 490 372.997070312 453 376.997070312 349 c 0
 378.380859375 313.026367188 368.997070312 274 368.997070312 274 c 1
EndSplineSet
Refer: 560 -1 S 1 0 0 1 -7.00264 0 2
Fore
SplineSet
468.997070312 613 m 0
 401.475585938 621.483398438 347.784179688 616.528320312 294.997070312 622.013671875 c 0
 213.178710938 627.884765625 136.197265625 648.096679688 125.997070312 723 c 0
 112.799804688 819.762695312 223.0234375 919 406.997070312 919 c 0
 597.576171875 919 690.997070312 827.48046875 690.997070312 737 c 0
 690.997070312 659.827148438 620.997070312 615.046875 569.997070312 616 c 1
 537.997070312 652 l 1
 585.20703125 642.03515625 623.997070312 678.233398438 623.997070312 721 c 0
 623.997070312 784.888671875 534.37890625 837 398.997070312 837 c 0
 245.065429688 837 175.723632812 800.595703125 176.997070312 742 c 4
 178.020507812 694.96484375 229.045898438 685.211914062 298.997070312 677.356445312 c 4
 347.411132812 671.919921875 413.4296875 676.581054688 482.997070312 666 c 0
 621.68359375 644.905273438 769.018554688 520.360351562 767.997070312 342 c 1
 767.997070312 116.928710938 631.279296875 -41 386.997070312 -41 c 0
 200.411132812 -41 52.9970703125 36 52.9970703125 163 c 0
 52.9970703125 305.676757812 216.3828125 361 339.997070312 361 c 0
 348.997070312 361 357.997070312 361 365.997070312 360 c 1
 365.997070312 430 305.997070312 466 233.997070312 466 c 1
 177.997070312 385 l 1
 152.997070312 385 120.694335938 402.993164062 119.997070312 442 c 0
 118.997070312 498 175.997070312 531 234.997070312 531 c 0
 312.997070312 531 408.997070312 482 408.997070312 373 c 0
 408.997070312 339 400.997070312 308 400.997070312 308 c 1
 382.997070312 310 361.997070312 311 343.997070312 311 c 0
 222.115234375 311 119.997070312 268.177734375 119.997070312 193 c 0
 119.997070312 116 218.581054688 61.212890625 394.997070312 62 c 0
 587.37890625 62.927734375 705.997070312 187 705.997070312 337 c 1
 710.06640625 493.84375 585.997070312 598.12890625 468.997070312 613 c 0
EndSplineSet
Ligature2: "si_abvs_1 subtable" si_Va si_MatraI
LCarets2: 1 0
Ligature2: "'abvs' Above Base Substitutions in Sinhala lookup 0-1" si_Va si_MatraI
EndChar

StartChar: si_SI
Encoding: 417 -1 79
GlifName: si_S_I_
Width: 912
VWidth: 6
Flags: HMW
LayerCount: 5
Back
Refer: 562 -1 N 1 0 0 1 30.9996 0 2
Refer: 6 3523 N 1 0 0 1 -0.000409919 0 2
Fore
SplineSet
192.588867188 681 m 0
 192.588867188 789.611328125 301.483398438 897 501.588867188 897 c 0
 690.969726562 897 812.588867188 800.896484375 812.588867188 690 c 0
 812.588867188 629.512695312 765.3671875 570.609375 710.588867188 569 c 1
 699.588867188 597 l 1
 737.626953125 604.47265625 763.231445312 634.458007812 762.588867188 676 c 0
 761.640625 737.379882812 653.493164062 805 499.588867188 805 c 0
 348.252929688 805 237.588867188 749.618164062 237.588867188 674 c 0
 237.588867188 634.77734375 260.838867188 605.360351562 300.588867188 596 c 1
 289.588867188 567 l 1
 227.163085938 575.696289062 192.588867188 626.890625 192.588867188 681 c 0
EndSplineSet
Refer: 6 3523 N 1 0 0 1 -0.000409919 0 2
Ligature2: "si_abvs_1 subtable" si_Sa si_MatraI
LCarets2: 1 0
Ligature2: "'abvs' Above Base Substitutions in Sinhala lookup 0-1" si_Sa si_MatraI
EndChar

StartChar: si_MatraU.alt
Encoding: 85 -1 81
GlifName: si_M_atraU_.alt
Width: 860
VWidth: 16
Flags: HMW
LayerCount: 5
Back
SplineSet
177.759765625 -218.512695312 m 4
 177.759765625 -266.21875 209.48046875 -295 281.516601562 -295 c 4
 282.994140625 -295 284.48828125 -295.02734375 286 -295 c 6
 623 -295 l 13
 615 209 l 29
 682 209 l 29
 686 -375 l 21
 222 -375 l 6
 221.638671875 -375.001953125 221.27734375 -375.001953125 220.91796875 -375.001953125 c 4
 120.701171875 -375.001953125 89.9794921875 -317.9296875 89.9794921875 -265.305664062 c 4
 89.9794921875 -158.131835938 186 -110 186 -110 c 5
 222.772460938 -135 l 5
 200.514648438 -147.05078125 177.759765625 -178.7890625 177.759765625 -218.512695312 c 4
EndSplineSet
Fore
SplineSet
99 -231 m 0
 99 -131.329101562 214 -95 214 -95 c 1
 223.44140625 -99.4765625 234.080078125 -111.609375 234 -123 c 1
 216 -133 182 -163 182 -202 c 0
 182 -243 213 -259 280 -259 c 2
 704 -262 l 1
 704 210 l 1
 752 210 l 1
 761 -330 l 1
 248 -334 l 2
 140.006835938 -334.919921875 99 -287.483398438 99 -231 c 0
EndSplineSet
EndChar

StartChar: si_MatraUu.alt
Encoding: 86 -1 82
GlifName: si_M_atraU_u.alt
Width: 0
VWidth: 30
Flags: HMW
LayerCount: 5
Fore
SplineSet
-349 -221 m 0
 -349 -145 -286 -95 -228 -78 c 1
 -217 -82.6640625 -203.666992188 -91.998046875 -202 -110 c 1
 -249 -124 -276 -158 -276 -191 c 0
 -276 -231 -240 -252 -194 -252 c 0
 -93.0458984375 -252 -23.1494140625 -193 96 -193 c 4
 182 -193 235 -211 306 -245 c 1
 306 237 l 1
 349 237 l 1
 349 -329 l 1
 331 -334 l 1
 245.954101562 -299.505859375 193.021484375 -262 86 -262 c 4
 -54.9755859375 -262 -103.821289062 -334 -221 -334 c 0
 -319 -334 -349 -277 -349 -221 c 0
EndSplineSet
EndChar

StartChar: si_Rakar.alt
Encoding: 65536 -1 84
GlifName: si_R_akar
Width: 776
VWidth: 6
Flags: HMW
LayerCount: 5
Back
SplineSet
711.5 217 m 13
 737.5 210 l 29
 737.5 210 739.291015625 163.739257812 734.5 103 c 4
 719.038085938 -88.955078125 625.283203125 -308.122070312 362.5 -309 c 4
 141.577148438 -309.663085938 34.4091796875 -199.176757812 28.5 -179 c 13
 65.5 -158 l 29
 65.5 -158 153.912109375 -207.192382812 363.5 -203 c 4
 651.986328125 -194.912109375 702.400390625 43.61328125 711.5 217 c 13
EndSplineSet
Fore
SplineSet
38.5 -169 m 5
 45.5 -155 60.5 -151 75.5 -148 c 5
 119.067382812 -181.02734375 206.201171875 -235 353.5 -235 c 4
 638.40625 -235 696.749023438 24.6201171875 705.5 247 c 13
 737.5 240 l 21
 737.5 240 737.5 231 737.5 217 c 4
 737.5 198 737.5 168 734.5 133 c 4
 719.5 -81.46875 662.5 -320 359.5 -320 c 4
 177.5 -320 63.5 -225.729492188 38.5 -169 c 5
EndSplineSet
EndChar

StartChar: si_KI
Encoding: 90 -1 86
GlifName: si_K_I_
Width: 1100
VWidth: 6
Flags: HMW
LayerCount: 5
Back
Refer: 573 -1 N 1 0 0 1 639.815 0 2
Refer: 7 3482 N 1 0 0 1 -0.184304 0 2
Fore
SplineSet
342.815429688 399 m 1
 354 626.307617188 514.591796875 870 755.815429688 870 c 0
 862.875 870 992.815429688 807.8828125 992.815429688 652 c 4
 992.815429688 561.922851562 928.853515625 492.831054688 832.815429688 494 c 1
 843.815429688 534 l 1
 892.249023438 532.983398438 934.815429688 579.693359375 934.815429688 642 c 0
 934.815429688 719.232421875 862.474609375 776 721.815429688 776 c 0
 558.813476562 776 405.467773438 643.9921875 384.815429688 409 c 1
 342.815429688 399 l 1
EndSplineSet
Refer: 7 3482 N 1 0 0 1 -0.184704 0 2
LCarets2: 1 0
Ligature2: "si_abvs_1 subtable" si_Ka si_MatraI
EndChar

StartChar: si_KIi
Encoding: 91 -1 87
GlifName: si_K_I_i
Width: 1101
VWidth: 6
Flags: HMW
LayerCount: 5
Back
Refer: 7 3482 N 1 0 0 1 -0.183819 0 2
Fore
SplineSet
1046.81542969 672 m 0
 1046.81542969 582 977.815429688 506 907.815429688 506 c 0
 853.900390625 506 809.815429688 534.208007812 809.815429688 593 c 0
 809.815429688 685.73828125 906.413085938 723.784179688 988.815429688 703 c 1
 991.815429688 658 l 1
 935.563476562 672.944335938 866.349609375 660.868164062 865.815429688 599 c 0
 865.516601562 564.39453125 884.721679688 548 909.815429688 548 c 0
 947.03125 548 980.815429688 592.729492188 981.815429688 640 c 0
 981.815429688 744.212890625 895.006835938 797 765.815429688 797 c 0
 565.786132812 797 425.147460938 626.005859375 386.815429688 439 c 1
 344.815429688 418 l 1
 353.470703125 591.684570312 533.114257812 896 800.815429688 896 c 0
 952.8203125 896 1047.81542969 814.229492188 1046.81542969 672 c 0
EndSplineSet
Refer: 7 3482 N 1 0 0 1 -0.184219 0 2
LCarets2: 1 0
Ligature2: "si_abvs_2 subtable" si_Ka si_MatraIi
EndChar

StartChar: si_KU
Encoding: 92 -1 88
GlifName: si_K_U_
Width: 1129
VWidth: 6
Flags: HMW
LayerCount: 5
Back
SplineSet
812.296875 9 m 0xbe
 922.133789062 22.0703125 957.416992188 174.231445312 931.296875 279 c 0
 901.471679688 398.631835938 776.525390625 466.868164062 641.296875 462 c 0
 542.2109375 458.697265625 465.256835938 431.771484375 371.296875 374 c 1
 354.296875 362 365.296875 367 351.296875 355 c 1
 254.296875 276 172.296875 211 72.296875 79 c 1
 72.296875 79 37.423828125 98.5439453125 43.296875 107 c 0
 143.296875 251 233.296875 322 331.296875 413 c 1
 338.296875 419 347.296875 420 354.296875 425 c 1
 452.157226562 505 572.469726562 555.573242188 688.296875 561 c 0
 878.225585938 570.465820312 1017.296875 450 1031.296875 282 c 0
 1044.85253906 112.560546875 943.936523438 -33 791.296875 -33 c 0
 812.296875 9 l 0xbe
304.296875 377 m 1
 316.296875 400 320.296875 421 319.296875 439 c 0
 317.296875 481 281.057617188 505.678710938 231.296875 501 c 0
 197.231445312 497.796875 161.296875 470 167.296875 426 c 1
 207.296875 371 l 1
 193.296875 347 170.298828125 335.022460938 148.296875 336 c 0
 103.296875 338 83.296875 369 83.296875 415 c 0
 83.296875 495 150.280273438 563.181640625 247.296875 559 c 0
 330.223632812 555.42578125 379.296875 480 352.296875 416 c 0
 337.296875 380 352.296875 404 339.296875 387 c 1
 304.296875 377 l 1
123.296875 165 m 1
 131.296875 169 140.296875 172 147.296875 172 c 0
 195.296875 173 204.296875 72 287.296875 72 c 0
 336.296875 72 386.296875 101 387.296875 197 c 1
 422.296875 197 l 0
 423.296875 94 483.293945312 71.1669921875 543.296875 72 c 0
 603.299804688 72.8330078125 654.296875 118 654.296875 194 c 0
 654.296875 273 582.296875 340 468.296875 345 c 0
 406.356445312 347.716796875 330.296875 329 297.296875 311 c 1
 351.296875 364 l 1
 364.296875 368 398.29296875 390.330078125 475.296875 391 c 0
 590.296875 392 712.296875 332 712.296875 182 c 0
 712.296875 48 637.291992188 -34.9423828125 532.296875 -36 c 0
 446.990234375 -36.859375 414.018554688 8.326171875 395.296875 49 c 1
 413.296875 49 l 1
 396.034179688 7.81640625 353.250976562 -36 288.296875 -36 c 0xde
 130.293945312 -36 176.296875 169 111.296875 130 c 0
 123.296875 165 l 1
EndSplineSet
Refer: 575 -1 S 1 0 0 1 811.297 1 2
Fore
SplineSet
95.630859375 462 m 0
 95.630859375 520.90234375 140.17578125 576 222.630859375 576 c 0
 319.693359375 576 364.532226562 494.41796875 335.630859375 418 c 0
 319.905273438 376.420898438 308.169921875 381.439453125 301.630859375 371 c 0
 259.630859375 360 l 1
 283.946289062 379.963867188 299.630859375 419.892578125 299.630859375 446 c 0
 299.630859375 488.567382812 270.3828125 510.017578125 244.630859375 510.045898438 c 0
 222.377929688 510.0703125 209.458984375 497.591796875 202.630859375 486 c 1
 181.630859375 391 l 1
 115.783203125 389.791992188 95.630859375 428.401367188 95.630859375 462 c 0
55.630859375 125 m 1
 153.782226562 255.07421875 224.604492188 331.083007812 308.630859375 407 c 0
 313.630859375 404 l 0
 386.459960938 489.192382812 528.73046875 575.91796875 661.630859375 585 c 0
 902.575195312 601.46484375 1049.69824219 440.12109375 1054.63085938 270 c 0
 1059.05859375 117.276367188 984.521484375 -27.78515625 825.630859375 -30 c 0
 831.630859375 20 l 0
 936.255859375 20 976.630859375 133.721679688 976.630859375 240 c 0
 976.630859375 427.752929688 786.666992188 504.568359375 643.630859375 497 c 0
 529.76953125 490.975585938 438.696289062 448.84765625 354.630859375 386 c 0
 343.630859375 369 l 0
 248.747070312 276.827148438 180.676757812 225.99609375 82.630859375 82 c 1
 82.630859375 82 50.111328125 96.072265625 55.630859375 125 c 1
86.630859375 93 m 1
 86.630859375 133 l 1
 108.963867188 155.665039062 119.297851562 145 141.630859375 145 c 0
 220.866210938 145 208.685546875 64 299.630859375 64 c 0
 357.641601562 64 410.651367188 119.2578125 411.630859375 204 c 1
 422.630859375 208 437.630859375 212 446.630859375 209 c 1
 447.622070312 112.71875 498.3046875 61.2978515625 561.630859375 63 c 0
 613.364257812 64.390625 652.630859375 112.572265625 652.630859375 185 c 0
 652.630859375 259.396484375 600.260742188 360 440.630859375 360 c 0
 364.887695312 360 290.427734375 330.100585938 250.630859375 308 c 1
 306.630859375 369 l 1
 318.920898438 372.70703125 396.763671875 407 475.630859375 407 c 0
 605.01953125 407 724.630859375 324.202148438 724.630859375 182 c 0
 724.630859375 56.859375 651.811523438 -28 557.630859375 -28 c 0
 468.944335938 -28 430.353515625 26.7373046875 421.630859375 68 c 1
 433.630859375 68 l 1
 428.067382812 29.4306640625 375.7578125 -26.5146484375 307.630859375 -27 c 0
 167.333007812 -28 201.602539062 105 118.630859375 105 c 0
 89.7626953125 105 99.98828125 113.400390625 86.630859375 93 c 1
EndSplineSet
Refer: 575 -1 N 1 0 0 1 903.631 -18 2
LCarets2: 1 0
Ligature2: "si_blws_1 subtable" si_Ka si_MatraU
EndChar

StartChar: si_KUu
Encoding: 93 -1 89
GlifName: si_K_U_u
Width: 1126
VWidth: 6
Flags: HMW
LayerCount: 5
Back
Refer: 7 3482 N 1 0 0 1 -12.3692 0 2
Fore
SplineSet
95.630859375 462 m 0
 95.630859375 520.90234375 140.17578125 576 222.630859375 576 c 0
 319.692382812 576 364.532226562 494.41796875 335.630859375 418 c 0
 319.905273438 376.420898438 308.169921875 381.439453125 301.630859375 371 c 0
 259.630859375 360 l 1
 283.946289062 379.963867188 299.630859375 419.892578125 299.630859375 446 c 0
 299.630859375 488.567382812 270.3828125 510.017578125 244.630859375 510.045898438 c 0
 222.377929688 510.0703125 209.458984375 497.591796875 202.630859375 486 c 1
 181.630859375 391 l 1
 115.783203125 389.791992188 95.630859375 428.401367188 95.630859375 462 c 0
55.630859375 125 m 1
 153.782226562 255.07421875 224.604492188 331.083007812 308.630859375 407 c 0
 313.630859375 404 l 0
 386.459960938 489.192382812 528.729492188 575.91796875 661.630859375 585 c 0
 902.575195312 601.46484375 1049.69824219 440.12109375 1054.63085938 270 c 0
 1059.05859375 117.276367188 984.521484375 -27.78515625 825.630859375 -30 c 0
 831.630859375 20 l 0
 936.255859375 20 976.630859375 133.721679688 976.630859375 240 c 0
 976.630859375 427.752929688 786.666992188 504.568359375 643.630859375 497 c 0
 529.76953125 490.975585938 438.696289062 448.84765625 354.630859375 386 c 0
 343.630859375 369 l 0
 248.747070312 276.827148438 180.676757812 225.99609375 82.630859375 82 c 1
 82.630859375 82 50.111328125 96.072265625 55.630859375 125 c 1
86.630859375 93 m 1
 86.630859375 133 l 1
 108.963867188 155.665039062 131.297851562 160 153.630859375 160 c 0
 232.866210938 160 218.685546875 64 309.630859375 64 c 0
 367.641601562 64 410.651367188 119.2578125 411.630859375 204 c 1
 422.630859375 208 437.630859375 212 446.630859375 209 c 1
 447.622070312 112.71875 498.3046875 61.2978515625 561.630859375 63 c 0
 613.364257812 64.390625 652.630859375 112.572265625 652.630859375 185 c 0
 652.630859375 259.396484375 600.260742188 360 440.630859375 360 c 0
 364.887695312 360 290.427734375 330.100585938 250.630859375 308 c 1
 306.630859375 369 l 1
 318.920898438 372.70703125 396.763671875 407 475.630859375 407 c 0
 605.01953125 407 724.630859375 324.202148438 724.630859375 182 c 0
 724.630859375 56.859375 651.811523438 -28 557.630859375 -28 c 0
 468.944335938 -28 430.353515625 26.7373046875 421.630859375 68 c 1
 433.630859375 68 l 1
 428.067382812 29.4306640625 385.7578125 -26.5146484375 317.630859375 -27 c 0
 177.333007812 -28 213.602539062 120 130.630859375 120 c 0
 101.762695312 120 99.98828125 113.400390625 86.630859375 93 c 1
EndSplineSet
Refer: 645 -1 N 1 0 0 1 553.63 -8 2
LCarets2: 1 0
Ligature2: "si_blws_3 subtable" si_Ka si_MatraUu
EndChar

StartChar: si_Kh.halant
Encoding: 99 -1 95
GlifName: si_K_h.halant
Width: 871
VWidth: 6
Flags: HMW
LayerCount: 5
Back
Refer: 28 3483 N 1 0 0 1 -14.5 0 2
Fore
SplineSet
199.5 844 m 0
 199.5 844 265.961914062 886.249023438 383.5 885 c 0
 791.557617188 880.6640625 818.5 521.135742188 818.5 374 c 1
 773.5 474 l 1
 773.5 474 769.528320312 810.99609375 378.5 821 c 0
 340.499023438 821.96484375 319.5 818 319.5 818 c 1
 331.5 852 l 1
 318.5 788 294.5 703 192.5 662 c 1
 167.5 687 l 1
 264.5 725 281.5 833 288.5 858 c 1
 300.5 816 l 1
 247.336914062 801.810546875 247.336914062 800.865234375 203.5 781 c 1
 195.5 788 193.5 818 199.5 844 c 0
820.5 344 m 1
 820.5 126 722.5 -25 556.5 -25 c 0
 491.5 -25 434.5 7 430.5 48 c 1
 459.5 34 l 1
 447.5 12 437.5 -4 403.5 -62 c 1
 373.5 -41 l 1
 408.260742188 19 481.145507812 146.017578125 475.5 238 c 0
 469.327148438 338.579101562 391.5 397 295.5 397 c 0
 183.21484375 397 100.5 315.661132812 100.5 184 c 0
 100.5 84.40625 155.807617188 16.80859375 228.5 19 c 0
 268.118164062 20.1943359375 288.5 50.2001953125 288.5 79 c 0
 288.5 108.64453125 268.192382812 130 240.5 130 c 0
 208.1328125 130 180.5 110.385742188 180.5 63 c 0
 180.5 39.2724609375 190.534179688 12.3935546875 217.5 8 c 1
 193.5 -3 l 1
 169.163085938 -0.849609375 141.5 30.1748046875 141.5 75 c 0
 141.5 143.201171875 191.97265625 186 245.5 186 c 0
 297.745117188 186 343.5 148.959960938 343.5 87 c 0
 343.5 33.109375 300.852539062 -27 227.5 -27 c 0
 105.661132812 -27 50.5 90.2099609375 50.5 186 c 0
 50.5 372.166015625 168.96484375 484.610351562 313.5 486 c 0
 417.5 487 536.5 420 536.5 254 c 0
 536.5 174 493.5 98 466.5 60 c 1
 476.5 123 l 1
 489.5 90 509.5 71 559.5 71 c 0
 660.5 71 749.5 180 750.5 343 c 1
 753.891601562 542.500976562 632.385742188 694 394.5 694 c 0
 280.619140625 694 179.5 625 179.5 625 c 1
 168.010742188 633.745117188 156.334960938 654.940429688 162.5 684 c 1
 162.5 684 254.228515625 756 408.5 756 c 0
 624.594726562 756 820.5 590.5546875 820.5 344 c 1
EndSplineSet
LCarets2: 1 0
Ligature2: "si_halant_1 subtable" si_Kha si_Halant
EndChar

StartChar: si_KhI
Encoding: 100 -1 96
GlifName: si_K_hI_
Width: 871
VWidth: 6
Flags: HMW
LayerCount: 5
Back
Refer: 28 3483 N 1 0 0 1 0 0 2
Fore
SplineSet
820.5 344 m 1
 820.5 606.782226562 615.084960938 766 388.5 766 c 0
 215.415039062 766 112.5 694 112.5 694 c 1
 106.334960938 660.014648438 118.010742188 635.227539062 129.5 625 c 1
 129.5 625 244.728515625 704 374.5 704 c 0
 625.75 704 754.08203125 548.184570312 750.5 343 c 1
 749.5 180 660.5 71 559.5 71 c 0
 509.5 71 489.5 90 476.5 123 c 1
 466.5 60 l 1
 493.5 98 536.5 174 536.5 254 c 0
 536.5 420 417.5 487 313.5 486 c 0
 168.9609375 485.158203125 50.5 372.166015625 50.5 186 c 0
 50.5 90.2099609375 105.661132812 -27 227.5 -27 c 0
 300.852539062 -27 343.5 33.109375 343.5 87 c 0
 343.5 148.959960938 297.745117188 186 245.5 186 c 0
 191.97265625 186 141.5 143.201171875 141.5 75 c 0
 141.5 30.1748046875 169.163085938 -0.849609375 193.5 -3 c 1
 217.5 8 l 1
 190.534179688 12.3935546875 180.5 39.2724609375 180.5 63 c 0
 180.5 110.385742188 208.1328125 130 240.5 130 c 0
 268.192382812 130 288.5 108.64453125 288.5 79 c 0
 288.5 50.2001953125 268.118164062 20.1943359375 228.5 19 c 0
 155.807617188 16.80859375 100.5 84.40625 100.5 184 c 0
 100.5 315.661132812 183.21484375 397 295.5 397 c 0
 391.5 397 469.327148438 338.579101562 475.5 238 c 0
 480.84765625 146 408.260742188 19 373.5 -41 c 1
 403.5 -62 l 1
 437.5 -4 447.5 12 459.5 34 c 1
 430.5 48 l 1
 434.5 7 491.5 -25 556.5 -25 c 0
 722.5 -25 820.5 126 820.5 344 c 1
EndSplineSet
LCarets2: 1 0
Ligature2: "si_abvs_1 subtable" si_Kha si_MatraI
EndChar

StartChar: si_GI
Encoding: 109 -1 105
GlifName: si_G_I_
Width: 986
VWidth: 6
Flags: HMW
LayerCount: 5
Back
SplineSet
369 706 m 4
 369 818.994140625 466.952814867 925 650 925 c 4
 843.120074465 925 949 815.041474654 949 702 c 4
 949 615.064516129 900.209302326 549.580645161 810 527 c 5
 792 561 l 5
 792 561 876 574.365591398 876 674 c 4
 876 750.37195122 792.946087914 839.370415979 618 841 c 4
 510.39308469 842.002334558 428 783.473632812 428 702 c 4
 428 618.734375 495.703125 575.326171875 700 587 c 5
 706 549 l 5
 661.032226562 549.208007812 600.69921875 548.07421875 565.001953125 550.350585938 c 5
 437.711914062 550.643554688 369 618.58203125 369 706 c 4
EndSplineSet
Refer: 29 3484 S 1 0 0 1 0 8 2
Fore
SplineSet
352.5 692 m 4
 352.5 828 478.509765625 899 643.5 899 c 4
 816.571289062 899 910.5 808 910.5 698 c 4
 910.5 619.98046875 844.5 545 781.5 545 c 5
 753.5 569 l 5
 753.5 569 857.5 577.141601562 857.5 684 c 4
 857.5 769 742.426757812 807.225585938 626.5 808 c 4
 476.73828125 809 404.5 759 404.5 687 c 4
 404.5 597 515.62109375 563 648.5 564 c 5
 644.5 522 l 5
 439.616210938 523 352.5 595 352.5 692 c 4
EndSplineSet
Refer: 29 3484 N 1 0 0 1 0 8 2
LCarets2: 1 0
Ligature2: "si_abvs_1 subtable" si_Ga si_MatraI
EndChar

StartChar: si_GU
Encoding: 111 -1 107
GlifName: si_G_U_
Width: 959
VWidth: 6
Flags: HMW
LayerCount: 5
Back
SplineSet
647.259765625 8.6123046875 m 0xee
 780.23046875 0.5859375 838.123046875 108.114257812 838.123046875 229.600585938 c 0
 838.123046875 353.83984375 757.859375 445.533203125 618.4375 445.533203125 c 0
 537.5703125 445.533203125 426.865234375 397.33203125 420.377929688 254.823242188 c 1
 370.110351562 238.01171875 l 1
 366.157226562 437.1640625 496.951171875 542.603515625 637.1796875 542.603515625 c 0
 809.143554688 542.603515625 902.370117188 411.889648438 902.370117188 267.375 c 0
 902.370117188 101.1640625 828.609375 -54.5166015625 645.911132812 -45.814453125 c 4
 647.259765625 8.6123046875 l 0xee
93.474609375 245.841796875 m 0
 92.724609375 128.7109375 161.71484375 50.8837890625 289.5 47.5908203125 c 0
 395.926757812 44.8486328125 467.1328125 87.9111328125 469.5 160 c 0
 470.819335938 200.172851562 444.267578125 237 370.5 237 c 1
 421.5 291 l 1
 470.5 290 533.15234375 244.21484375 533.5 160 c 0
 533.951171875 47.953125 455.094726562 -55.0048828125 290.098632812 -55.0048828125 c 0
 122.19140625 -55.0048828125 35.4951171875 61.9140625 35.4951171875 221.564453125 c 0
 35.4951171875 428.865234375 191.7890625 536 318.5 538 c 0
 326.379882812 462.879882812 l 0xde
 231.416015625 462.879882812 94.5595703125 415.424804688 93.474609375 245.841796875 c 0
EndSplineSet
Refer: 575 -1 N 1 0 0 1 646.5 1 2
Fore
SplineSet
35.5 252 m 0
 35.5 459 191.5 566 318.5 568 c 1
 318.5 493 l 1
 223.5 493 93.5 445 93.5 274 c 0
 93.5 155 166.5 77 299.5 77 c 0
 400.5 77 469.5 121 469.5 193 c 0
 469.5 232 442.5 267 370.5 267 c 1
 421.5 321 l 1
 470.5 320 533.5 274 533.5 189 c 0
 533.5 77 455.5 -25 290.5 -25 c 0
 122.5 -25 35.5 92 35.5 252 c 0
372.5 269 m 1
 372.5 462 499.5 573 637.5 573 c 0
 809.5 573 902.5 442 902.5 297 c 0
 902.5 135 832.5 -16 660.5 -16 c 0
 655.5 -16 650.5 -16 645.5 -16 c 5
 645.5 39 l 1
 650.5 39 656.5 38 661.5 38 c 0
 784.5 38 838.5 143 838.5 260 c 0
 838.5 384 757.5 476 618.5 476 c 0
 537.5 476 426.5 428 420.5 285 c 1
 372.5 269 l 1
EndSplineSet
Refer: 575 -1 N 1 0 0 1 646.5 1 2
LCarets2: 1 0
Ligature2: "si_blws_1 subtable" si_Ga si_MatraU
EndChar

StartChar: si_NgI
Encoding: 129 -1 125
GlifName: si_N_gI_
Width: 1088
VWidth: 6
Flags: HMW
LayerCount: 5
Fore
SplineSet
450.01953125 715 m 0
 450.01953125 830.032226562 554.263671875 925 731.01953125 925 c 0
 914.139648438 925 1025.01953125 825.041015625 1025.01953125 712 c 0
 1025.01953125 615.064453125 946.228515625 539.581054688 866.01953125 537 c 1
 858.01953125 571 l 1
 879.01953125 571 950.280273438 596.732421875 952.01953125 681 c 0
 953.501953125 752.814453125 878.969726562 831.66796875 724.01953125 833 c 0
 602.0859375 834.043945312 509.01953125 782.1171875 509.01953125 703 c 0
 509.01953125 611.01171875 622.395507812 574.103515625 771.01953125 587 c 1
 777.01953125 549 l 1
 743.071289062 548.7109375 689.971679688 546.111328125 663.021484375 544.350585938 c 1
 540.706054688 544.67578125 450.01953125 617.91015625 450.01953125 715 c 0
EndSplineSet
Refer: 32 3487 S 1 0 0 1 0.0003554 0 2
LCarets2: 1 0
Ligature2: "si_abvs_1 subtable" si_Nga si_MatraI
EndChar

StartChar: si_C.halant
Encoding: 136 -1 132
GlifName: si_C_.halant
Width: 862
VWidth: 16
Flags: HMW
LayerCount: 5
Back
Refer: 5 3488 N 1 0 0 1 1.25034 0 2
Fore
SplineSet
-507.18359375 787 m 1048
EndSplineSet
Refer: 5 3488 N 1 0 0 1 1.25034 0 2
Refer: 576 -1 N 1 0 0 1 83.8168 0 2
Ligature2: "si_halant_1 subtable" si_Ca si_Halant
EndChar

StartChar: si_CI
Encoding: 137 -1 133
GlifName: si_C_I_
Width: 862
VWidth: 16
Flags: HMW
LayerCount: 5
Back
Refer: 5 3488 N 1 0 0 1 -0.517024 0 2
Fore
SplineSet
825.049804688 345 m 1
 825.049804688 106 680.873046875 -41 425.049804688 -41 c 0
 244.049804688 -41 101.049804688 36 101.049804688 163 c 0
 101.049804688 310 264.435546875 367 388.049804688 367 c 0
 397.049804688 367 406.049804688 367 414.049804688 366 c 1
 414.049804688 436 354.049804688 472 282.049804688 472 c 1
 226.049804688 391 l 1
 201.049804688 391 169.049804688 409 168.049804688 448 c 0
 167.049804688 504 224.049804688 537 283.049804688 537 c 0
 361.049804688 537 457.049804688 488 457.049804688 379 c 0
 457.049804688 345 449.049804688 314 449.049804688 314 c 1
 431.049804688 316 410.049804688 317 392.049804688 317 c 0
 270.166992188 317 168.049804688 272 168.049804688 193 c 0
 168.049804688 116 263.048828125 61.12109375 433.049804688 62 c 0
 628.421875 63.009765625 763.049804688 170.36328125 764.049804688 341 c 1
 770.6953125 599.96484375 569.659179688 660.3984375 347.049804688 656.013671875 c 0
 264.071289062 654.37890625 182.692382812 669.040039062 176.049804688 753 c 0
 167.560546875 860.2890625 281.076171875 949 465.049804688 949 c 0
 655.62890625 949 745.049804688 853.48046875 745.049804688 763 c 0
 745.049804688 687.102539062 675.049804688 643.063476562 624.049804688 644 c 1
 592.049804688 681 l 1
 639.259765625 659.681640625 678.049804688 705.491210938 678.049804688 747 c 0
 678.049804688 810.888671875 592.431640625 867 457.049804688 867 c 0
 303.118164062 867 229.775390625 830.595703125 231.049804688 772 c 4
 232.072265625 724.96484375 282.7734375 703.348632812 353.049804688 707.356445312 c 4
 600.883789062 721.491210938 828.314453125 637.344726562 825.049804688 345 c 1
41.0498046875 309 m 1
 36.0498046875 331 35.0498046875 351 41.0498046875 367 c 1
 420.049804688 367 l 1
 422.049804688 324 l 1
 126.049804688 324 l 1
 41.0498046875 309 l 1
EndSplineSet
LCarets2: 1 0
Ligature2: "si_abvs_1 subtable" si_Ca si_MatraI
EndChar

StartChar: si_ChU
Encoding: 149 -1 145
GlifName: si_C_hU_
Width: 855
VWidth: 6
Flags: HMW
LayerCount: 5
Back
Refer: 33 3489 N 1 0 0 1 0.000130067 0 2
Fore
SplineSet
54.4306640625 -231 m 0
 54.4306640625 -131.329101562 169.430664062 -95 169.430664062 -95 c 1
 178.872070312 -99.4765625 189.510742188 -111.609375 189.430664062 -123 c 1
 171.430664062 -133 137.430664062 -163 137.430664062 -202 c 0
 137.430664062 -243 168.43359375 -258.546875 235.430664062 -259 c 2
 679.430664062 -262 l 1
 679.430664062 190 l 1
 727.430664062 190 l 1
 736.430664062 -330 l 1
 203.430664062 -334 l 2
 95.4365234375 -334.810546875 54.4306640625 -287.483398438 54.4306640625 -231 c 0
EndSplineSet
Refer: 33 3489 N 1 0 0 1 0.000130067 0 2
LCarets2: 1 0
Ligature2: "si_blws_1 subtable" si_Cha si_MatraU
EndChar

StartChar: si_J.halant
Encoding: 151 -1 147
GlifName: si_J_.halant
Width: 841
VWidth: 6
Flags: HMW
LayerCount: 5
Back
Refer: 34 3490 N 1 0 0 1 -4.24996 0 2
Fore
SplineSet
430.154296875 444 m 1
 430.154296875 924 l 5
 442.154296875 931 447.154296875 926 456.154296875 924 c 5
 484.154296875 905 508.379882812 895.442382812 536.154296875 881 c 4
 561.154296875 868 628.154296875 840 628.154296875 763 c 4
 628.154296875 704 585.154296875 677 530.154296875 677 c 4
 490.154296875 677 462.154296875 693 453.154296875 705 c 5
 469.154296875 706 l 5
 469.154296875 701 466.154296875 695 466.154296875 689 c 6
 466.154296875 394 l 1
 451.154296875 394 463.154296875 440 430.154296875 444 c 1
471.154296875 737 m 5
 485.154296875 718 509.154296875 716 522.154296875 716 c 4
 548.154296875 716 569.154296875 731 569.154296875 765 c 4
 569.154296875 831 486.154296875 853 471.154296875 870 c 5
 471.154296875 737 l 5
EndSplineSet
Refer: 34 3490 N 1 0 0 1 -4.24996 0 2
LCarets2: 1 0
Ligature2: "si_halant_1 subtable" si_Ja si_Halant
EndChar

StartChar: si_JI
Encoding: 152 -1 148
GlifName: si_J_I_
Width: 841
VWidth: 6
Flags: HMW
LayerCount: 5
Back
Refer: 34 3490 N 1 0 0 1 -4.24996 0 2
Fore
SplineSet
538.154296875 545 m 1
 481.2421875 543.436523438 354.434570312 564.110351562 353.666992188 705 c 0
 352.995117188 828.041992188 461.125976562 930.4453125 585.76171875 930.4453125 c 0
 684.139648438 930.4453125 727.65625 868.206054688 727.65625 813.780273438 c 0
 727.65625 736.600585938 673.040039062 686.86328125 633.8046875 686.86328125 c 4
 644.16015625 737.447265625 l 5
 656.95703125 737.447265625 671.553710938 756.709960938 671.553710938 795.874023438 c 0
 671.553710938 826.049804688 662.858398438 866.889648438 582.985351562 866.889648438 c 0
 477.646484375 866.889648438 406.224609375 791.485351562 406.750976562 709 c 0
 407.302734375 617.340820312 491.569335938 573.809570312 548.154296875 587 c 1
 538.154296875 545 l 1
EndSplineSet
Refer: 34 3490 N 1 0 0 1 -4.24996 0 2
LCarets2: 1 0
Ligature2: "si_abvs_1 subtable" si_Ja si_MatraI
EndChar

StartChar: si_JIi
Encoding: 153 -1 149
GlifName: si_J_I_i
Width: 841
VWidth: 6
Flags: HMW
LayerCount: 5
Back
Refer: 34 3490 N 1 0 0 1 -4.24996 0 2
Fore
SplineSet
543.154296875 548 m 5
 486.2421875 546.436523438 354.434570312 567.110351562 353.666992188 708 c 0
 352.995117188 831.041992188 451.125976562 930.4453125 575.76171875 930.4453125 c 0
 674.139648438 930.4453125 727.65625 868.206054688 727.65625 813.780273438 c 0
 727.65625 736.600585938 655.58203125 686.86328125 603.8046875 686.86328125 c 0
 551.021484375 686.86328125 515.40625 718.944335938 515.40625 767.743164062 c 0
 515.40625 844.90625 603.55078125 896.037109375 668.939453125 879.461914062 c 1
 641.553710938 858.975585938 l 1
 615.927734375 863.123046875 568.588867188 832.892578125 568.154296875 781 c 0
 567.893554688 753.1796875 588.591796875 737.447265625 614.16015625 737.447265625 c 0
 640.97265625 737.447265625 671.553710938 756.709960938 671.553710938 795.874023438 c 0
 671.553710938 826.049804688 662.858398438 866.889648438 582.985351562 866.889648438 c 0
 477.646484375 866.889648438 398.224609375 791.485351562 398.750976562 709 c 0
 399.302734375 617.340820312 491.569335938 573.809570312 548.154296875 587 c 1
 543.154296875 548 l 5
EndSplineSet
Refer: 34 3490 N 1 0 0 1 -4.24996 0 2
LCarets2: 1 0
Ligature2: "si_abvs_2 subtable" si_Ja si_MatraIi
EndChar

StartChar: si_JU
Encoding: 154 -1 150
GlifName: si_J_U_
Width: 841
VWidth: 6
Flags: HMW
LayerCount: 5
Back
Refer: 81 -1 N 1 0 0 1 692.75 0 2
Refer: 34 3490 N 1 0 0 1 -4.24996 0 2
Fore
SplineSet
53.154296875 -231 m 0
 53.154296875 -131.329101562 168.154296875 -95 168.154296875 -95 c 1
 177.595703125 -99.4765625 188.234375 -111.609375 188.154296875 -123 c 1
 170.154296875 -133 136.154296875 -163 136.154296875 -202 c 0
 136.154296875 -243 167.157226562 -258.546875 234.154296875 -259 c 2
 678.154296875 -262 l 1
 678.154296875 190 l 1
 726.154296875 190 l 1
 735.154296875 -330 l 1
 202.154296875 -334 l 2
 94.16015625 -334.810546875 53.154296875 -287.483398438 53.154296875 -231 c 0
EndSplineSet
Refer: 34 3490 S 1 0 0 1 -4.24996 0 2
LCarets2: 1 0
Ligature2: "si_blws_1 subtable" si_Ja si_MatraU
EndChar

StartChar: si_Tt.halant
Encoding: 206 -1 202
GlifName: si_T_t.halant
Width: 802
VWidth: 16
Flags: HMW
LayerCount: 5
Back
SplineSet
345.868164062 334 m 1xfa
 319.868164062 346 285.868164062 352 252.868164062 350 c 0
 182.794921875 345.8515625 109.98046875 302.787109375 108.868164062 218 c 0
 107.868164062 140.005859375 163.865234375 54.384765625 326.868164062 55 c 0
 539.8671875 55.8037109375 611.299804688 215.23046875 619.868164062 340 c 0
 682.868164062 332 l 0
 684.057617188 137.185546875 593.868164062 -57 333.868164062 -59 c 0
 140.873046875 -60.484375 30.9990234375 38.0029296875 27.8681640625 176 c 0
 24.5791015625 320.966796875 146.853515625 394.418945312 257.868164062 398 c 0
 319.868164062 400 359.868164062 379 359.868164062 379 c 1
 345.868164062 334 l 1xfa
EndSplineSet
Refer: 576 -1 N 1 0 0 1 -27.5746 0 2
Fore
SplineSet
35.42578125 208 m 0
 35.42578125 366.491210938 164.42578125 449 279.42578125 449 c 0
 336.42578125 449 373.42578125 430 373.42578125 430 c 1
 375.42578125 414 364.42578125 388 359.42578125 382 c 1
 336.42578125 392 308.42578125 398 279.42578125 398 c 0
 195.42578125 398 107.42578125 347.975585938 107.42578125 240 c 0
 107.42578125 139.71875 211.42578125 59 375.42578125 59 c 0
 591.323242188 59 695.227539062 207 701.42578125 364 c 0
 708.643554688 555.63671875 590.465820312 697 360.42578125 697 c 0
 230.42578125 697 148.42578125 630 145.42578125 630 c 1
 133.42578125 642 121.42578125 662 127.42578125 690 c 1
 178.42578125 727 271.42578125 756 364.42578125 756 c 0
 587.368164062 756 772.583007812 603.014648438 766.42578125 357 c 0
 760.262695312 121 622.631835938 -43 387.42578125 -43 c 0
 175.42578125 -43 35.42578125 66.0556640625 35.42578125 208 c 0
145.42578125 844 m 0
 145.42578125 844 211.887695312 886.236328125 329.42578125 885 c 0
 737.483398438 880.6640625 764.42578125 521.135742188 764.42578125 374 c 1
 723.42578125 474 l 1
 723.42578125 474 719.413085938 810.974609375 324.42578125 821 c 0
 286.424804688 821.96484375 265.42578125 818 265.42578125 818 c 1
 277.42578125 852 l 1
 264.42578125 788 254.42578125 707 152.42578125 666 c 1
 127.42578125 691 l 1
 224.42578125 739 227.42578125 833 234.42578125 858 c 1
 246.42578125 816 l 1
 193.262695312 801.810546875 193.262695312 800.865234375 149.42578125 781 c 1
 141.42578125 788 139.42578125 818 145.42578125 844 c 0
EndSplineSet
LCarets2: 1 0
Ligature2: "si_halant_1 subtable" si_Tta si_Halant
EndChar

StartChar: si_TtI
Encoding: 207 -1 203
GlifName: si_T_tI_
Width: 831
VWidth: 16
Flags: HMW
LayerCount: 5
Back
SplineSet
373 329 m 1xfc
 350 338 307 345 280 343 c 0
 209 338 122.514648438 300.478515625 124 198 c 0
 125.4140625 100.419921875 224 45 357 44 c 4
 551.997070312 42.5341796875 619.875976562 198.346679688 623 323 c 0
 689 322 l 0
 687.189453125 113.185546875 577 -59 337 -59 c 4
 154 -59 47.791015625 50.107421875 53 176 c 0
 59 321 172 394 283 398 c 0
 345 400 385 379 385 379 c 1
 373 329 l 1xfc
EndSplineSet
Refer: 560 -1 N 1 0 0 1 7 0 2
Fore
SplineSet
716 357 m 1
 722.46875 621.71484375 512.801757812 659.91796875 304 655.013671875 c 1
 208.125 652.76171875 139.087890625 682.66796875 130 756 c 1
 118.201171875 851.208984375 224.026367188 949 408 949 c 1
 598.579101562 949 714.625976562 867.098632812 712 757 c 4
 710.638671875 699.9375 652 636.079101562 591 637 c 1
 559 674 l 1
 606.209960938 653.327148438 655.46484375 704.877929688 655 741 c 4
 653.88671875 827.634765625 547.381835938 866 412 866 c 1
 258.068359375 866 181.725585938 831.595703125 183 773 c 1
 184.022460938 725.96484375 248.744140625 704.991210938 319 708.356445312 c 1
 547.771484375 719.315429688 781 636.362304688 781 357 c 1
 774.836914062 121 637.206054688 -43 402 -43 c 0
 190 -43 50 66.0556640625 50 208 c 0
 50 366.491210938 179 449 294 449 c 0
 351 449 388 430 388 430 c 1
 390 414 379 388 374 382 c 1
 351 392 323 398 294 398 c 0
 210 398 122 347.975585938 122 240 c 0
 122 139.71875 226 59 390 59 c 0
 605.897460938 59 708.801757812 199 716 357 c 1
EndSplineSet
LCarets2: 1 0
Ligature2: "si_abvs_1 subtable" si_Tta si_MatraI
Ligature2: "'abvs' Above Base Substitutions in Sinhala lookup 0-1" si_Tta si_MatraI
EndChar

StartChar: si_TtIi
Encoding: 208 -1 204
GlifName: si_T_tI_i
Width: 799
VWidth: 16
Flags: HMW
LayerCount: 5
Back
SplineSet
372.5 329 m 1xfd
 349.5 338 306.5 345 279.5 343 c 0
 208.5 338 122.014648438 300.478515625 123.5 198 c 0
 124.9140625 100.419921875 213.5 45 346.5 44 c 0
 541.497070312 42.5341796875 610.375976562 198.346679688 613.5 323 c 0
 688.5 322 l 0
 686.689453125 113.185546875 566.5 -59 326.5 -59 c 0
 143.5 -59 47.291015625 50.107421875 52.5 176 c 0
 58.5 321 171.5 394 282.5 398 c 0
 344.5 400 384.5 379 384.5 379 c 1
 372.5 329 l 1xfd
EndSplineSet
Refer: 561 -1 S 1 0 0 1 6.5 0 2
Fore
SplineSet
49.5 220 m 0
 49.5 370 169.5 447 284.5 447 c 0
 341.5 447 378.5 428 378.5 428 c 1
 380.5 412 369.5 389 364.5 383 c 1
 341.5 393 313.5 399 284.5 399 c 0
 200.5 399 120.5 340 120.5 244 c 0
 120.5 142 225.5 67 389.5 67 c 0
 598.5 67 680.5 215 686.5 372 c 0
 749.5 365 l 0
 743.5 129 611.5 -35 382.5 -35 c 0
 170.5 -35 49.5 74 49.5 220 c 0
EndSplineSet
Refer: 561 -1 N 1 0 0 1 67.5 0 2
LCarets2: 1 0
Ligature2: "si_abvs_2 subtable" si_Tta si_MatraIi
EndChar

StartChar: si_TtU
Encoding: 209 -1 205
GlifName: si_T_tU_
Width: 809
VWidth: 16
Flags: HMW
LayerCount: 5
Back
SplineSet
212 -117 m 1
 228.772460938 -152 l 1
 228.76953125 -143.934570312 162.1875 -188.71875 162.190429688 -228 c 0
 162.1953125 -274.552734375 189.481445312 -288 248 -288 c 1
 615 -288 l 1
 615 167 l 5
 662 167 l 5
 668 -369 l 1
 668 -369 387.048828125 -371.4765625 176 -372.586914062 c 0
 96 -373 54.755859375 -323.6015625 54 -273 c 0
 52.37109375 -163.938476562 212 -117 212 -117 c 1
EndSplineSet
Refer: 0 3495 N 1 0 0 1 0.000411897 0 2
Fore
SplineSet
88.9208984375 -231 m 4
 88.9208984375 -131.329101562 203.920898438 -95 203.920898438 -95 c 5
 213.362304688 -99.4765625 224.000976562 -111.609375 223.920898438 -123 c 5
 205.920898438 -133 171.920898438 -163 171.920898438 -202 c 4
 171.920898438 -243 202.920898438 -259 269.920898438 -259 c 6
 671.920898438 -262 l 5
 671.920898438 210 l 5
 719.920898438 210 l 5
 728.920898438 -330 l 5
 237.920898438 -334 l 6
 129.927734375 -334.919921875 88.9208984375 -287.483398438 88.9208984375 -231 c 4
EndSplineSet
Refer: 0 3495 N 1 0 0 1 0.000411897 0 2
LCarets2: 1 0
Ligature2: "si_blws_1 subtable" si_Tta si_MatraU
EndChar

